# File produced by Open Asset Import Library (http://www.assimp.sf.net)
# (assimp v3.1.161429758)

mtllib floor4.mtl

# vertex positions
v 0.043029 0.025851 -0.088807
v 0.313176 0.025851 -0.333340
v 0.203676 0.025851 -0.454310
v -0.066472 0.025851 -0.209778
v 0.041841 -0.098482 -0.064940
v 0.041841 0.008953 -0.064940
v -0.090338 0.008953 -0.210965
v -0.090338 -0.098482 -0.210965
v 0.847639 -0.098482 0.195368
v 0.847639 0.008953 0.195368
v 0.884153 0.008953 0.591869
v 0.884153 -0.098482 0.591869
v 0.204864 -0.098482 -0.478177
v 0.204864 0.008953 -0.478177
v 0.337043 0.008953 -0.332152
v 0.337043 -0.098482 -0.332152
v 0.832363 0.025851 0.213743
v 0.865777 0.025851 0.576592
v 0.669881 0.025851 0.228706
v 0.651506 0.008953 0.213429
v 0.703295 0.025851 0.591555
v 0.688019 0.008953 0.609930
v 0.688019 -0.098482 0.609930
v 0.651506 -0.098482 0.213429
v 0.128055 0.025851 -0.904540
v -0.052702 0.025851 -0.588150
v 0.088975 0.025851 -0.507207
v 0.269733 0.025851 -0.823597
v 0.121766 -0.098482 -0.927593
v 0.121766 0.008953 -0.927593
v 0.292787 0.008953 -0.829887
v 0.292787 -0.098482 -0.829887
v 0.095265 -0.098482 -0.484154
v 0.095265 0.008953 -0.484154
v -0.075756 0.008953 -0.581860
v -0.075756 -0.098482 -0.581860
v 0.486988 0.025851 0.645829
v 0.129317 0.025851 0.715455
v 0.160495 0.025851 0.875618
v 0.518166 0.025851 0.805992
v 0.500345 -0.098482 0.626015
v 0.500345 0.008953 0.626015
v 0.537980 0.008953 0.819350
v 0.537980 -0.098482 0.819350
v 0.147138 -0.098482 0.895433
v 0.147138 0.008953 0.895433
v 0.109503 0.008953 0.702098
v 0.109503 -0.098482 0.702098
v 0.594492 0.025851 -0.132481
v 0.343203 0.025851 0.131394
v 0.461365 0.025851 0.243920
v 0.712654 0.025851 -0.019955
v 0.593908 -0.098482 -0.156370
v 0.593908 0.008953 -0.156370
v 0.736543 0.008953 -0.020539
v 0.736543 -0.098482 -0.020539
v 0.461949 -0.098482 0.267809
v 0.461949 0.008953 0.267809
v 0.319314 0.008953 0.131978
v 0.319314 -0.098482 0.131978
v -0.234349 0.025851 -0.740528
v -0.560043 0.025851 -0.903929
v -0.633213 0.025851 -0.758085
v -0.307519 0.025851 -0.594684
v -0.211669 -0.098482 -0.748054
v -0.211669 0.008953 -0.748054
v -0.299994 0.008953 -0.572004
v -0.299994 -0.098482 -0.572004
v -0.655893 -0.098482 -0.750559
v -0.655893 0.008953 -0.750559
v -0.567569 0.008953 -0.926609
v -0.567569 -0.098482 -0.926609
v -0.406885 0.025851 0.108406
v -0.759395 0.025851 0.016141
v -0.800711 0.025851 0.173993
v -0.448201 0.025851 0.266258
v -0.386260 -0.098482 0.096338
v -0.386260 0.008953 0.096338
v -0.436133 0.008953 0.286883
v -0.436133 -0.098482 0.286883
v -0.821336 -0.098482 0.186061
v -0.821336 0.008953 0.186061
v -0.771463 0.008953 -0.004484
v -0.771463 -0.098482 -0.004484
v 0.027064 0.025851 0.009401
v -0.273419 0.025851 0.215522
v -0.181119 0.025851 0.350077
v 0.119364 0.025851 0.143956
v 0.031440 -0.098482 -0.014091
v 0.031440 0.008953 -0.014091
v 0.142856 0.008953 0.148332
v 0.142856 -0.098482 0.148332
v -0.185495 -0.098482 0.373569
v -0.185495 0.008953 0.373569
v -0.296911 0.008953 0.211147
v -0.296911 -0.098482 0.211147
v -0.447373 0.025851 0.488647
v -0.688171 0.025851 0.762129
v -0.565708 0.025851 0.869957
v -0.324910 0.025851 0.596475
v -0.448889 -0.098482 0.464799
v -0.448889 0.008953 0.464799
v -0.301061 0.008953 0.594960
v -0.301061 -0.098482 0.594960
v -0.564192 -0.098482 0.893805
v -0.564192 0.008953 0.893805
v -0.712019 0.008953 0.763644
v -0.712019 -0.098482 0.763644
v 0.650974 0.025851 -0.678695
v 0.428209 0.025851 -0.390335
v 0.557335 0.025851 -0.290582
v 0.780100 0.025851 -0.578942
v 0.647933 -0.098482 -0.702397
v 0.647933 0.008953 -0.702397
v 0.803802 0.008953 -0.581984
v 0.803802 -0.098482 -0.581984
v 0.560377 -0.098482 -0.266880
v 0.560377 0.008953 -0.266880
v 0.404507 0.008953 -0.387294
v 0.404507 -0.098482 -0.387294
v 0.299470 0.025851 0.336441
v -0.026501 0.025851 0.499287
v 0.046420 0.025851 0.645255
v 0.372391 0.025851 0.482409
v 0.307034 -0.098482 0.313774
v 0.307034 0.008953 0.313774
v 0.395059 0.008953 0.489974
v 0.395059 -0.098482 0.489974
v 0.038856 -0.098482 0.667922
v 0.038856 0.008953 0.667922
v -0.049169 0.008953 0.491723
v -0.049169 -0.098482 0.491723
v -0.462906 0.025851 -0.146265
v -0.528798 0.025851 -0.504642
v -0.689278 0.025851 -0.475136
v -0.623385 0.025851 -0.116759
v -0.443232 -0.098482 -0.132702
v -0.443232 0.008953 -0.132702
v -0.636948 0.008953 -0.097084
v -0.636948 -0.098482 -0.097084
v -0.708952 -0.098482 -0.488699
v -0.708952 0.008953 -0.488699
v -0.515235 0.008953 -0.524316
v -0.515235 -0.098482 -0.524316
v -1.000000 0.000000 1.000000
v 1.000000 0.000000 1.000000
v 1.000000 0.000000 -1.000000
v -1.000000 0.000000 -1.000000

# UV coordinates
vt 0.046157 0.750847
vt 0.176276 0.748026
vt 0.176276 0.808009
vt 0.053669 0.805107
vt 0.000287 0.751542
vt 0.036785 0.746087
vt 0.046786 0.813000
vt 0.010288 0.818454
vt 0.265190 0.999713
vt 0.265190 0.962103
vt 0.404579 0.962103
vt 0.404579 0.999713
vt 0.224555 0.814220
vt 0.185061 0.814220
vt 0.185061 0.741814
vt 0.224555 0.741814
vt 0.181293 0.700997
vt 0.182125 0.739362
vt 0.039939 0.742444
vt 0.039107 0.704080
vt 0.181811 0.816250
vt 0.045909 0.849432
vt 0.180934 0.852682
vt 0.271105 0.953738
vt 0.398664 0.953738
vt 0.271105 0.896617
vt 0.262740 0.959653
vt 0.262740 0.890702
vt 0.398664 0.896617
vt 0.265190 0.888252
vt 0.404579 0.888252
vt 0.407030 0.890702
vt 0.407030 0.959653
vt 0.404579 0.850642
vt 0.265190 0.850642
vt 0.444639 0.959653
vt 0.444639 0.890702
vt 0.225130 0.890702
vt 0.225130 0.959653
vt 0.491189 0.874531
vt 0.491189 0.746972
vt 0.548309 0.746972
vt 0.548309 0.874531
vt 0.485274 0.920506
vt 0.485274 0.882897
vt 0.554225 0.882897
vt 0.554224 0.920506
vt 0.554225 0.700997
vt 0.554225 0.738607
vt 0.485274 0.738607
vt 0.485274 0.700997
vt 0.445214 0.741057
vt 0.482824 0.741057
vt 0.482824 0.880447
vt 0.445214 0.880446
vt 0.556675 0.741057
vt 0.556675 0.880447
vt 0.594284 0.880447
vt 0.594284 0.741057
vt 0.746972 0.173821
vt 0.746972 0.046262
vt 0.804093 0.046262
vt 0.804093 0.173821
vt 0.741057 0.219796
vt 0.741057 0.182187
vt 0.810008 0.182187
vt 0.810008 0.219796
vt 0.810008 0.000287
vt 0.810008 0.037897
vt 0.741057 0.037897
vt 0.741057 0.000287
vt 0.700997 0.040347
vt 0.738607 0.040347
vt 0.738607 0.179737
vt 0.700997 0.179737
vt 0.812458 0.040347
vt 0.812458 0.179737
vt 0.850067 0.179737
vt 0.850067 0.040347
vt 0.746972 0.834073
vt 0.746972 0.706514
vt 0.804093 0.706514
vt 0.804093 0.834073
vt 0.741057 0.880048
vt 0.741057 0.842438
vt 0.810008 0.842438
vt 0.810008 0.880048
vt 0.810008 0.660539
vt 0.810008 0.698149
vt 0.741057 0.698149
vt 0.741057 0.660539
vt 0.700997 0.700599
vt 0.738607 0.700599
vt 0.738607 0.839988
vt 0.700997 0.839988
vt 0.812458 0.700599
vt 0.812458 0.839988
vt 0.850067 0.839988
vt 0.850067 0.700599
vt 0.804093 0.266346
vt 0.804093 0.393905
vt 0.746972 0.393905
vt 0.746972 0.266346
vt 0.810008 0.220371
vt 0.810008 0.257981
vt 0.741057 0.257981
vt 0.741057 0.220371
vt 0.741057 0.439880
vt 0.741057 0.402270
vt 0.810008 0.402270
vt 0.810008 0.439880
vt 0.850067 0.399820
vt 0.812458 0.399820
vt 0.812458 0.260431
vt 0.850067 0.260431
vt 0.738607 0.399820
vt 0.738607 0.260431
vt 0.700997 0.260431
vt 0.700997 0.399820
vt 0.896617 0.393905
vt 0.896617 0.266346
vt 0.953738 0.266346
vt 0.953738 0.393905
vt 0.890702 0.439880
vt 0.890702 0.402270
vt 0.959653 0.402271
vt 0.959653 0.439880
vt 0.959653 0.220371
vt 0.959653 0.257981
vt 0.890702 0.257981
vt 0.890702 0.220371
vt 0.850642 0.260431
vt 0.888252 0.260431
vt 0.888252 0.399820
vt 0.850642 0.399820
vt 0.962103 0.260431
vt 0.962103 0.399820
vt 0.999713 0.399820
vt 0.999713 0.260431
vt 0.271105 0.746972
vt 0.398664 0.746972
vt 0.398664 0.804093
vt 0.271105 0.804093
vt 0.225130 0.741057
vt 0.262740 0.741057
vt 0.262740 0.810008
vt 0.225130 0.810008
vt 0.444639 0.810008
vt 0.407030 0.810008
vt 0.407030 0.741057
vt 0.444639 0.741057
vt 0.404580 0.700997
vt 0.404580 0.738607
vt 0.265190 0.738607
vt 0.265190 0.700997
vt 0.404579 0.812458
vt 0.265190 0.812458
vt 0.265190 0.850067
vt 0.404579 0.850067
vt 0.746972 0.613989
vt 0.746972 0.486430
vt 0.804093 0.486430
vt 0.804092 0.613989
vt 0.741057 0.659964
vt 0.741057 0.622354
vt 0.810008 0.622354
vt 0.810008 0.659964
vt 0.810008 0.440455
vt 0.810008 0.478065
vt 0.741057 0.478065
vt 0.741057 0.440455
vt 0.700997 0.480515
vt 0.738607 0.480515
vt 0.738607 0.619904
vt 0.700997 0.619904
vt 0.812458 0.480515
vt 0.812458 0.619904
vt 0.850067 0.619904
vt 0.850067 0.480515
vt 0.953738 0.486430
vt 0.953738 0.613989
vt 0.896617 0.613989
vt 0.896617 0.486430
vt 0.959653 0.440455
vt 0.959653 0.478065
vt 0.890702 0.478065
vt 0.890702 0.440455
vt 0.890702 0.659964
vt 0.890702 0.622354
vt 0.959653 0.622354
vt 0.959653 0.659964
vt 0.999712 0.619904
vt 0.962103 0.619904
vt 0.962103 0.480515
vt 0.999713 0.480515
vt 0.888252 0.619904
vt 0.888252 0.480515
vt 0.850642 0.480515
vt 0.850642 0.619904
vt 0.896617 0.834073
vt 0.896617 0.706514
vt 0.953738 0.706514
vt 0.953738 0.834073
vt 0.890702 0.880048
vt 0.890702 0.842438
vt 0.959653 0.842438
vt 0.959653 0.880048
vt 0.959653 0.660539
vt 0.959653 0.698148
vt 0.890702 0.698148
vt 0.890702 0.660539
vt 0.850642 0.700598
vt 0.888252 0.700598
vt 0.888252 0.839988
vt 0.850642 0.839988
vt 0.962103 0.700598
vt 0.962103 0.839988
vt 0.999713 0.839988
vt 0.999713 0.700599
vt 0.953738 0.046262
vt 0.953738 0.173821
vt 0.896617 0.173821
vt 0.896617 0.046262
vt 0.959653 0.000287
vt 0.959653 0.037897
vt 0.890702 0.037897
vt 0.890702 0.000287
vt 0.890702 0.219796
vt 0.890702 0.182187
vt 0.959653 0.182187
vt 0.959653 0.219796
vt 0.999713 0.179737
vt 0.962103 0.179737
vt 0.962103 0.040347
vt 0.999713 0.040347
vt 0.888252 0.179737
vt 0.888252 0.040347
vt 0.850642 0.040347
vt 0.850642 0.179737
vt 0.700422 0.700422
vt 0.000287 0.700422
vt 0.000288 0.000287
vt 0.700422 0.000288

# vertex normals
vn -0.021102 0.905410 0.424013
vn 0.424013 0.905410 0.021103
vn 0.021102 0.905410 -0.424013
vn -0.424013 0.905410 -0.021102
vn -0.049706 0.000000 0.998764
vn -0.045742 0.391361 0.919100
vn -0.919100 0.391362 -0.045742
vn -0.998764 0.000000 -0.049706
vn 0.639285 0.000000 -0.768970
vn 0.588294 0.391361 -0.707635
vn 0.707634 0.391361 0.588294
vn 0.768970 0.000000 0.639285
vn 0.049706 0.000000 -0.998764
vn 0.045742 0.391362 -0.919099
vn 0.919099 0.391362 0.045742
vn 0.998764 0.000000 0.049706
vn 0.271402 0.905410 -0.326456
vn 0.326458 0.905410 0.271401
vn -0.326457 0.905410 -0.271400
vn -0.707634 0.391362 -0.588295
vn -0.271401 0.905410 0.326457
vn -0.588294 0.391361 0.707634
vn -0.639286 0.000000 0.768970
vn -0.768969 0.000000 -0.639285
vn -0.111739 0.905411 -0.409568
vn -0.409569 0.905410 0.111739
vn 0.111739 0.905410 0.409569
vn 0.409569 0.905411 -0.111738
vn -0.263201 0.000000 -0.964741
vn -0.242208 0.391362 -0.887790
vn 0.887790 0.391362 -0.242208
vn 0.964741 0.000000 -0.263202
vn 0.263201 0.000000 0.964741
vn 0.242208 0.391362 0.887790
vn -0.887790 0.391362 0.242207
vn -0.964741 0.000000 0.263201
vn 0.237303 0.905410 -0.352022
vn -0.352022 0.905410 -0.237302
vn -0.237302 0.905410 0.352022
vn 0.352023 0.905410 0.237302
vn 0.558966 0.000000 -0.829190
vn 0.514382 0.391362 -0.763052
vn 0.763051 0.391362 0.514382
vn 0.829190 0.000000 0.558966
vn -0.558966 0.000000 0.829190
vn -0.514382 0.391362 0.763052
vn -0.763052 0.391362 -0.514381
vn -0.829190 0.000000 -0.558966
vn -0.010369 0.905410 -0.424411
vn -0.424412 0.905410 0.010370
vn 0.010369 0.905410 0.424412
vn 0.424411 0.905410 -0.010369
vn -0.024425 0.000000 -0.999702
vn -0.022476 0.391361 -0.919962
vn 0.919962 0.391362 -0.022477
vn 0.999702 0.000000 -0.024425
vn 0.024424 0.000000 0.999702
vn 0.022476 0.391361 0.919963
vn -0.919963 0.391361 0.022476
vn -0.999702 0.000000 0.024424
vn 0.402934 0.905411 -0.133702
vn -0.133704 0.905411 -0.402933
vn -0.402934 0.905410 0.133703
vn 0.133703 0.905410 0.402934
vn 0.949112 0.000000 -0.314938
vn 0.873408 0.391362 -0.289817
vn 0.289818 0.391362 0.873408
vn 0.314938 0.000000 0.949112
vn -0.949112 0.000000 0.314937
vn -0.873408 0.391362 0.289817
vn -0.289817 0.391362 -0.873408
vn -0.314937 0.000000 -0.949113
vn 0.366422 0.905410 -0.214400
vn -0.214400 0.905410 -0.366422
vn -0.366422 0.905410 0.214400
vn 0.214400 0.905410 0.366422
vn 0.863108 0.000000 -0.505019
vn 0.794264 0.391361 -0.464737
vn 0.464737 0.391361 0.794264
vn 0.505019 0.000000 0.863108
vn -0.863108 0.000000 0.505019
vn -0.794264 0.391361 0.464737
vn -0.464737 0.391361 -0.794264
vn -0.505019 0.000000 -0.863108
vn 0.077739 0.905410 -0.417360
vn -0.417360 0.905410 -0.077738
vn -0.077739 0.905410 0.417360
vn 0.417360 0.905410 0.077739
vn 0.183115 0.000000 -0.983092
vn 0.168509 0.391361 -0.904677
vn 0.904677 0.391361 0.168509
vn 0.983092 0.000000 0.183114
vn -0.183115 0.000000 0.983092
vn -0.168509 0.391361 0.904677
vn -0.904677 0.391361 -0.168509
vn -0.983092 0.000000 -0.183115
vn -0.026926 0.905410 -0.423684
vn -0.423684 0.905410 0.026926
vn 0.026925 0.905410 0.423683
vn 0.423683 0.905410 -0.026927
vn -0.063424 0.000000 -0.997987
vn -0.058365 0.391361 -0.918384
vn 0.918384 0.391361 -0.058365
vn 0.997987 0.000000 -0.063424
vn 0.063424 0.000000 0.997987
vn 0.058365 0.391361 0.918384
vn -0.918384 0.391361 0.058364
vn -0.997987 0.000000 0.063424
vn -0.054040 0.905410 -0.421085
vn -0.421085 0.905410 0.054040
vn 0.054039 0.905410 0.421085
vn 0.421085 0.905410 -0.054039
vn -0.127289 0.000000 -0.991866
vn -0.117136 0.391361 -0.912752
vn 0.912751 0.391361 -0.117137
vn 0.991866 0.000000 -0.127290
vn 0.127290 0.000000 0.991866
vn 0.117137 0.391361 0.912752
vn -0.912752 0.391361 0.117137
vn -0.991866 0.000000 0.127290
vn 0.134390 0.905410 -0.402706
vn -0.402706 0.905410 -0.134388
vn -0.134388 0.905410 0.402707
vn 0.402707 0.905410 0.134389
vn 0.316553 0.000000 -0.948575
vn 0.291304 0.391362 -0.872914
vn 0.872914 0.391361 0.291304
vn 0.948575 0.000000 0.316553
vn -0.316553 0.000000 0.948575
vn -0.291304 0.391361 0.872914
vn -0.872914 0.391362 -0.291304
vn -0.948575 0.000000 -0.316553
vn 0.349530 0.905410 0.240960
vn 0.240960 0.905410 -0.349529
vn -0.349529 0.905410 -0.240959
vn -0.240960 0.905410 0.349529
vn 0.823317 0.000000 0.567582
vn 0.757647 0.391362 0.522310
vn -0.522310 0.391361 0.757647
vn -0.567582 0.000000 0.823317
vn -0.823317 0.000000 -0.567582
vn -0.757647 0.391362 -0.522310
vn 0.522310 0.391362 -0.757647
vn 0.567582 0.000000 -0.823317
vn 0.000000 1.000000 0.000000

# Mesh
g Floor 4 lp
usemtl Stones
f 4/4/4 1/1/1 2/2/2
f 2/2/2 3/3/3 4/4/4
f 8/8/8 5/5/5 6/6/6
f 6/6/6 7/7/7 8/8/8
f 12/12/12 9/9/9 10/10/10
f 10/10/10 11/11/11 12/12/12
f 16/16/16 13/13/13 14/14/14
f 14/14/14 15/15/15 16/16/16
f 5/20/5 16/17/16 15/18/15
f 15/18/15 6/19/6 5/20/5
f 14/14/14 3/3/3 2/2/2
f 2/2/2 15/15/15 14/14/14
f 15/18/15 2/2/2 1/1/1
f 1/1/1 6/19/6 15/18/15
f 6/6/6 1/1/1 4/4/4
f 4/4/4 7/7/7 6/6/6
f 7/7/7 4/4/4 3/3/3
f 3/3/3 14/21/14 7/7/7
f 13/23/13 8/22/8 7/7/7
f 7/7/7 14/21/14 13/23/13
f 10/10/10 17/24/17 18/25/18
f 18/25/18 11/11/11 10/10/10
f 20/28/20 19/26/19 17/24/17
f 17/24/17 10/27/10 20/28/20
f 22/31/22 21/29/21 19/26/19
f 19/26/19 20/30/20 22/31/22
f 11/33/11 18/25/18 21/29/21
f 21/29/21 22/32/22 11/33/11
f 24/35/24 23/34/23 22/31/22
f 22/31/22 20/30/20 24/35/24
f 23/37/23 12/36/12 11/33/11
f 11/33/11 22/32/22 23/37/23
f 9/39/9 24/38/24 20/28/20
f 20/28/20 10/27/10 9/39/9
f 17/24/17 19/26/19 21/29/21
f 21/29/21 18/25/18 17/24/17
f 28/43/28 25/40/25 26/41/26
f 26/41/26 27/42/27 28/43/28
f 32/47/32 29/44/29 30/45/30
f 30/45/30 31/46/31 32/47/32
f 36/51/36 33/48/33 34/49/34
f 34/49/34 35/50/35 36/51/36
f 29/55/29 36/52/36 35/53/35
f 35/53/35 30/54/30 29/55/29
f 34/49/34 27/42/27 26/41/26
f 26/41/26 35/50/35 34/49/34
f 35/53/35 26/41/26 25/40/25
f 25/40/25 30/54/30 35/53/35
f 30/45/30 25/40/25 28/43/28
f 28/43/28 31/46/31 30/45/30
f 31/57/31 28/43/28 27/42/27
f 27/42/27 34/56/34 31/57/31
f 33/59/33 32/58/32 31/57/31
f 31/57/31 34/56/34 33/59/33
f 40/63/40 37/60/37 38/61/38
f 38/61/38 39/62/39 40/63/40
f 44/67/44 41/64/41 42/65/42
f 42/65/42 43/66/43 44/67/44
f 48/71/48 45/68/45 46/69/46
f 46/69/46 47/70/47 48/71/48
f 41/75/41 48/72/48 47/73/47
f 47/73/47 42/74/42 41/75/41
f 46/69/46 39/62/39 38/61/38
f 38/61/38 47/70/47 46/69/46
f 47/73/47 38/61/38 37/60/37
f 37/60/37 42/74/42 47/73/47
f 42/65/42 37/60/37 40/63/40
f 40/63/40 43/66/43 42/65/42
f 43/77/43 40/63/40 39/62/39
f 39/62/39 46/76/46 43/77/43
f 45/79/45 44/78/44 43/77/43
f 43/77/43 46/76/46 45/79/45
f 52/83/52 49/80/49 50/81/50
f 50/81/50 51/82/51 52/83/52
f 56/87/56 53/84/53 54/85/54
f 54/85/54 55/86/55 56/87/56
f 60/91/60 57/88/57 58/89/58
f 58/89/58 59/90/59 60/91/60
f 53/95/53 60/92/60 59/93/59
f 59/93/59 54/94/54 53/95/53
f 58/89/58 51/82/51 50/81/50
f 50/81/50 59/90/59 58/89/58
f 59/93/59 50/81/50 49/80/49
f 49/80/49 54/94/54 59/93/59
f 54/85/54 49/80/49 52/83/52
f 52/83/52 55/86/55 54/85/54
f 55/97/55 52/83/52 51/82/51
f 51/82/51 58/96/58 55/97/55
f 57/99/57 56/98/56 55/97/55
f 55/97/55 58/96/58 57/99/57
f 64/103/64 61/100/61 62/101/62
f 62/101/62 63/102/63 64/103/64
f 68/107/68 65/104/65 66/105/66
f 66/105/66 67/106/67 68/107/68
f 72/111/72 69/108/69 70/109/70
f 70/109/70 71/110/71 72/111/72
f 65/115/65 72/112/72 71/113/71
f 71/113/71 66/114/66 65/115/65
f 70/109/70 63/102/63 62/101/62
f 62/101/62 71/110/71 70/109/70
f 71/113/71 62/101/62 61/100/61
f 61/100/61 66/114/66 71/113/71
f 66/105/66 61/100/61 64/103/64
f 64/103/64 67/106/67 66/105/66
f 67/117/67 64/103/64 63/102/63
f 63/102/63 70/116/70 67/117/67
f 69/119/69 68/118/68 67/117/67
f 67/117/67 70/116/70 69/119/69
f 76/123/76 73/120/73 74/121/74
f 74/121/74 75/122/75 76/123/76
f 80/127/80 77/124/77 78/125/78
f 78/125/78 79/126/79 80/127/80
f 84/131/84 81/128/81 82/129/82
f 82/129/82 83/130/83 84/131/84
f 77/135/77 84/132/84 83/133/83
f 83/133/83 78/134/78 77/135/77
f 82/129/82 75/122/75 74/121/74
f 74/121/74 83/130/83 82/129/82
f 83/133/83 74/121/74 73/120/73
f 73/120/73 78/134/78 83/133/83
f 78/125/78 73/120/73 76/123/76
f 76/123/76 79/126/79 78/125/78
f 79/137/79 76/123/76 75/122/75
f 75/122/75 82/136/82 79/137/79
f 81/139/81 80/138/80 79/137/79
f 79/137/79 82/136/82 81/139/81
f 88/143/88 85/140/85 86/141/86
f 86/141/86 87/142/87 88/143/88
f 92/147/92 89/144/89 90/145/90
f 90/145/90 91/146/91 92/147/92
f 96/151/96 93/148/93 94/149/94
f 94/149/94 95/150/95 96/151/96
f 89/155/89 96/152/96 95/153/95
f 95/153/95 90/154/90 89/155/89
f 94/149/94 87/142/87 86/141/86
f 86/141/86 95/150/95 94/149/94
f 95/153/95 86/141/86 85/140/85
f 85/140/85 90/154/90 95/153/95
f 90/145/90 85/140/85 88/143/88
f 88/143/88 91/146/91 90/145/90
f 91/157/91 88/143/88 87/142/87
f 87/142/87 94/156/94 91/157/91
f 93/159/93 92/158/92 91/157/91
f 91/157/91 94/156/94 93/159/93
f 100/163/100 97/160/97 98/161/98
f 98/161/98 99/162/99 100/163/100
f 104/167/104 101/164/101 102/165/102
f 102/165/102 103/166/103 104/167/104
f 108/171/108 105/168/105 106/169/106
f 106/169/106 107/170/107 108/171/108
f 101/175/101 108/172/108 107/173/107
f 107/173/107 102/174/102 101/175/101
f 106/169/106 99/162/99 98/161/98
f 98/161/98 107/170/107 106/169/106
f 107/173/107 98/161/98 97/160/97
f 97/160/97 102/174/102 107/173/107
f 102/165/102 97/160/97 100/163/100
f 100/163/100 103/166/103 102/165/102
f 103/177/103 100/163/100 99/162/99
f 99/162/99 106/176/106 103/177/103
f 105/179/105 104/178/104 103/177/103
f 103/177/103 106/176/106 105/179/105
f 112/183/112 109/180/109 110/181/110
f 110/181/110 111/182/111 112/183/112
f 116/187/116 113/184/113 114/185/114
f 114/185/114 115/186/115 116/187/116
f 120/191/120 117/188/117 118/189/118
f 118/189/118 119/190/119 120/191/120
f 113/195/113 120/192/120 119/193/119
f 119/193/119 114/194/114 113/195/113
f 118/189/118 111/182/111 110/181/110
f 110/181/110 119/190/119 118/189/118
f 119/193/119 110/181/110 109/180/109
f 109/180/109 114/194/114 119/193/119
f 114/185/114 109/180/109 112/183/112
f 112/183/112 115/186/115 114/185/114
f 115/197/115 112/183/112 111/182/111
f 111/182/111 118/196/118 115/197/115
f 117/199/117 116/198/116 115/197/115
f 115/197/115 118/196/118 117/199/117
f 124/203/124 121/200/121 122/201/122
f 122/201/122 123/202/123 124/203/124
f 128/207/128 125/204/125 126/205/126
f 126/205/126 127/206/127 128/207/128
f 132/211/132 129/208/129 130/209/130
f 130/209/130 131/210/131 132/211/132
f 125/215/125 132/212/132 131/213/131
f 131/213/131 126/214/126 125/215/125
f 130/209/130 123/202/123 122/201/122
f 122/201/122 131/210/131 130/209/130
f 131/213/131 122/201/122 121/200/121
f 121/200/121 126/214/126 131/213/131
f 126/205/126 121/200/121 124/203/124
f 124/203/124 127/206/127 126/205/126
f 127/217/127 124/203/124 123/202/123
f 123/202/123 130/216/130 127/217/127
f 129/219/129 128/218/128 127/217/127
f 127/217/127 130/216/130 129/219/129
f 136/223/136 133/220/133 134/221/134
f 134/221/134 135/222/135 136/223/136
f 140/227/140 137/224/137 138/225/138
f 138/225/138 139/226/139 140/227/140
f 144/231/144 141/228/141 142/229/142
f 142/229/142 143/230/143 144/231/144
f 137/235/137 144/232/144 143/233/143
f 143/233/143 138/234/138 137/235/137
f 142/229/142 135/222/135 134/221/134
f 134/221/134 143/230/143 142/229/142
f 143/233/143 134/221/134 133/220/133
f 133/220/133 138/234/138 143/233/143
f 138/225/138 133/220/133 136/223/136
f 136/223/136 139/226/139 138/225/138
f 139/237/139 136/223/136 135/222/135
f 135/222/135 142/236/142 139/237/139
f 141/239/141 140/238/140 139/237/139
f 139/237/139 142/236/142 141/239/141
f 148/243/145 145/240/145 146/241/145
f 146/241/145 147/242/145 148/243/145
