# File produced by Open Asset Import Library (http://www.assimp.sf.net)
# (assimp v3.1.161429758)

mtllib openhaard.mtl

# vertex positions
v -6.583354 0.206743 -1.957544
v -7.272430 0.206743 -1.957544
v -7.272430 0.018438 -1.957544
v -6.583354 0.018438 -1.957544
v -7.272430 0.206743 -3.457544
v -6.583354 0.206743 -3.457544
v -6.583354 0.018438 -3.457544
v -7.272430 0.018438 -3.457544
v -7.272430 1.284205 -3.457544
v -7.272430 1.284205 -1.957544
v -7.272430 1.472511 -1.957544
v -7.272430 1.472511 -3.457544
v -6.583354 1.284205 -1.957544
v -6.583354 1.472511 -1.957544
v -7.218351 1.284205 -2.075265
v -6.637434 1.284205 -2.075265
v -7.232536 1.472511 -2.044387
v -7.173456 3.018438 -2.108690
v -7.173456 3.018438 -3.306398
v -7.232536 1.472511 -3.370702
v -6.623249 1.472511 -2.044387
v -6.623249 3.018438 -2.108690
v -6.583354 1.284205 -3.457544
v -6.583354 1.472511 -3.457544
v -6.637434 0.206743 -2.075265
v -7.218351 0.206743 -2.075265
v -7.218351 0.206743 -3.339823
v -7.218351 1.284205 -3.339823
v -6.637434 1.284205 -3.339823
v -6.637434 0.206743 -3.339823
v -7.218351 0.949157 -2.294153
v -7.218351 0.949157 -3.127550
v -6.850948 0.949157 -3.127550
v -6.850948 0.949157 -2.294153
v -7.218351 0.206743 -3.127549
v -7.218351 0.206743 -2.294152
v -6.850948 0.225258 -2.294153
v -6.850948 0.225258 -3.127550
v -7.147536 0.187592 -2.700854
v -7.147536 0.544549 -2.700854
v -7.106519 0.544549 -2.671053
v -7.106519 0.187592 -2.671053
v -7.122186 0.187592 -2.852937
v -7.122186 0.485757 -2.852937
v -7.172885 0.485757 -2.852937
v -7.172885 0.187592 -2.852937
v -7.122186 0.187592 -2.733089
v -7.122186 0.544549 -2.733089
v -7.172885 0.544549 -2.733089
v -7.172885 0.187592 -2.733089
v -7.122186 0.544549 -2.622835
v -7.122186 0.187592 -2.622835
v -7.188552 0.187592 -2.781307
v -7.188552 0.544549 -2.781307
v -7.147536 0.544549 -2.811107
v -7.147536 0.187592 -2.811107
v -7.106519 0.187592 -2.781307
v -7.106519 0.544549 -2.781307
v -7.172885 0.544549 -2.622835
v -7.172885 0.187592 -2.622835
v -7.188552 0.544549 -2.671053
v -7.188552 0.187592 -2.671053
v -7.188552 0.187592 -2.901155
v -7.188552 0.485757 -2.901155
v -7.147536 0.485757 -2.930955
v -7.147536 0.187592 -2.930955
v -7.106519 0.187592 -2.901155
v -7.106519 0.485757 -2.901155
v -7.122186 0.187592 -2.969465
v -7.122186 0.432066 -2.969465
v -7.172885 0.432066 -2.969465
v -7.172885 0.187592 -2.969465
v -7.188552 0.187592 -3.017684
v -7.188552 0.432066 -3.017684
v -7.147536 0.432066 -3.047484
v -7.147536 0.187592 -3.047484
v -7.106519 0.187592 -3.017684
v -7.106519 0.432066 -3.017684
v -7.147536 0.187592 -2.596401
v -7.147536 0.485757 -2.596401
v -7.106519 0.485757 -2.566601
v -7.106519 0.187592 -2.566601
v -7.122186 0.485757 -2.518383
v -7.122186 0.187592 -2.518383
v -7.172885 0.485757 -2.518383
v -7.172885 0.187592 -2.518383
v -7.188552 0.485757 -2.566601
v -7.188552 0.187592 -2.566601
v -7.147536 0.187592 -2.474686
v -7.147536 0.432066 -2.474686
v -7.106519 0.432066 -2.444885
v -7.106519 0.187592 -2.444885
v -7.122186 0.432066 -2.396667
v -7.122186 0.187592 -2.396667
v -7.172885 0.432066 -2.396667
v -7.172885 0.187592 -2.396667
v -7.188552 0.432066 -2.444885
v -7.188552 0.187592 -2.444885
v -7.008368 0.235884 -2.469931
v -7.008368 0.343195 -2.469931
v -7.014421 0.351998 -2.837935
v -7.014421 0.227081 -2.837935
v -6.928513 0.351998 -2.837935
v -6.928513 0.227081 -2.837935
v -6.934567 0.343195 -2.469931
v -6.934567 0.235884 -2.469931
v -6.959965 0.423918 -2.692395
v -6.957009 0.525495 -2.716013
v -6.981483 0.364177 -3.066146
v -6.984923 0.245935 -3.038654
v -6.895754 0.357412 -3.069179
v -6.899195 0.239170 -3.041687
v -6.883364 0.519684 -2.718618
v -6.886319 0.418107 -2.695001
v -6.913515 0.431897 -2.691675
v -6.966583 0.498093 -2.668058
v -6.868802 0.413983 -2.317924
v -6.807027 0.336927 -2.345417
v -6.923920 0.318268 -2.314892
v -6.862145 0.241212 -2.342384
v -7.013933 0.415869 -2.665452
v -6.960865 0.349673 -2.689070
v -6.623249 1.472511 -3.370702
v -6.623249 3.018438 -3.306398
v -7.147536 0.432066 -2.431558
v -7.147536 0.544549 -2.767980
v -7.147536 0.544549 -2.657726
v -7.147536 0.485757 -2.887827
v -7.147536 0.432066 -3.004356
v -7.147536 0.485757 -2.553274

# UV coordinates
vt 0.926500 0.512717
vt 0.749459 0.512717
vt 0.749459 0.464337
vt 0.926499 0.464337
vt 0.749459 0.030571
vt 0.926500 0.030571
vt 0.926500 0.078951
vt 0.749459 0.078951
vt 0.941045 0.385711
vt 0.941045 0.000325
vt 0.989425 0.000325
vt 0.989425 0.385711
vt 0.172606 0.653826
vt 0.172606 0.830866
vt 0.124226 0.830866
vt 0.124226 0.653826
vt 0.701079 0.464337
vt 0.701079 0.078951
vt 0.202851 0.667720
vt 0.202851 0.816972
vt 0.409057 0.497131
vt 0.011581 0.480610
vt 0.011581 0.172890
vt 0.409057 0.156369
vt 0.396593 0.653175
vt 0.000325 0.621523
vt 0.030571 0.830866
vt 0.030571 0.653826
vt 0.078951 0.653826
vt 0.078951 0.830866
vt 0.686534 0.623724
vt 0.409708 0.623725
vt 0.409708 0.474473
vt 0.686534 0.474473
vt 0.686534 0.149577
vt 0.409708 0.149577
vt 0.409708 0.000325
vt 0.686534 0.000326
vt 0.718222 0.999272
vt 0.504103 0.999272
vt 0.504103 0.904877
vt 0.718222 0.904877
vt 0.000325 0.816972
vt 0.000325 0.667720
vt 0.763353 0.000325
vt 0.912605 0.000325
vt 0.927150 0.355466
vt 0.927150 0.030571
vt 0.686534 0.204116
vt 0.495790 0.204116
vt 0.495790 0.418235
vt 0.686534 0.418235
vt 0.718222 0.718890
vt 0.504103 0.718890
vt 0.409708 0.904877
vt 0.409708 0.714133
vt 0.504103 0.624375
vt 0.718223 0.624376
vt 0.812617 0.714133
vt 0.812617 0.904877
vt 0.778896 0.556639
vt 0.687185 0.556639
vt 0.687185 0.543613
vt 0.778896 0.543613
vt 0.889874 0.676479
vt 0.813268 0.676479
vt 0.813268 0.663453
vt 0.889874 0.663453
vt 0.403513 0.814803
vt 0.311802 0.814803
vt 0.311802 0.801777
vt 0.403513 0.801777
vt 0.778896 0.608743
vt 0.687185 0.608743
vt 0.687185 0.595717
vt 0.778896 0.595717
vt 0.403513 0.788751
vt 0.311802 0.788751
vt 0.311802 0.775725
vt 0.403513 0.775726
vt 0.403513 0.827829
vt 0.311802 0.827829
vt 0.687185 0.582691
vt 0.778896 0.582691
vt 0.311802 0.762700
vt 0.403513 0.762700
vt 0.687185 0.569665
vt 0.778896 0.569665
vt 0.889874 0.650427
vt 0.813268 0.650427
vt 0.813268 0.637401
vt 0.889874 0.637401
vt 0.889874 0.689505
vt 0.813268 0.689505
vt 0.813268 0.624375
vt 0.889874 0.624376
vt 0.876079 0.742260
vt 0.813268 0.742260
vt 0.813268 0.729234
vt 0.876079 0.729234
vt 0.876079 0.716208
vt 0.813268 0.716208
vt 0.813268 0.703182
vt 0.876079 0.703182
vt 0.876079 0.755286
vt 0.813268 0.755286
vt 0.813268 0.690156
vt 0.876079 0.690156
vt 0.779547 0.595717
vt 0.856152 0.595717
vt 0.856152 0.608743
vt 0.779547 0.608743
vt 0.779547 0.543613
vt 0.856152 0.543613
vt 0.856152 0.556639
vt 0.779547 0.556639
vt 0.856152 0.569665
vt 0.779547 0.569665
vt 0.856152 0.582691
vt 0.779547 0.582691
vt 0.813268 0.808040
vt 0.876079 0.808040
vt 0.876079 0.821066
vt 0.813268 0.821066
vt 0.813268 0.755937
vt 0.876079 0.755936
vt 0.876079 0.768962
vt 0.813268 0.768962
vt 0.876079 0.781988
vt 0.813268 0.781988
vt 0.876079 0.795014
vt 0.813268 0.795014
vt 0.407051 0.680374
vt 0.406391 0.707937
vt 0.311802 0.707937
vt 0.312570 0.675852
vt 0.334543 0.860574
vt 0.334543 0.828480
vt 0.356615 0.828480
vt 0.356615 0.860574
vt 0.313987 0.762049
vt 0.312165 0.730006
vt 0.406703 0.726896
vt 0.408268 0.754422
vt 0.376894 0.856051
vt 0.376894 0.828480
vt 0.395855 0.828480
vt 0.395855 0.856051
vt 0.313987 0.653826
vt 0.408269 0.661453
vt 0.303806 0.705938
vt 0.310370 0.731926
vt 0.211215 0.736173
vt 0.203574 0.705921
vt 0.311802 0.859682
vt 0.311802 0.828480
vt 0.333892 0.829372
vt 0.333892 0.860574
vt 0.203502 0.683813
vt 0.212125 0.653826
vt 0.311152 0.661186
vt 0.303744 0.686946
vt 0.376243 0.828480
vt 0.376243 0.855284
vt 0.357266 0.856051
vt 0.357266 0.829246
vt 0.212125 0.758262
vt 0.311152 0.750902
vt 0.303768 0.765504
vt 0.304801 0.788107
vt 0.208978 0.785224
vt 0.207775 0.758913
vt 0.838008 0.850105
vt 0.813268 0.859144
vt 0.813268 0.830756
vt 0.838008 0.821717
vt 0.203502 0.839665
vt 0.205565 0.813407
vt 0.301870 0.812317
vt 0.300098 0.834874
vt 0.859911 0.853869
vt 0.838658 0.846104
vt 0.838659 0.821717
vt 0.859911 0.829482
vt 0.208978 0.867520
vt 0.304801 0.858804
vt 0.687185 0.434092
vt 0.687185 0.377855
vt 0.687185 0.163735
vt 0.687185 0.109196
vt 0.912605 0.542962
vt 0.763354 0.542962
vt 0.101914 0.820616
vt 0.101914 0.664076
vt 0.101263 0.664076
vt 0.101263 0.820616
vt 0.999674 0.022637
vt 0.999674 0.363400
vt 0.000326 0.031977
vt 0.396593 0.000325
vt 0.032102 0.842055
vt 0.028678 0.852593
vt 0.021021 0.842055
vt 0.041066 0.848568
vt 0.041066 0.835542
vt 0.028678 0.831517
vt 0.011406 0.842055
vt 0.020370 0.835542
vt 0.020370 0.848568
vt 0.094189 0.842055
vt 0.090765 0.852593
vt 0.083108 0.842055
vt 0.103153 0.848568
vt 0.007982 0.852593
vt 0.000325 0.842055
vt 0.103153 0.835542
vt 0.090765 0.831517
vt 0.007982 0.831517
vt 0.156276 0.842055
vt 0.152852 0.831517
vt 0.165240 0.835542
vt 0.165240 0.848568
vt 0.152852 0.852593
vt 0.145195 0.842055
vt 0.052797 0.842055
vt 0.049373 0.831517
vt 0.061762 0.835542
vt 0.061762 0.848568
vt 0.049373 0.852593
vt 0.041717 0.842055
vt 0.073493 0.842055
vt 0.070069 0.852593
vt 0.062413 0.842055
vt 0.082457 0.848568
vt 0.082457 0.835542
vt 0.070069 0.831517

# vertex normals
vn 0.000000 0.000000 1.000000
vn 0.000000 0.000000 -1.000000
vn -1.000000 0.000000 0.000000
vn 0.000000 -1.000000 0.000000
vn -0.999271 0.038189 0.000000
vn 0.000000 0.041559 0.999136
vn 0.000000 -1.000000 0.000000
vn 0.000000 -1.000000 -0.000000
vn 0.000000 1.000000 0.000000
vn -0.000001 -1.000000 0.000000
vn -1.000000 0.000000 0.000000
vn -1.000000 0.000000 -0.000000
vn 0.000001 0.000000 1.000000
vn -0.050330 0.998733 0.000000
vn -0.000001 -0.000001 -1.000000
vn 0.587785 0.000000 -0.809017
vn 0.951057 0.000000 0.309017
vn -0.587785 0.000000 -0.809017
vn 0.587785 0.000000 -0.809017
vn -0.951057 0.000000 0.309017
vn -0.587785 0.000000 -0.809017
vn 0.951056 0.000000 0.309017
vn 0.587785 0.000000 -0.809017
vn -0.951056 0.000000 0.309017
vn -0.587786 0.000000 -0.809017
vn 0.951057 0.000000 0.309017
vn 0.587786 0.000000 -0.809017
vn -0.951056 0.000000 0.309017
vn 0.587785 0.000000 -0.809017
vn 0.951056 0.000000 0.309017
vn -0.951056 0.000000 0.309017
vn 0.587785 0.000000 -0.809017
vn -0.587785 0.000000 -0.809017
vn -0.999865 0.000000 0.016449
vn 0.999865 0.000000 0.016449
vn 0.000000 -0.999714 0.023914
vn 0.000000 0.999714 0.023914
vn -0.997866 0.040873 0.050917
vn -0.052153 -0.224717 -0.973027
vn 0.999238 -0.033663 -0.019736
vn 0.052153 0.224718 0.973027
vn -0.053698 -0.886522 0.459560
vn 0.056542 0.905277 -0.421043
vn 0.767970 0.637544 -0.061317
vn 0.269289 -0.124817 0.954937
vn -0.775867 -0.630452 0.023692
vn -0.269289 0.124817 -0.954937
vn 0.798223 -0.471542 -0.374817
vn -0.809981 0.477237 0.340845
vn -0.000003 1.000000 0.000000
vn 0.000001 1.000000 0.000000
vn 0.000000 0.041559 -0.999136
vn -0.000004 1.000000 0.000000
vn 0.000004 1.000000 0.000000
vn 0.000002 1.000000 0.000000
vn -0.000002 1.000000 0.000000

# Mesh
g Cube.008
usemtl DefaultMaterial
f 4/4/1 1/1/1 2/2/1
f 2/2/1 3/3/1 4/4/1
f 8/8/2 5/5/2 6/6/2
f 6/6/2 7/7/2 8/8/2
f 12/12/3 9/9/3 10/10/3
f 10/10/3 11/11/3 12/12/3
f 11/16/1 10/13/1 13/14/1
f 13/14/1 14/15/1 11/16/1
f 3/3/3 2/17/3 5/18/3
f 5/18/3 8/8/3 3/3/3
f 16/20/4 13/14/4 10/13/4
f 10/13/4 15/19/4 16/20/4
f 20/24/5 17/21/5 18/22/5
f 18/22/5 19/23/5 20/24/5
f 17/21/6 21/25/6 22/26/6
f 22/26/6 18/22/6 17/21/6
f 24/30/2 23/27/2 9/28/2
f 9/28/2 12/29/2 24/30/2
f 4/4/7 3/3/7 8/8/7
f 8/8/7 7/7/7 4/4/7
f 26/34/1 25/31/1 16/32/1
f 16/32/1 15/33/1 26/34/1
f 30/38/2 27/35/2 28/36/2
f 28/36/2 29/37/2 30/38/2
f 34/42/7 31/39/7 32/40/7
f 32/40/7 33/41/7 34/42/7
f 28/44/8 9/28/8 23/27/8
f 23/27/8 29/43/8 28/44/8
f 30/46/9 6/6/9 5/5/9
f 5/5/9 27/45/9 30/46/9
f 15/48/10 10/10/10 9/9/10
f 9/9/10 28/47/10 15/48/10
f 27/35/11 35/49/11 32/50/11
f 32/50/11 28/36/11 27/35/11
f 15/33/12 31/51/12 36/52/12
f 36/52/12 26/34/12 15/33/12
f 28/36/11 32/50/11 31/51/12
f 31/51/12 15/33/12 28/36/11
f 38/54/3 37/53/3 34/42/3
f 34/42/3 33/41/3 38/54/3
f 33/41/13 32/55/13 35/56/13
f 35/56/13 38/54/13 33/41/13
f 38/54/14 35/57/14 36/58/14
f 36/58/14 37/53/14 38/54/14
f 37/53/15 36/59/15 31/60/15
f 31/60/15 34/42/15 37/53/15
f 42/64/16 39/61/16 40/62/16
f 40/62/16 41/63/16 42/64/16
f 46/68/1 43/65/1 44/66/1
f 44/66/1 45/67/1 46/68/1
f 50/72/1 47/69/1 48/70/1
f 48/70/1 49/71/1 50/72/1
f 52/76/17 42/73/17 41/74/17
f 41/74/17 51/75/17 52/76/17
f 56/80/18 53/77/18 54/78/18
f 54/78/18 55/79/18 56/80/18
f 47/69/17 57/81/17 58/82/17
f 58/82/17 48/70/17 47/69/17
f 60/84/1 52/76/1 51/75/1
f 51/75/1 59/83/1 60/84/1
f 57/86/19 56/80/19 55/79/19
f 55/79/19 58/85/19 57/86/19
f 62/88/20 60/84/20 59/83/20
f 59/83/20 61/87/20 62/88/20
f 53/77/20 50/72/20 49/71/20
f 49/71/20 54/78/20 53/77/20
f 39/61/21 62/88/21 61/87/21
f 61/87/21 40/62/21 39/61/21
f 66/92/18 63/89/18 64/90/18
f 64/90/18 65/91/18 66/92/18
f 43/65/22 67/93/22 68/94/22
f 68/94/22 44/66/22 43/65/22
f 67/96/23 66/92/23 65/91/23
f 65/91/23 68/95/23 67/96/23
f 63/89/24 46/68/24 45/67/24
f 45/67/24 64/90/24 63/89/24
f 72/100/1 69/97/1 70/98/1
f 70/98/1 71/99/1 72/100/1
f 76/104/25 73/101/25 74/102/25
f 74/102/25 75/103/25 76/104/25
f 69/97/26 77/105/26 78/106/26
f 78/106/26 70/98/26 69/97/26
f 77/108/27 76/104/27 75/103/27
f 75/103/27 78/107/27 77/108/27
f 73/101/28 72/100/28 71/99/28
f 71/99/28 74/102/28 73/101/28
f 82/112/29 79/109/29 80/110/29
f 80/110/29 81/111/29 82/112/29
f 84/116/30 82/113/30 81/114/30
f 81/114/30 83/115/30 84/116/30
f 86/118/1 84/116/1 83/115/1
f 83/115/1 85/117/1 86/118/1
f 88/120/31 86/118/31 85/117/31
f 85/117/31 87/119/31 88/120/31
f 79/109/21 88/120/21 87/119/21
f 87/119/21 80/110/21 79/109/21
f 92/124/32 89/121/32 90/122/32
f 90/122/32 91/123/32 92/124/32
f 94/128/26 92/125/26 91/126/26
f 91/126/26 93/127/26 94/128/26
f 96/130/1 94/128/1 93/127/1
f 93/127/1 95/129/1 96/130/1
f 98/132/28 96/130/28 95/129/28
f 95/129/28 97/131/28 98/132/28
f 89/121/33 98/132/33 97/131/33
f 97/131/33 90/122/33 89/121/33
f 102/136/34 99/133/34 100/134/34
f 100/134/34 101/135/34 102/136/34
f 104/140/2 102/137/2 101/138/2
f 101/138/2 103/139/2 104/140/2
f 106/144/35 104/141/35 103/142/35
f 103/142/35 105/143/35 106/144/35
f 99/148/1 106/145/1 105/146/1
f 105/146/1 100/147/1 99/148/1
f 99/133/36 102/136/36 104/149/36
f 104/149/36 106/150/36 99/133/36
f 105/143/37 103/142/37 101/135/37
f 101/135/37 100/134/37 105/143/37
f 110/154/38 107/151/38 108/152/38
f 108/152/38 109/153/38 110/154/38
f 112/158/39 110/155/39 109/156/39
f 109/156/39 111/157/39 112/158/39
f 114/162/40 112/159/40 111/160/40
f 111/160/40 113/161/40 114/162/40
f 107/166/41 114/163/41 113/164/41
f 113/164/41 108/165/41 107/166/41
f 107/151/42 110/154/42 112/159/42
f 112/159/42 114/162/42 107/151/42
f 113/168/43 111/167/43 109/153/43
f 109/153/43 108/152/43 113/168/43
f 118/172/44 115/169/44 116/170/44
f 116/170/44 117/171/44 118/172/44
f 120/176/45 118/173/45 117/174/45
f 117/174/45 119/175/45 120/176/45
f 122/180/46 120/177/46 119/178/46
f 119/178/46 121/179/46 122/180/46
f 115/184/47 122/181/47 121/182/47
f 121/182/47 116/183/47 115/184/47
f 115/186/48 118/185/48 120/177/48
f 120/177/48 122/180/48 115/186/48
f 121/179/49 119/178/49 117/171/49
f 117/171/49 116/170/49 121/179/49
f 5/18/50 2/17/50 26/187/50
f 5/18/50 26/187/50 36/188/50
f 5/18/50 36/188/50 35/189/50
f 35/189/50 27/190/50 5/18/50
f 2/2/9 1/1/9 25/191/9
f 25/191/9 26/192/9 2/2/9
f 14/15/9 21/193/9 17/194/9
f 17/194/9 11/16/9 14/15/9
f 12/29/9 20/195/9 123/196/9
f 123/196/9 24/30/9 12/29/9
f 11/11/51 17/197/51 20/198/51
f 20/198/51 12/12/51 11/11/51
f 19/23/52 124/199/52 123/200/52
f 123/200/52 20/24/52 19/23/52
f 125/201/9 91/202/9 90/203/9
f 125/201/9 93/204/9 91/202/9
f 125/201/9 95/205/9 93/204/9
f 125/201/9 97/206/9 95/205/9
f 125/201/9 90/203/9 97/206/9
f 126/207/9 49/208/9 48/209/9
f 127/210/9 41/211/9 40/212/9
f 127/210/9 51/213/53 41/211/9
f 126/207/9 58/214/9 55/215/9
f 127/210/9 59/216/9 51/213/53
f 126/207/9 48/209/9 58/214/9
f 127/210/9 61/217/54 59/216/9
f 127/210/9 40/212/9 61/217/54
f 126/207/9 54/218/9 49/208/9
f 126/207/9 55/215/9 54/218/9
f 128/219/9 45/220/9 44/221/9
f 128/219/9 68/222/55 65/223/55
f 128/219/9 44/221/9 68/222/55
f 128/219/9 64/224/9 45/220/9
f 128/219/9 65/223/56 64/224/9
f 129/225/9 71/226/9 70/227/9
f 129/225/9 78/228/9 75/229/9
f 129/225/9 70/227/9 78/228/9
f 129/225/9 74/230/9 71/226/9
f 129/225/9 75/229/9 74/230/9
f 130/231/9 81/232/9 80/233/9
f 130/231/9 83/234/9 81/232/9
f 130/231/9 85/235/9 83/234/9
f 130/231/9 87/236/9 85/235/9
f 130/231/9 80/233/9 87/236/9
