# File produced by Open Asset Import Library (http://www.assimp.sf.net)
# (assimp v3.1.161429758)

mtllib Wall3.mtl

# vertex positions
v 0.041561 2.526778 1.000000
v 0.041561 2.526778 -1.000000
v 0.041561 0.308989 -1.000000
v 0.041561 0.308989 1.000000
v -0.041560 0.308989 1.000000
v -0.041560 0.308989 -1.000000
v -0.041561 -0.000000 -1.000000
v -0.041561 -0.000000 1.000000
v -0.041560 3.000000 1.000000
v -0.041560 3.000000 -1.000000
v -0.041560 2.526778 -1.000000
v -0.041560 2.526778 1.000000
v 0.041561 -0.000000 1.000000
v 0.041561 -0.000000 -1.000000
v 0.041561 3.000000 -1.000000
v 0.041561 3.000000 1.000000
v 0.072089 0.971260 0.624889
v 0.072089 1.079509 0.624889
v -0.109283 1.079509 0.624889
v -0.109283 0.971260 0.624889
v 0.072089 1.079509 0.409721
v -0.109283 1.079509 0.409721
v -0.116145 0.978122 0.618027
v -0.116145 1.072646 0.618027
v -0.116145 1.072646 0.416583
v -0.116145 0.978122 0.416583
v -0.109283 0.971260 0.409721
v 0.072089 0.971260 0.409721
v 0.072089 1.857480 -0.607976
v 0.072089 1.965729 -0.607976
v -0.109283 1.965729 -0.607976
v -0.109283 1.857480 -0.607976
v 0.072089 1.965729 -0.823144
v -0.109283 1.965729 -0.823144
v -0.116145 1.864343 -0.614838
v -0.116145 1.958867 -0.614838
v -0.116145 1.958867 -0.816282
v -0.116145 1.864343 -0.816282
v -0.109283 1.857480 -0.823144
v 0.072089 1.857480 -0.823144
v 0.072089 1.267306 -0.280355
v 0.072089 1.375556 -0.280355
v -0.109283 1.375556 -0.280355
v -0.109283 1.267306 -0.280355
v 0.072089 1.375556 -0.495524
v -0.109283 1.375556 -0.495524
v -0.116145 1.274169 -0.287218
v -0.116145 1.368693 -0.287218
v -0.116145 1.368693 -0.488662
v -0.116145 1.274169 -0.488662
v -0.109283 1.267306 -0.495524
v 0.072089 1.267306 -0.495524
v 0.072089 0.503810 -0.367157
v 0.072089 0.612059 -0.367157
v -0.109283 0.612059 -0.367157
v -0.109283 0.503810 -0.367157
v 0.072089 0.612059 -0.582325
v -0.109283 0.612059 -0.582325
v -0.116145 0.510673 -0.374019
v -0.116145 0.605197 -0.374019
v -0.116145 0.605197 -0.575463
v -0.116145 0.510673 -0.575463
v -0.109283 0.503810 -0.582325
v 0.072089 0.503810 -0.582325
v 0.072089 1.512901 0.134043
v 0.072089 1.621150 0.134043
v -0.109283 1.621150 0.134043
v -0.109283 1.512901 0.134043
v 0.072089 1.621150 -0.081126
v -0.109283 1.621150 -0.081126
v -0.116145 1.519763 0.127181
v -0.116145 1.614288 0.127181
v -0.116145 1.614288 -0.074263
v -0.116145 1.519763 -0.074263
v -0.109283 1.512901 -0.081126
v 0.072089 1.512901 -0.081126
v 0.104913 0.487144 0.628268
v 0.104913 0.614269 0.628268
v -0.108086 0.614269 0.628268
v -0.108086 0.487144 0.628268
v 0.104913 0.614269 0.375578
v -0.108086 0.614269 0.375578
v -0.116145 0.495203 0.620209
v -0.116145 0.606210 0.620209
v -0.116145 0.606210 0.383637
v -0.116145 0.495203 0.383637
v -0.108086 0.487144 0.375578
v 0.104913 0.487144 0.375578
v 0.072089 1.937073 0.858886
v 0.072089 2.045323 0.858886
v -0.109283 2.045323 0.858886
v -0.109283 1.937073 0.858886
v 0.072089 2.045323 0.643718
v -0.109283 2.045323 0.643718
v -0.116145 1.943936 0.852024
v -0.116145 2.038460 0.852024
v -0.116145 2.038460 0.650580
v -0.116145 1.943936 0.650580
v -0.109283 1.937073 0.643718
v 0.072089 1.937073 0.643718

# UV coordinates
vt 0.807999 0.000183
vt 0.807999 0.600116
vt 0.142736 0.600116
vt 0.142737 0.000183
vt 0.117803 0.000183
vt 0.117803 0.600116
vt 0.025116 0.600116
vt 0.025117 0.000183
vt 0.974884 0.000183
vt 0.974884 0.600116
vt 0.832933 0.600116
vt 0.832933 0.000183
vt 0.000183 0.000183
vt 0.000183 0.600116
vt 0.999817 0.600116
vt 0.999817 0.000183
vt 0.490069 0.747228
vt 0.467109 0.724268
vt 0.505579 0.685797
vt 0.528540 0.708758
vt 0.512748 0.600482
vt 0.551218 0.638952
vt 0.505579 0.684591
vt 0.467109 0.646121
vt 0.529143 0.705244
vt 0.509093 0.685194
vt 0.551821 0.642466
vt 0.571871 0.662516
vt 0.575385 0.661913
vt 0.552424 0.638952
vt 0.590895 0.600482
vt 0.613855 0.623442
vt 0.575385 0.663119
vt 0.529746 0.708758
vt 0.613855 0.701589
vt 0.568216 0.747228
vt 0.738007 0.600482
vt 0.760967 0.623442
vt 0.722497 0.661913
vt 0.699536 0.638952
vt 0.715328 0.747228
vt 0.676858 0.708758
vt 0.722497 0.663119
vt 0.760967 0.701589
vt 0.698933 0.642466
vt 0.718983 0.662516
vt 0.676255 0.705244
vt 0.656206 0.685194
vt 0.652691 0.685797
vt 0.675652 0.708758
vt 0.637182 0.747228
vt 0.614221 0.724268
vt 0.652691 0.684591
vt 0.698330 0.638952
vt 0.614221 0.646121
vt 0.659860 0.600482
vt 0.172884 0.770555
vt 0.195845 0.747594
vt 0.234316 0.786064
vt 0.211355 0.809025
vt 0.319631 0.793233
vt 0.281160 0.831703
vt 0.235521 0.786065
vt 0.273992 0.747594
vt 0.214869 0.809628
vt 0.234918 0.789578
vt 0.277646 0.832306
vt 0.257597 0.852356
vt 0.258200 0.855870
vt 0.281161 0.832909
vt 0.319631 0.871380
vt 0.296670 0.894340
vt 0.256994 0.855870
vt 0.211355 0.810231
vt 0.218523 0.894340
vt 0.172884 0.848702
vt 0.342957 0.747228
vt 0.319996 0.724268
vt 0.358467 0.685797
vt 0.381428 0.708758
vt 0.365636 0.600482
vt 0.404106 0.638952
vt 0.358467 0.684591
vt 0.319997 0.646121
vt 0.382031 0.705244
vt 0.361981 0.685194
vt 0.404709 0.642466
vt 0.424759 0.662516
vt 0.428273 0.661913
vt 0.405312 0.638952
vt 0.443783 0.600482
vt 0.466743 0.623442
vt 0.428273 0.663119
vt 0.382634 0.708758
vt 0.466743 0.701589
vt 0.421104 0.747228
vt 0.319631 0.724268
vt 0.296670 0.747228
vt 0.258200 0.708758
vt 0.281160 0.685797
vt 0.172884 0.701589
vt 0.211355 0.663119
vt 0.256994 0.708758
vt 0.218523 0.747228
vt 0.277646 0.685194
vt 0.257597 0.705244
vt 0.214869 0.662516
vt 0.234919 0.642466
vt 0.234316 0.638952
vt 0.211355 0.661913
vt 0.172884 0.623442
vt 0.195845 0.600482
vt 0.235521 0.638952
vt 0.281160 0.684591
vt 0.273992 0.600482
vt 0.319631 0.646121
vt 0.027147 0.772818
vt 0.000183 0.745853
vt 0.045362 0.700674
vt 0.072326 0.727639
vt 0.053780 0.600482
vt 0.098959 0.645661
vt 0.045362 0.699258
vt 0.000183 0.654079
vt 0.073034 0.723512
vt 0.049489 0.699966
vt 0.099667 0.649787
vt 0.123213 0.673333
vt 0.127340 0.672625
vt 0.100375 0.645661
vt 0.145554 0.600482
vt 0.172519 0.627446
vt 0.127340 0.674041
vt 0.073742 0.727639
vt 0.172519 0.719220
vt 0.118921 0.772818
vt 0.319996 0.770554
vt 0.342957 0.747594
vt 0.381428 0.786065
vt 0.358467 0.809025
vt 0.466743 0.793233
vt 0.428272 0.831703
vt 0.382634 0.786065
vt 0.421104 0.747594
vt 0.361981 0.809628
vt 0.382031 0.789579
vt 0.424759 0.832307
vt 0.404709 0.852356
vt 0.405312 0.855870
vt 0.428272 0.832909
vt 0.466743 0.871380
vt 0.443783 0.894340
vt 0.404106 0.855870
vt 0.358467 0.810231
vt 0.365636 0.894341
vt 0.319996 0.848702

# vertex normals
vn -0.707107 -0.707107 0.000000
vn -0.707107 0.707107 0.000000
vn -0.707107 -0.707107 0.000000
vn -0.000000 -1.000000 0.000000
vn 0.000000 1.000000 0.000000
vn 0.000000 -0.707107 0.707107
vn 0.000000 0.707107 0.707107
vn -0.391360 0.650707 0.650706
vn -0.391360 -0.650707 0.650706
vn 0.000000 0.707107 -0.707107
vn -0.391360 0.650707 -0.650706
vn -0.905409 -0.300191 0.300200
vn -0.905409 0.300191 0.300200
vn -0.905409 0.300191 -0.300200
vn -0.905409 -0.300191 -0.300200
vn -0.391360 -0.650707 -0.650706
vn 0.000000 -0.707107 -0.707107
vn -0.391361 0.650706 0.650706
vn -0.391361 -0.650706 0.650706
vn -0.391367 0.650703 -0.650706
vn -0.905410 -0.300189 0.300200
vn -0.905410 0.300189 0.300200
vn -0.905414 0.300191 -0.300184
vn -0.905414 -0.300191 -0.300184
vn -0.391367 -0.650703 -0.650706
vn -0.391359 0.650708 0.650706
vn -0.391361 -0.650706 0.650706
vn -0.391359 0.650708 -0.650706
vn -0.905410 -0.300189 0.300200
vn -0.905408 0.300193 0.300200
vn -0.905408 0.300193 -0.300200
vn -0.905410 -0.300189 -0.300200
vn -0.391361 -0.650706 -0.650706
vn -0.391360 0.650707 0.650705
vn -0.391360 -0.650707 0.650705
vn -0.391362 0.650706 -0.650705
vn -0.905409 -0.300192 0.300200
vn -0.905409 0.300192 0.300200
vn -0.905411 0.300193 -0.300192
vn -0.905411 -0.300193 -0.300192
vn -0.391362 -0.650706 -0.650705
vn -0.391359 0.650708 0.650705
vn -0.391361 -0.650706 0.650706
vn -0.391365 0.650705 -0.650705
vn -0.905410 -0.300189 0.300200
vn -0.905408 0.300193 0.300200
vn -0.905413 0.300194 -0.300185
vn -0.905414 -0.300191 -0.300184
vn -0.391367 -0.650703 -0.650706
vn -0.391363 0.650706 0.650706
vn -0.391363 -0.650706 0.650705
vn -0.391363 0.650706 -0.650706
vn -0.905412 -0.300190 0.300193
vn -0.905411 0.300192 0.300192
vn -0.905411 0.300192 -0.300192
vn -0.905412 -0.300190 -0.300193
vn -0.391363 -0.650706 -0.650705
vn -0.391367 0.650703 0.650706
vn -0.391363 -0.650703 0.650707
vn -0.391361 0.650706 -0.650706
vn -0.905412 -0.300200 0.300183
vn -0.905414 0.300191 0.300184
vn -0.905410 0.300189 -0.300199
vn -0.905407 -0.300198 -0.300199
vn -0.391358 -0.650707 -0.650707

# Mesh
g wall lp.004
usemtl Stones
f 4/4/2 1/1/1 2/2/1
f 2/2/1 3/3/2 4/4/2
f 8/8/3 5/5/2 6/6/2
f 6/6/2 7/7/3 8/8/3
f 12/12/1 9/9/2 10/10/2
f 10/10/2 11/11/1 12/12/1
f 4/4/2 3/3/2 6/6/2
f 6/6/2 5/5/2 4/4/2
f 14/14/4 13/13/4 8/8/3
f 8/8/3 7/7/3 14/14/4
f 16/16/5 15/15/5 10/10/2
f 10/10/2 9/9/2 16/16/5
f 2/2/1 1/1/1 12/12/1
f 12/12/1 11/11/1 2/2/1
f 20/20/9 17/17/6 18/18/7
f 18/18/7 19/19/8 20/20/9
f 18/24/7 21/21/10 22/22/11
f 22/22/11 19/23/8 18/24/7
f 26/28/15 23/25/12 24/26/13
f 24/26/13 25/27/14 26/28/15
f 28/32/17 27/29/16 22/30/11
f 22/30/11 21/31/10 28/32/17
f 26/28/15 27/33/16 20/34/9
f 20/34/9 23/25/12 26/28/15
f 23/25/12 20/20/9 19/19/8
f 19/19/8 24/26/13 23/25/12
f 24/26/13 19/23/8 22/22/11
f 22/22/11 25/27/14 24/26/13
f 25/27/14 22/30/11 27/29/16
f 27/29/16 26/28/15 25/27/14
f 20/34/9 27/33/16 28/35/17
f 28/35/17 17/36/6 20/34/9
f 32/40/19 29/37/6 30/38/7
f 30/38/7 31/39/18 32/40/19
f 30/44/7 33/41/10 34/42/20
f 34/42/20 31/43/18 30/44/7
f 38/48/24 35/45/21 36/46/22
f 36/46/22 37/47/23 38/48/24
f 40/52/17 39/49/25 34/50/20
f 34/50/20 33/51/10 40/52/17
f 38/48/24 39/53/25 32/54/19
f 32/54/19 35/45/21 38/48/24
f 35/45/21 32/40/19 31/39/18
f 31/39/18 36/46/22 35/45/21
f 36/46/22 31/43/18 34/42/20
f 34/42/20 37/47/23 36/46/22
f 37/47/23 34/50/20 39/49/25
f 39/49/25 38/48/24 37/47/23
f 32/54/19 39/53/25 40/55/17
f 40/55/17 29/56/6 32/54/19
f 44/60/27 41/57/6 42/58/7
f 42/58/7 43/59/26 44/60/27
f 42/64/7 45/61/10 46/62/28
f 46/62/28 43/63/26 42/64/7
f 50/68/32 47/65/29 48/66/30
f 48/66/30 49/67/31 50/68/32
f 52/72/17 51/69/33 46/70/28
f 46/70/28 45/71/10 52/72/17
f 50/68/32 51/73/33 44/74/27
f 44/74/27 47/65/29 50/68/32
f 47/65/29 44/60/27 43/59/26
f 43/59/26 48/66/30 47/65/29
f 48/66/30 43/63/26 46/62/28
f 46/62/28 49/67/31 48/66/30
f 49/67/31 46/70/28 51/69/33
f 51/69/33 50/68/32 49/67/31
f 44/74/27 51/73/33 52/75/17
f 52/75/17 41/76/6 44/74/27
f 56/80/35 53/77/6 54/78/7
f 54/78/7 55/79/34 56/80/35
f 54/84/7 57/81/10 58/82/36
f 58/82/36 55/83/34 54/84/7
f 62/88/40 59/85/37 60/86/38
f 60/86/38 61/87/39 62/88/40
f 64/92/17 63/89/41 58/90/36
f 58/90/36 57/91/10 64/92/17
f 62/88/40 63/93/41 56/94/35
f 56/94/35 59/85/37 62/88/40
f 59/85/37 56/80/35 55/79/34
f 55/79/34 60/86/38 59/85/37
f 60/86/38 55/83/34 58/82/36
f 58/82/36 61/87/39 60/86/38
f 61/87/39 58/90/36 63/89/41
f 63/89/41 62/88/40 61/87/39
f 56/94/35 63/93/41 64/95/17
f 64/95/17 53/96/6 56/94/35
f 68/100/43 65/97/6 66/98/7
f 66/98/7 67/99/42 68/100/43
f 66/104/7 69/101/10 70/102/44
f 70/102/44 67/103/42 66/104/7
f 74/108/48 71/105/45 72/106/46
f 72/106/46 73/107/47 74/108/48
f 76/112/17 75/109/49 70/110/44
f 70/110/44 69/111/10 76/112/17
f 74/108/48 75/113/49 68/114/43
f 68/114/43 71/105/45 74/108/48
f 71/105/45 68/100/43 67/99/42
f 67/99/42 72/106/46 71/105/45
f 72/106/46 67/103/42 70/102/44
f 70/102/44 73/107/47 72/106/46
f 73/107/47 70/110/44 75/109/49
f 75/109/49 74/108/48 73/107/47
f 68/114/43 75/113/49 76/115/17
f 76/115/17 65/116/6 68/114/43
f 80/120/51 77/117/6 78/118/7
f 78/118/7 79/119/50 80/120/51
f 78/124/7 81/121/10 82/122/52
f 82/122/52 79/123/50 78/124/7
f 86/128/56 83/125/53 84/126/54
f 84/126/54 85/127/55 86/128/56
f 88/132/17 87/129/57 82/130/52
f 82/130/52 81/131/10 88/132/17
f 86/128/56 87/133/57 80/134/51
f 80/134/51 83/125/53 86/128/56
f 83/125/53 80/120/51 79/119/50
f 79/119/50 84/126/54 83/125/53
f 84/126/54 79/123/50 82/122/52
f 82/122/52 85/127/55 84/126/54
f 85/127/55 82/130/52 87/129/57
f 87/129/57 86/128/56 85/127/55
f 80/134/51 87/133/57 88/135/17
f 88/135/17 77/136/6 80/134/51
f 92/140/59 89/137/6 90/138/7
f 90/138/7 91/139/58 92/140/59
f 90/144/7 93/141/10 94/142/60
f 94/142/60 91/143/58 90/144/7
f 98/148/64 95/145/61 96/146/62
f 96/146/62 97/147/63 98/148/64
f 100/152/17 99/149/65 94/150/60
f 94/150/60 93/151/10 100/152/17
f 98/148/64 99/153/65 92/154/59
f 92/154/59 95/145/61 98/148/64
f 95/145/61 92/140/59 91/139/58
f 91/139/58 96/146/62 95/145/61
f 96/146/62 91/143/58 94/142/60
f 94/142/60 97/147/63 96/146/62
f 97/147/63 94/150/60 99/149/65
f 99/149/65 98/148/64 97/147/63
f 92/154/59 99/153/65 100/155/17
f 100/155/17 89/156/6 92/154/59
