# File produced by Open Asset Import Library (http://www.assimp.sf.net)
# (assimp v3.1.161429758)

mtllib floor1.mtl

# vertex positions
v 0.204171 0.025851 -0.085195
v -0.160213 0.025851 -0.085195
v -0.160213 0.025851 0.077974
v 0.204171 0.025851 0.077974
v 0.221068 -0.098482 -0.102093
v 0.221068 0.008953 -0.102093
v 0.221068 0.008953 0.094871
v 0.221068 -0.098482 0.094871
v 0.903309 -0.098482 0.413395
v 0.903309 0.008953 0.413395
v 0.617484 0.008953 0.690613
v 0.617484 -0.098482 0.690613
v -0.177110 -0.098482 0.094871
v -0.177110 0.008953 0.094871
v -0.177110 0.008953 -0.102093
v -0.177110 -0.098482 -0.102093
v 0.879416 0.025851 0.413029
v 0.617849 0.025851 0.666720
v 0.765815 0.025851 0.295901
v 0.766180 0.008953 0.272008
v 0.504248 0.025851 0.549591
v 0.480354 0.008953 0.549226
v 0.480354 -0.098482 0.549226
v 0.766180 -0.098482 0.272008
v 0.891136 0.025851 -0.332401
v 0.550672 0.025851 -0.462247
v 0.492528 0.025851 -0.309789
v 0.832992 0.025851 -0.179943
v 0.912946 -0.098482 -0.342168
v 0.912946 0.008953 -0.342168
v 0.842759 0.008953 -0.158134
v 0.842759 -0.098482 -0.158134
v 0.470719 -0.098482 -0.300022
v 0.470719 0.008953 -0.300022
v 0.540905 0.008953 -0.484056
v 0.540905 -0.098482 -0.484056
v 0.505934 0.025851 0.196467
v 0.141550 0.025851 0.196467
v 0.141550 0.025851 0.359637
v 0.505934 0.025851 0.359637
v 0.522831 -0.098482 0.179570
v 0.522831 0.008953 0.179570
v 0.522831 0.008953 0.376534
v 0.522831 -0.098482 0.376534
v 0.124652 -0.098482 0.376534
v 0.124652 0.008953 0.376534
v 0.124652 0.008953 0.179570
v 0.124652 -0.098482 0.179570
v 0.479997 0.025851 -0.624073
v 0.139532 0.025851 -0.753919
v 0.081388 0.025851 -0.601461
v 0.421852 0.025851 -0.471615
v 0.501806 -0.098482 -0.633840
v 0.501806 0.008953 -0.633840
v 0.431619 0.008953 -0.449806
v 0.431619 -0.098482 -0.449806
v 0.059579 -0.098482 -0.591694
v 0.059579 0.008953 -0.591694
v 0.129765 0.008953 -0.775729
v 0.129765 -0.098482 -0.775729
v -0.217981 0.025851 -0.624073
v -0.558445 0.025851 -0.753919
v -0.616589 0.025851 -0.601461
v -0.276125 0.025851 -0.471615
v -0.196172 -0.098482 -0.633840
v -0.196172 0.008953 -0.633840
v -0.266358 0.008953 -0.449806
v -0.266358 -0.098482 -0.449806
v -0.638399 -0.098482 -0.591694
v -0.638399 0.008953 -0.591694
v -0.568212 0.008953 -0.775729
v -0.568212 -0.098482 -0.775729
v -0.406885 0.025851 0.244946
v -0.759395 0.025851 0.152681
v -0.800711 0.025851 0.310533
v -0.448201 0.025851 0.402798
v -0.386260 -0.098482 0.232878
v -0.386260 0.008953 0.232878
v -0.436133 0.008953 0.423423
v -0.436133 -0.098482 0.423423
v -0.821336 -0.098482 0.322601
v -0.821336 0.008953 0.322601
v -0.771463 0.008953 0.132056
v -0.771463 -0.098482 0.132056
v 0.142948 0.025851 0.525988
v -0.209562 0.025851 0.433724
v -0.250878 0.025851 0.591576
v 0.101632 0.025851 0.683840
v 0.163573 -0.098482 0.513920
v 0.163573 0.008953 0.513920
v 0.113700 0.008953 0.704465
v 0.113700 -0.098482 0.704465
v -0.271503 -0.098482 0.603644
v -0.271503 0.008953 0.603644
v -0.221630 0.008953 0.413098
v -0.221630 -0.098482 0.413098
v -0.429299 0.025851 0.688985
v -0.780713 0.025851 0.785336
v -0.737568 0.025851 0.942698
v -0.386153 0.025851 0.846347
v -0.417471 -0.098482 0.668221
v -0.417471 0.008953 0.668221
v -0.365389 0.008953 0.858175
v -0.365389 -0.098482 0.858175
v -0.749396 -0.098482 0.963462
v -0.749396 0.008953 0.963462
v -0.801477 0.008953 0.773508
v -0.801477 -0.098482 0.773508
v 0.786347 0.025851 -0.085195
v 0.421963 0.025851 -0.085195
v 0.421963 0.025851 0.077974
v 0.786347 0.025851 0.077974
v 0.803244 -0.098482 -0.102093
v 0.803244 0.008953 -0.102093
v 0.803244 0.008953 0.094871
v 0.803244 -0.098482 0.094871
v 0.405066 -0.098482 0.094871
v 0.405066 0.008953 0.094871
v 0.405066 0.008953 -0.102093
v 0.405066 -0.098482 -0.102093
v 0.887091 0.025851 -0.833487
v 0.561120 0.025851 -0.670641
v 0.634041 0.025851 -0.524673
v 0.960012 0.025851 -0.687519
v 0.894655 -0.098482 -0.856154
v 0.894655 0.008953 -0.856154
v 0.982680 0.008953 -0.679954
v 0.982680 -0.098482 -0.679954
v 0.626477 -0.098482 -0.502006
v 0.626477 0.008953 -0.502006
v 0.538452 0.008953 -0.678205
v 0.538452 -0.098482 -0.678205
v -0.393899 0.025851 -0.255745
v -0.758284 0.025851 -0.255745
v -0.758284 0.025851 -0.092576
v -0.393899 0.025851 -0.092576
v -0.377002 -0.098482 -0.272642
v -0.377002 0.008953 -0.272642
v -0.377002 0.008953 -0.075678
v -0.377002 -0.098482 -0.075678
v -0.775181 -0.098482 -0.075678
v -0.775181 0.008953 -0.075678
v -0.775181 0.008953 -0.272642
v -0.775181 -0.098482 -0.272642
v -1.000000 0.000000 1.000000
v 1.000000 0.000000 1.000000
v 1.000000 0.000000 -1.000000
v -1.000000 0.000000 -1.000000

# UV coordinates
vt 0.896617 0.613989
vt 0.896617 0.486429
vt 0.953738 0.486429
vt 0.953738 0.613989
vt 0.890702 0.659963
vt 0.890702 0.622354
vt 0.959653 0.622354
vt 0.959653 0.659963
vt 0.999713 0.179737
vt 0.962103 0.179737
vt 0.962103 0.040347
vt 0.999713 0.040347
vt 0.959653 0.440454
vt 0.959653 0.478064
vt 0.890702 0.478064
vt 0.890702 0.440454
vt 0.850642 0.480514
vt 0.888252 0.480514
vt 0.888252 0.619904
vt 0.850643 0.619904
vt 0.962103 0.480514
vt 0.962103 0.619904
vt 0.999713 0.619904
vt 0.999713 0.480514
vt 0.953738 0.173821
vt 0.953738 0.046262
vt 0.896618 0.173821
vt 0.959653 0.182187
vt 0.890702 0.182187
vt 0.896618 0.046262
vt 0.888252 0.179737
vt 0.888252 0.040347
vt 0.890702 0.037897
vt 0.959653 0.037897
vt 0.850643 0.040347
vt 0.850643 0.179737
vt 0.959653 0.000287
vt 0.890702 0.000287
vt 0.890702 0.219796
vt 0.959653 0.219796
vt 0.746973 0.393905
vt 0.746973 0.266346
vt 0.804093 0.266346
vt 0.804093 0.393905
vt 0.741058 0.439880
vt 0.741058 0.402270
vt 0.810008 0.402270
vt 0.810008 0.439880
vt 0.810008 0.220371
vt 0.810008 0.257980
vt 0.741058 0.257980
vt 0.741058 0.220371
vt 0.700998 0.260431
vt 0.738608 0.260431
vt 0.738608 0.399820
vt 0.700998 0.399820
vt 0.812459 0.260431
vt 0.812459 0.399820
vt 0.850068 0.399820
vt 0.850068 0.260431
vt 0.402672 0.746973
vt 0.402672 0.874532
vt 0.345551 0.874532
vt 0.345551 0.746973
vt 0.408587 0.700998
vt 0.408587 0.738607
vt 0.339636 0.738607
vt 0.339636 0.700998
vt 0.339636 0.920507
vt 0.339636 0.882897
vt 0.408587 0.882897
vt 0.408587 0.920507
vt 0.448647 0.880447
vt 0.411037 0.880447
vt 0.411037 0.741057
vt 0.448647 0.741057
vt 0.337186 0.880447
vt 0.337186 0.741057
vt 0.299576 0.741057
vt 0.299576 0.880447
vt 0.746973 0.613989
vt 0.746973 0.486429
vt 0.804093 0.486429
vt 0.804093 0.613989
vt 0.741058 0.659964
vt 0.741058 0.622354
vt 0.810008 0.622354
vt 0.810008 0.659964
vt 0.810008 0.440454
vt 0.810008 0.478064
vt 0.741058 0.478064
vt 0.741058 0.440454
vt 0.700998 0.480514
vt 0.738608 0.480514
vt 0.738607 0.619904
vt 0.700998 0.619904
vt 0.812459 0.480514
vt 0.812459 0.619904
vt 0.850068 0.619904
vt 0.850068 0.480514
vt 0.746973 0.173822
vt 0.746973 0.046262
vt 0.804093 0.046262
vt 0.804093 0.173822
vt 0.741058 0.219797
vt 0.741058 0.182187
vt 0.810008 0.182187
vt 0.810008 0.219797
vt 0.810008 0.000287
vt 0.810008 0.037897
vt 0.741058 0.037897
vt 0.741058 0.000287
vt 0.700998 0.040347
vt 0.738608 0.040347
vt 0.738608 0.179737
vt 0.700998 0.179737
vt 0.812459 0.040347
vt 0.812459 0.179737
vt 0.850068 0.179737
vt 0.850068 0.040347
vt 0.953738 0.266346
vt 0.953738 0.393905
vt 0.896617 0.393905
vt 0.896618 0.266346
vt 0.959653 0.220371
vt 0.959653 0.257980
vt 0.890702 0.257980
vt 0.890702 0.220371
vt 0.890702 0.439880
vt 0.890702 0.402270
vt 0.959653 0.402270
vt 0.959653 0.439880
vt 0.999713 0.399820
vt 0.962103 0.399820
vt 0.962103 0.260431
vt 0.999713 0.260431
vt 0.888252 0.399820
vt 0.888252 0.260431
vt 0.850643 0.260431
vt 0.850643 0.399820
vt 0.195907 0.874532
vt 0.195907 0.746973
vt 0.253027 0.746973
vt 0.253027 0.874532
vt 0.189992 0.920507
vt 0.189992 0.882897
vt 0.258942 0.882897
vt 0.258942 0.920507
vt 0.258942 0.700998
vt 0.258942 0.738607
vt 0.189992 0.738607
vt 0.189992 0.700998
vt 0.149932 0.741058
vt 0.187541 0.741058
vt 0.187541 0.880447
vt 0.149932 0.880447
vt 0.261392 0.741058
vt 0.261392 0.880447
vt 0.299002 0.880447
vt 0.299002 0.741058
vt 0.622755 0.953738
vt 0.495196 0.953738
vt 0.495196 0.896617
vt 0.622755 0.896617
vt 0.668730 0.959653
vt 0.631121 0.959653
vt 0.631121 0.890702
vt 0.668730 0.890702
vt 0.449221 0.890702
vt 0.486831 0.890702
vt 0.486831 0.959653
vt 0.449221 0.959653
vt 0.489281 0.999713
vt 0.489281 0.962103
vt 0.628670 0.962103
vt 0.628670 0.999713
vt 0.489281 0.888252
vt 0.628670 0.888252
vt 0.628670 0.850642
vt 0.489281 0.850642
vt 0.046262 0.874532
vt 0.046262 0.746973
vt 0.103383 0.746973
vt 0.103383 0.874532
vt 0.040347 0.920507
vt 0.040347 0.882897
vt 0.109298 0.882897
vt 0.109298 0.920507
vt 0.109298 0.700998
vt 0.109298 0.738607
vt 0.040347 0.738607
vt 0.040347 0.700998
vt 0.000287 0.741058
vt 0.037897 0.741058
vt 0.037897 0.880447
vt 0.000287 0.880447
vt 0.111748 0.741057
vt 0.111748 0.880447
vt 0.149358 0.880447
vt 0.149357 0.741057
vt 0.746973 0.834072
vt 0.746973 0.706513
vt 0.804093 0.706513
vt 0.804093 0.834072
vt 0.741058 0.880047
vt 0.741058 0.842437
vt 0.810008 0.842437
vt 0.810008 0.880047
vt 0.810008 0.660538
vt 0.810008 0.698147
vt 0.741058 0.698147
vt 0.741058 0.660538
vt 0.700998 0.700598
vt 0.738608 0.700598
vt 0.738608 0.839987
vt 0.700998 0.839987
vt 0.812459 0.700598
vt 0.812459 0.839987
vt 0.850068 0.839987
vt 0.850068 0.700598
vt 0.622755 0.804093
vt 0.495196 0.804093
vt 0.495196 0.746973
vt 0.622755 0.746973
vt 0.668730 0.810008
vt 0.631121 0.810008
vt 0.631121 0.741057
vt 0.668730 0.741057
vt 0.449221 0.741057
vt 0.486831 0.741057
vt 0.486831 0.810008
vt 0.449221 0.810008
vt 0.489281 0.850068
vt 0.489281 0.812458
vt 0.628670 0.812458
vt 0.628670 0.850068
vt 0.489281 0.738607
vt 0.628670 0.738607
vt 0.628670 0.700998
vt 0.489281 0.700998
vt 0.700424 0.000287
vt 0.700424 0.700423
vt 0.000287 0.700423
vt 0.000287 0.000287

# vertex normals
vn 0.300194 0.905410 -0.300194
vn -0.300194 0.905410 -0.300194
vn -0.300194 0.905410 0.300194
vn 0.300194 0.905410 0.300194
vn 0.707107 0.000000 -0.707107
vn 0.650706 0.391361 -0.650706
vn 0.650706 0.391361 0.650706
vn 0.707107 0.000000 0.707107
vn 0.999883 0.000000 0.015285
vn 0.920129 0.391362 0.014065
vn -0.014066 0.391362 0.920129
vn -0.015285 0.000000 0.999883
vn -0.707107 0.000000 0.707107
vn -0.650706 0.391361 0.650706
vn -0.650706 0.391361 -0.650706
vn -0.707107 0.000000 -0.707107
vn 0.424488 0.905410 0.006489
vn -0.006490 0.905410 0.424488
vn 0.006489 0.905410 -0.424489
vn 0.014066 0.391361 -0.920130
vn -0.424489 0.905410 -0.006489
vn -0.920130 0.391361 -0.014066
vn -0.999883 0.000000 -0.015285
vn 0.015285 0.000000 -0.999883
vn 0.387460 0.905410 -0.173516
vn -0.173516 0.905410 -0.387460
vn -0.387460 0.905410 0.173515
vn 0.173515 0.905410 0.387460
vn 0.912662 0.000000 -0.408716
vn 0.839865 0.391361 -0.376116
vn 0.376115 0.391361 0.839865
vn 0.408716 0.000000 0.912662
vn -0.912662 0.000000 0.408716
vn -0.839865 0.391361 0.376116
vn -0.376115 0.391361 -0.839865
vn -0.408716 0.000000 -0.912662
vn 0.300194 0.905410 -0.300194
vn -0.300194 0.905410 -0.300194
vn -0.300194 0.905410 0.300194
vn 0.300194 0.905410 0.300194
vn 0.650706 0.391361 -0.650706
vn 0.650706 0.391361 0.650706
vn -0.650706 0.391361 0.650706
vn -0.650706 0.391361 -0.650706
vn 0.387459 0.905410 -0.173516
vn -0.173515 0.905410 -0.387460
vn -0.387459 0.905410 0.173515
vn 0.173515 0.905411 0.387459
vn 0.912662 0.000000 -0.408716
vn 0.839865 0.391361 -0.376116
vn 0.376116 0.391362 0.839865
vn 0.408716 0.000000 0.912662
vn -0.912662 0.000000 0.408716
vn -0.839865 0.391362 0.376116
vn -0.376116 0.391361 -0.839865
vn -0.408716 0.000000 -0.912662
vn 0.387459 0.905410 -0.173516
vn -0.173516 0.905410 -0.387460
vn -0.387460 0.905410 0.173515
vn 0.173515 0.905410 0.387459
vn 0.912662 0.000000 -0.408716
vn 0.839865 0.391361 -0.376116
vn 0.376116 0.391362 0.839865
vn 0.408716 0.000000 0.912662
vn -0.912662 0.000000 0.408716
vn -0.839865 0.391361 0.376116
vn -0.376115 0.391361 -0.839865
vn -0.408716 0.000000 -0.912662
vn 0.366422 0.905410 -0.214400
vn -0.214400 0.905410 -0.366422
vn -0.366422 0.905410 0.214400
vn 0.214400 0.905410 0.366422
vn 0.863108 0.000000 -0.505019
vn 0.794264 0.391361 -0.464737
vn 0.464737 0.391362 0.794264
vn 0.505019 0.000000 0.863108
vn -0.863108 0.000000 0.505019
vn -0.794264 0.391362 0.464737
vn -0.464737 0.391361 -0.794264
vn -0.505019 0.000000 -0.863108
vn 0.366422 0.905410 -0.214400
vn -0.214400 0.905410 -0.366422
vn -0.366423 0.905410 0.214401
vn 0.214400 0.905410 0.366423
vn 0.863108 0.000000 -0.505019
vn 0.794264 0.391362 -0.464737
vn 0.464737 0.391361 0.794265
vn 0.505019 0.000000 0.863108
vn -0.863108 0.000000 0.505019
vn -0.794265 0.391361 0.464737
vn -0.464737 0.391362 -0.794264
vn -0.505019 0.000000 -0.863108
vn 0.210131 0.905410 -0.368887
vn -0.368888 0.905410 -0.210131
vn -0.210132 0.905410 0.368886
vn 0.368887 0.905410 0.210130
vn 0.494964 0.000000 -0.868913
vn 0.455485 0.391361 -0.799606
vn 0.799606 0.391361 0.455485
vn 0.868913 0.000000 0.494964
vn -0.494964 0.000000 0.868913
vn -0.455485 0.391361 0.799606
vn -0.799606 0.391361 -0.455485
vn -0.868913 0.000000 -0.494964
vn 0.300193 0.905410 -0.300194
vn -0.300194 0.905410 -0.300194
vn -0.300194 0.905410 0.300194
vn 0.300193 0.905410 0.300194
vn 0.650706 0.391362 -0.650706
vn 0.650706 0.391362 0.650706
vn -0.650706 0.391362 0.650706
vn -0.650706 0.391362 -0.650706
vn 0.134389 0.905410 -0.402706
vn -0.402706 0.905410 -0.134389
vn -0.134388 0.905410 0.402707
vn 0.402706 0.905410 0.134389
vn 0.316553 0.000000 -0.948575
vn 0.291303 0.391361 -0.872914
vn 0.872914 0.391361 0.291304
vn 0.948575 0.000000 0.316553
vn -0.316553 0.000000 0.948575
vn -0.291304 0.391361 0.872914
vn -0.872914 0.391361 -0.291304
vn -0.948575 0.000000 -0.316553
vn 0.300194 0.905410 -0.300194
vn -0.300194 0.905410 -0.300194
vn -0.300194 0.905410 0.300194
vn 0.300194 0.905410 0.300194
vn 0.650706 0.391361 -0.650706
vn 0.650706 0.391361 0.650706
vn -0.650706 0.391361 0.650706
vn 0.000000 1.000000 0.000000

# Mesh
g lp floor 1.001
usemtl Stones
f 4/4/4 1/1/1 2/2/2
f 2/2/2 3/3/3 4/4/4
f 8/8/8 5/5/5 6/6/6
f 6/6/6 7/7/7 8/8/8
f 12/12/12 9/9/9 10/10/10
f 10/10/10 11/11/11 12/12/12
f 16/16/16 13/13/13 14/14/14
f 14/14/14 15/15/15 16/16/16
f 5/20/5 16/17/16 15/18/15
f 15/18/15 6/19/6 5/20/5
f 14/14/14 3/3/3 2/2/2
f 2/2/2 15/15/15 14/14/14
f 15/18/15 2/2/2 1/1/1
f 1/1/1 6/19/6 15/18/15
f 6/6/6 1/1/1 4/4/4
f 4/4/4 7/7/7 6/6/6
f 7/22/7 4/4/4 3/3/3
f 3/3/3 14/21/14 7/22/7
f 13/24/13 8/23/8 7/22/7
f 7/22/7 14/21/14 13/24/13
f 10/10/10 17/25/17 18/26/18
f 18/26/18 11/11/11 10/10/10
f 20/29/20 19/27/19 17/25/17
f 17/25/17 10/28/10 20/29/20
f 22/32/22 21/30/21 19/27/19
f 19/27/19 20/31/20 22/32/22
f 11/34/11 18/26/18 21/30/21
f 21/30/21 22/33/22 11/34/11
f 24/36/24 23/35/23 22/32/22
f 22/32/22 20/31/20 24/36/24
f 23/38/23 12/37/12 11/34/11
f 11/34/11 22/33/22 23/38/23
f 9/40/9 24/39/24 20/29/20
f 20/29/20 10/28/10 9/40/9
f 17/25/17 19/27/19 21/30/21
f 21/30/21 18/26/18 17/25/17
f 28/44/28 25/41/25 26/42/26
f 26/42/26 27/43/27 28/44/28
f 32/48/32 29/45/29 30/46/30
f 30/46/30 31/47/31 32/48/32
f 36/52/36 33/49/33 34/50/34
f 34/50/34 35/51/35 36/52/36
f 29/56/29 36/53/36 35/54/35
f 35/54/35 30/55/30 29/56/29
f 34/50/34 27/43/27 26/42/26
f 26/42/26 35/51/35 34/50/34
f 35/54/35 26/42/26 25/41/25
f 25/41/25 30/55/30 35/54/35
f 30/46/30 25/41/25 28/44/28
f 28/44/28 31/47/31 30/46/30
f 31/58/31 28/44/28 27/43/27
f 27/43/27 34/57/34 31/58/31
f 33/60/33 32/59/32 31/58/31
f 31/58/31 34/57/34 33/60/33
f 40/64/40 37/61/37 38/62/38
f 38/62/38 39/63/39 40/64/40
f 44/68/8 41/65/5 42/66/41
f 42/66/41 43/67/42 44/68/8
f 48/72/16 45/69/13 46/70/43
f 46/70/43 47/71/44 48/72/16
f 41/76/5 48/73/16 47/74/44
f 47/74/44 42/75/41 41/76/5
f 46/70/43 39/63/39 38/62/38
f 38/62/38 47/71/44 46/70/43
f 47/74/44 38/62/38 37/61/37
f 37/61/37 42/75/41 47/74/44
f 42/66/41 37/61/37 40/64/40
f 40/64/40 43/67/42 42/66/41
f 43/78/42 40/64/40 39/63/39
f 39/63/39 46/77/43 43/78/42
f 45/80/13 44/79/8 43/78/42
f 43/78/42 46/77/43 45/80/13
f 52/84/48 49/81/45 50/82/46
f 50/82/46 51/83/47 52/84/48
f 56/88/52 53/85/49 54/86/50
f 54/86/50 55/87/51 56/88/52
f 60/92/56 57/89/53 58/90/54
f 58/90/54 59/91/55 60/92/56
f 53/96/49 60/93/56 59/94/55
f 59/94/55 54/95/50 53/96/49
f 58/90/54 51/83/47 50/82/46
f 50/82/46 59/91/55 58/90/54
f 59/94/55 50/82/46 49/81/45
f 49/81/45 54/95/50 59/94/55
f 54/86/50 49/81/45 52/84/48
f 52/84/48 55/87/51 54/86/50
f 55/98/51 52/84/48 51/83/47
f 51/83/47 58/97/54 55/98/51
f 57/100/53 56/99/52 55/98/51
f 55/98/51 58/97/54 57/100/53
f 64/104/60 61/101/57 62/102/58
f 62/102/58 63/103/59 64/104/60
f 68/108/64 65/105/61 66/106/62
f 66/106/62 67/107/63 68/108/64
f 72/112/68 69/109/65 70/110/66
f 70/110/66 71/111/67 72/112/68
f 65/116/61 72/113/68 71/114/67
f 71/114/67 66/115/62 65/116/61
f 70/110/66 63/103/59 62/102/58
f 62/102/58 71/111/67 70/110/66
f 71/114/67 62/102/58 61/101/57
f 61/101/57 66/115/62 71/114/67
f 66/106/62 61/101/57 64/104/60
f 64/104/60 67/107/63 66/106/62
f 67/118/63 64/104/60 63/103/59
f 63/103/59 70/117/66 67/118/63
f 69/120/65 68/119/64 67/118/63
f 67/118/63 70/117/66 69/120/65
f 76/124/72 73/121/69 74/122/70
f 74/122/70 75/123/71 76/124/72
f 80/128/76 77/125/73 78/126/74
f 78/126/74 79/127/75 80/128/76
f 84/132/80 81/129/77 82/130/78
f 82/130/78 83/131/79 84/132/80
f 77/136/73 84/133/80 83/134/79
f 83/134/79 78/135/74 77/136/73
f 82/130/78 75/123/71 74/122/70
f 74/122/70 83/131/79 82/130/78
f 83/134/79 74/122/70 73/121/69
f 73/121/69 78/135/74 83/134/79
f 78/126/74 73/121/69 76/124/72
f 76/124/72 79/127/75 78/126/74
f 79/138/75 76/124/72 75/123/71
f 75/123/71 82/137/78 79/138/75
f 81/140/77 80/139/76 79/138/75
f 79/138/75 82/137/78 81/140/77
f 88/144/84 85/141/81 86/142/82
f 86/142/82 87/143/83 88/144/84
f 92/148/88 89/145/85 90/146/86
f 90/146/86 91/147/87 92/148/88
f 96/152/92 93/149/89 94/150/90
f 94/150/90 95/151/91 96/152/92
f 89/156/85 96/153/92 95/154/91
f 95/154/91 90/155/86 89/156/85
f 94/150/90 87/143/83 86/142/82
f 86/142/82 95/151/91 94/150/90
f 95/154/91 86/142/82 85/141/81
f 85/141/81 90/155/86 95/154/91
f 90/146/86 85/141/81 88/144/84
f 88/144/84 91/147/87 90/146/86
f 91/158/87 88/144/84 87/143/83
f 87/143/83 94/157/90 91/158/87
f 93/160/89 92/159/88 91/158/87
f 91/158/87 94/157/90 93/160/89
f 100/164/96 97/161/93 98/162/94
f 98/162/94 99/163/95 100/164/96
f 104/168/100 101/165/97 102/166/98
f 102/166/98 103/167/99 104/168/100
f 108/172/104 105/169/101 106/170/102
f 106/170/102 107/171/103 108/172/104
f 101/176/97 108/173/104 107/174/103
f 107/174/103 102/175/98 101/176/97
f 106/170/102 99/163/95 98/162/94
f 98/162/94 107/171/103 106/170/102
f 107/174/103 98/162/94 97/161/93
f 97/161/93 102/175/98 107/174/103
f 102/166/98 97/161/93 100/164/96
f 100/164/96 103/167/99 102/166/98
f 103/178/99 100/164/96 99/163/95
f 99/163/95 106/177/102 103/178/99
f 105/180/101 104/179/100 103/178/99
f 103/178/99 106/177/102 105/180/101
f 112/184/108 109/181/105 110/182/106
f 110/182/106 111/183/107 112/184/108
f 116/188/8 113/185/5 114/186/109
f 114/186/109 115/187/110 116/188/8
f 120/192/16 117/189/13 118/190/111
f 118/190/111 119/191/112 120/192/16
f 113/196/5 120/193/16 119/194/112
f 119/194/112 114/195/109 113/196/5
f 118/190/111 111/183/107 110/182/106
f 110/182/106 119/191/112 118/190/111
f 119/194/112 110/182/106 109/181/105
f 109/181/105 114/195/109 119/194/112
f 114/186/109 109/181/105 112/184/108
f 112/184/108 115/187/110 114/186/109
f 115/198/110 112/184/108 111/183/107
f 111/183/107 118/197/111 115/198/110
f 117/200/13 116/199/8 115/198/110
f 115/198/110 118/197/111 117/200/13
f 124/204/116 121/201/113 122/202/114
f 122/202/114 123/203/115 124/204/116
f 128/208/120 125/205/117 126/206/118
f 126/206/118 127/207/119 128/208/120
f 132/212/124 129/209/121 130/210/122
f 130/210/122 131/211/123 132/212/124
f 125/216/117 132/213/124 131/214/123
f 131/214/123 126/215/118 125/216/117
f 130/210/122 123/203/115 122/202/114
f 122/202/114 131/211/123 130/210/122
f 131/214/123 122/202/114 121/201/113
f 121/201/113 126/215/118 131/214/123
f 126/206/118 121/201/113 124/204/116
f 124/204/116 127/207/119 126/206/118
f 127/218/119 124/204/116 123/203/115
f 123/203/115 130/217/122 127/218/119
f 129/220/121 128/219/120 127/218/119
f 127/218/119 130/217/122 129/220/121
f 136/224/128 133/221/125 134/222/126
f 134/222/126 135/223/127 136/224/128
f 140/228/8 137/225/5 138/226/129
f 138/226/129 139/227/130 140/228/8
f 144/232/16 141/229/13 142/230/131
f 142/230/131 143/231/44 144/232/16
f 137/236/5 144/233/16 143/234/44
f 143/234/44 138/235/129 137/236/5
f 142/230/131 135/223/127 134/222/126
f 134/222/126 143/231/44 142/230/131
f 143/234/44 134/222/126 133/221/125
f 133/221/125 138/235/129 143/234/44
f 138/226/129 133/221/125 136/224/128
f 136/224/128 139/227/130 138/226/129
f 139/238/130 136/224/128 135/223/127
f 135/223/127 142/237/131 139/238/130
f 141/240/13 140/239/8 139/238/130
f 139/238/130 142/237/131 141/240/13
f 148/244/132 145/241/132 146/242/132
f 146/242/132 147/243/132 148/244/132
