# File produced by Open Asset Import Library (http://www.assimp.sf.net)
# (assimp v3.1.161429758)

mtllib floor3.mtl

# vertex positions
v 0.115822 0.025851 -0.334838
v -0.248464 0.025851 -0.326337
v -0.244657 0.025851 -0.163212
v 0.119628 0.025851 -0.171713
v 0.132320 -0.098482 -0.352125
v 0.132320 0.008953 -0.352125
v 0.136915 0.008953 -0.155215
v 0.136915 -0.098482 -0.155215
v 0.847639 -0.098482 0.263735
v 0.847639 0.008953 0.263735
v 0.884153 0.008953 0.660236
v 0.884153 -0.098482 0.660236
v -0.261155 -0.098482 -0.145926
v -0.261155 0.008953 -0.145926
v -0.265750 0.008953 -0.342836
v -0.265750 -0.098482 -0.342836
v 0.832363 0.025851 0.282110
v 0.865777 0.025851 0.644959
v 0.669881 0.025851 0.297073
v 0.651506 0.008953 0.281796
v 0.703295 0.025851 0.659922
v 0.688019 0.008953 0.678297
v 0.688019 -0.098482 0.678297
v 0.651506 -0.098482 0.281796
v 0.375862 0.025851 -0.694646
v 0.035398 0.025851 -0.824492
v -0.022746 0.025851 -0.672034
v 0.317718 0.025851 -0.542188
v 0.397672 -0.098482 -0.704413
v 0.397672 0.008953 -0.704413
v 0.327485 0.008953 -0.520379
v 0.327485 -0.098482 -0.520379
v -0.044555 -0.098482 -0.662267
v -0.044555 0.008953 -0.662267
v 0.025631 0.008953 -0.846301
v 0.025631 -0.098482 -0.846301
v 0.486988 0.025851 0.668363
v 0.129317 0.025851 0.737989
v 0.160495 0.025851 0.898152
v 0.518166 0.025851 0.828526
v 0.500345 -0.098482 0.648549
v 0.500345 0.008953 0.648549
v 0.537980 0.008953 0.841884
v 0.537980 -0.098482 0.841884
v 0.147138 -0.098482 0.917966
v 0.147138 0.008953 0.917966
v 0.109503 0.008953 0.724632
v 0.109503 -0.098482 0.724632
v 0.546417 0.025851 0.066947
v 0.205952 0.025851 -0.062899
v 0.147808 0.025851 0.089560
v 0.488272 0.025851 0.219405
v 0.568226 -0.098482 0.057181
v 0.568226 0.008953 0.057181
v 0.498039 0.008953 0.241215
v 0.498039 -0.098482 0.241215
v 0.125999 -0.098482 0.099326
v 0.125999 0.008953 0.099326
v 0.196185 0.008953 -0.084708
v 0.196185 -0.098482 -0.084708
v -0.586380 0.025851 -0.855475
v -0.428170 0.025851 -0.527228
v -0.281183 0.025851 -0.598073
v -0.439393 0.025851 -0.926320
v -0.608938 -0.098482 -0.863359
v -0.608938 0.008953 -0.863359
v -0.431508 0.008953 -0.948878
v -0.431508 -0.098482 -0.948878
v -0.258625 -0.098482 -0.590188
v -0.258625 0.008953 -0.590188
v -0.436055 0.008953 -0.504670
v -0.436055 -0.098482 -0.504670
v -0.406885 0.025851 0.130940
v -0.759395 0.025851 0.038675
v -0.800711 0.025851 0.196527
v -0.448201 0.025851 0.288792
v -0.386260 -0.098482 0.118872
v -0.386260 0.008953 0.118872
v -0.436133 0.008953 0.309417
v -0.436133 -0.098482 0.309417
v -0.821336 -0.098482 0.208595
v -0.821336 0.008953 0.208595
v -0.771463 0.008953 0.018050
v -0.771463 -0.098482 0.018050
v 0.027064 0.025851 0.031935
v -0.273419 0.025851 0.238056
v -0.181119 0.025851 0.372611
v 0.119364 0.025851 0.166490
v 0.031440 -0.098482 0.008443
v 0.031440 0.008953 0.008443
v 0.142856 0.008953 0.170866
v 0.142856 -0.098482 0.170866
v -0.185495 -0.098482 0.396103
v -0.185495 0.008953 0.396103
v -0.296911 0.008953 0.233681
v -0.296911 -0.098482 0.233681
v -0.590801 0.025851 0.623358
v -0.343558 0.025851 0.891027
v -0.223697 0.025851 0.780312
v -0.470941 0.025851 0.512644
v -0.614679 -0.098482 0.622411
v -0.614679 0.008953 0.622411
v -0.469994 0.008953 0.488766
v -0.469994 -0.098482 0.488766
v -0.199820 -0.098482 0.781259
v -0.199820 0.008953 0.781259
v -0.344505 0.008953 0.914904
v -0.344505 -0.098482 0.914904
v 0.786347 0.025851 -0.474598
v 0.421963 0.025851 -0.474598
v 0.421963 0.025851 -0.311428
v 0.786347 0.025851 -0.311428
v 0.803244 -0.098482 -0.491495
v 0.803244 0.008953 -0.491495
v 0.803244 0.008953 -0.294531
v 0.803244 -0.098482 -0.294531
v 0.405066 -0.098482 -0.294531
v 0.405066 0.008953 -0.294531
v 0.405066 0.008953 -0.491495
v 0.405066 -0.098482 -0.491495
v 0.299470 0.025851 0.358975
v -0.026501 0.025851 0.521821
v 0.046420 0.025851 0.667789
v 0.372391 0.025851 0.504943
v 0.307034 -0.098482 0.336308
v 0.307034 0.008953 0.336308
v 0.395059 0.008953 0.512508
v 0.395059 -0.098482 0.512508
v 0.038856 -0.098482 0.690456
v 0.038856 0.008953 0.690456
v -0.049169 0.008953 0.514257
v -0.049169 -0.098482 0.514257
v -0.462906 0.025851 -0.123731
v -0.528798 0.025851 -0.482108
v -0.689278 0.025851 -0.452602
v -0.623385 0.025851 -0.094225
v -0.443232 -0.098482 -0.110168
v -0.443232 0.008953 -0.110168
v -0.636948 0.008953 -0.074551
v -0.636948 -0.098482 -0.074551
v -0.708952 -0.098482 -0.466165
v -0.708952 0.008953 -0.466165
v -0.515235 0.008953 -0.501782
v -0.515235 -0.098482 -0.501782
v -1.000000 0.000000 1.000000
v 1.000000 0.000000 1.000000
v 1.000000 0.000000 -1.000000
v -1.000000 0.000000 -1.000000

# UV coordinates
vt 0.896617 0.613988
vt 0.896617 0.486429
vt 0.953738 0.486429
vt 0.953738 0.613988
vt 0.890702 0.659963
vt 0.890702 0.622354
vt 0.959653 0.622354
vt 0.959653 0.659963
vt 0.850068 0.839987
vt 0.812458 0.839987
vt 0.812458 0.700598
vt 0.850068 0.700598
vt 0.959653 0.440454
vt 0.959653 0.478064
vt 0.890702 0.478064
vt 0.890702 0.440454
vt 0.850642 0.480514
vt 0.888252 0.480514
vt 0.888252 0.619904
vt 0.850642 0.619904
vt 0.962103 0.480514
vt 0.962103 0.619904
vt 0.999713 0.619904
vt 0.999713 0.480514
vt 0.804093 0.834072
vt 0.804093 0.706513
vt 0.746973 0.834072
vt 0.810008 0.842438
vt 0.741058 0.842437
vt 0.746973 0.706513
vt 0.738607 0.839987
vt 0.738607 0.700598
vt 0.741058 0.698147
vt 0.810008 0.698147
vt 0.700998 0.700598
vt 0.700998 0.839987
vt 0.810008 0.660538
vt 0.741058 0.660538
vt 0.741057 0.880047
vt 0.810008 0.880047
vt 0.173821 0.953738
vt 0.046262 0.953738
vt 0.046262 0.896618
vt 0.173821 0.896617
vt 0.219796 0.959653
vt 0.182187 0.959653
vt 0.182187 0.890702
vt 0.219796 0.890702
vt 0.000287 0.890702
vt 0.037897 0.890702
vt 0.037897 0.959653
vt 0.000287 0.959653
vt 0.040347 0.999713
vt 0.040347 0.962103
vt 0.179737 0.962103
vt 0.179737 0.999713
vt 0.040347 0.888252
vt 0.179737 0.888252
vt 0.179737 0.850643
vt 0.040347 0.850643
vt 0.266346 0.874532
vt 0.266346 0.746973
vt 0.323466 0.746973
vt 0.323466 0.874532
vt 0.260430 0.920507
vt 0.260431 0.882897
vt 0.329381 0.882897
vt 0.329381 0.920507
vt 0.329381 0.700998
vt 0.329381 0.738608
vt 0.260430 0.738608
vt 0.260430 0.700998
vt 0.220371 0.741058
vt 0.257980 0.741058
vt 0.257980 0.880447
vt 0.220371 0.880447
vt 0.331831 0.741058
vt 0.331831 0.880447
vt 0.369441 0.880447
vt 0.369441 0.741058
vt 0.804093 0.486429
vt 0.804093 0.613989
vt 0.746973 0.613989
vt 0.746973 0.486429
vt 0.810008 0.440454
vt 0.810008 0.478064
vt 0.741058 0.478064
vt 0.741058 0.440454
vt 0.741058 0.659964
vt 0.741058 0.622354
vt 0.810008 0.622354
vt 0.810008 0.659964
vt 0.850068 0.619904
vt 0.812458 0.619904
vt 0.812458 0.480514
vt 0.850068 0.480514
vt 0.738607 0.619904
vt 0.738607 0.480514
vt 0.700998 0.480514
vt 0.700998 0.619904
vt 0.746973 0.173821
vt 0.746973 0.046262
vt 0.804093 0.046262
vt 0.804093 0.173821
vt 0.741058 0.219796
vt 0.741057 0.182187
vt 0.810008 0.182187
vt 0.810008 0.219796
vt 0.810008 0.000287
vt 0.810008 0.037897
vt 0.741058 0.037897
vt 0.741058 0.000287
vt 0.700998 0.040347
vt 0.738607 0.040347
vt 0.738607 0.179737
vt 0.700998 0.179737
vt 0.812458 0.040347
vt 0.812458 0.179737
vt 0.850068 0.179737
vt 0.850068 0.040347
vt 0.746973 0.393905
vt 0.746973 0.266346
vt 0.804093 0.266346
vt 0.804093 0.393905
vt 0.741058 0.439880
vt 0.741058 0.402270
vt 0.810008 0.402270
vt 0.810008 0.439880
vt 0.810008 0.220371
vt 0.810008 0.257980
vt 0.741058 0.257980
vt 0.741058 0.220371
vt 0.700998 0.260431
vt 0.738607 0.260431
vt 0.738607 0.399820
vt 0.700998 0.399820
vt 0.812458 0.260431
vt 0.812458 0.399820
vt 0.850068 0.399820
vt 0.850068 0.260431
vt 0.565635 0.874532
vt 0.565635 0.746973
vt 0.622755 0.746973
vt 0.622755 0.874532
vt 0.559720 0.920507
vt 0.559720 0.882897
vt 0.628670 0.882897
vt 0.628670 0.920507
vt 0.628670 0.700998
vt 0.628670 0.738608
vt 0.559720 0.738608
vt 0.559720 0.700998
vt 0.519660 0.741058
vt 0.557270 0.741058
vt 0.557270 0.880447
vt 0.519660 0.880447
vt 0.631121 0.741058
vt 0.631121 0.880447
vt 0.668730 0.880447
vt 0.668730 0.741058
vt 0.896617 0.393905
vt 0.896617 0.266346
vt 0.953738 0.266346
vt 0.953738 0.393905
vt 0.890702 0.439880
vt 0.890702 0.402270
vt 0.959653 0.402270
vt 0.959653 0.439880
vt 0.959653 0.220371
vt 0.959653 0.257980
vt 0.890702 0.257980
vt 0.890702 0.220371
vt 0.850642 0.260431
vt 0.888252 0.260431
vt 0.888252 0.399820
vt 0.850642 0.399820
vt 0.962103 0.260430
vt 0.962103 0.399820
vt 0.999713 0.399820
vt 0.999713 0.260430
vt 0.415990 0.874532
vt 0.415990 0.746973
vt 0.473111 0.746973
vt 0.473111 0.874532
vt 0.410075 0.920507
vt 0.410075 0.882897
vt 0.479026 0.882897
vt 0.479026 0.920507
vt 0.479026 0.700998
vt 0.479026 0.738608
vt 0.410075 0.738608
vt 0.410075 0.700998
vt 0.370015 0.741058
vt 0.407625 0.741058
vt 0.407625 0.880447
vt 0.370015 0.880447
vt 0.481476 0.741058
vt 0.481476 0.880447
vt 0.519086 0.880447
vt 0.519086 0.741058
vt 0.896617 0.173821
vt 0.896617 0.046262
vt 0.953738 0.046262
vt 0.953738 0.173821
vt 0.890702 0.219796
vt 0.890702 0.182187
vt 0.959653 0.182187
vt 0.959653 0.219796
vt 0.959653 0.000287
vt 0.959653 0.037897
vt 0.890702 0.037897
vt 0.890702 0.000287
vt 0.850642 0.040347
vt 0.888252 0.040347
vt 0.888252 0.179737
vt 0.850642 0.179737
vt 0.962103 0.040347
vt 0.962103 0.179737
vt 0.999713 0.179737
vt 0.999713 0.040347
vt 0.046262 0.746973
vt 0.173821 0.746973
vt 0.173821 0.804093
vt 0.046262 0.804093
vt 0.000287 0.741058
vt 0.037897 0.741058
vt 0.037897 0.810008
vt 0.000287 0.810008
vt 0.219796 0.810008
vt 0.182187 0.810008
vt 0.182187 0.741058
vt 0.219796 0.741058
vt 0.179737 0.700998
vt 0.179737 0.738608
vt 0.040347 0.738608
vt 0.040347 0.700998
vt 0.179737 0.812459
vt 0.040347 0.812459
vt 0.040347 0.850068
vt 0.179737 0.850068
vt 0.700423 0.700424
vt 0.000287 0.700424
vt 0.000287 0.000287
vt 0.700423 0.000287

# vertex normals
vn -0.000000 1.000000 0.000000
vn 0.999728 0.000000 -0.023329
vn 0.995787 0.000000 -0.091700
vn -0.999728 0.000000 0.023330
vn -0.023329 0.000000 -0.999728
vn -0.706915 0.707107 0.016496
vn -0.016496 0.707107 -0.706915
vn 0.706914 0.707107 -0.016496
vn 0.016496 0.707107 0.706914
vn 0.023329 0.000000 0.999728
vn 0.704129 0.707105 -0.064842
vn -0.064842 0.707107 -0.704127
vn -0.704128 0.707107 0.064842
vn 0.064842 0.707106 0.704128
vn -0.995787 0.000000 0.091700
vn 0.091701 0.000000 0.995787
vn -0.091701 0.000000 -0.995787
vn 0.000000 1.000000 0.000000
vn 0.000000 1.000000 0.000000
vn 0.934355 0.000000 0.356343
vn -0.934355 0.000000 -0.356344
vn 0.356343 0.000000 -0.934355
vn -0.660689 0.707107 -0.251973
vn 0.251973 0.707107 -0.660689
vn 0.660688 0.707107 0.251973
vn -0.251973 0.707107 0.660688
vn -0.356343 0.000000 0.934355
vn -0.000000 1.000000 0.000000
vn 0.981575 0.000000 -0.191077
vn -0.981575 0.000000 0.191077
vn -0.191077 0.000000 -0.981575
vn -0.694078 0.707107 0.135112
vn -0.135112 0.707106 -0.694079
vn 0.694079 0.707106 -0.135112
vn 0.135112 0.707106 0.694079
vn 0.191077 0.000000 0.981575
vn 0.000000 1.000000 0.000000
vn 0.934355 0.000000 0.356343
vn -0.934355 0.000000 -0.356343
vn 0.356343 0.000000 -0.934355
vn -0.660689 0.707107 -0.251973
vn 0.251973 0.707107 -0.660688
vn 0.660689 0.707107 0.251973
vn -0.251973 0.707108 0.660688
vn -0.356343 0.000000 0.934355
vn -0.434183 0.000000 -0.900825
vn 0.434182 0.000000 0.900825
vn -0.900825 0.000000 0.434183
vn 0.307014 0.707106 0.636980
vn -0.636978 0.707108 0.307013
vn -0.307013 0.707107 -0.636979
vn 0.636980 0.707106 -0.307014
vn 0.900825 0.000000 -0.434183
vn 0.967412 0.000000 0.253207
vn -0.967412 0.000000 -0.253208
vn 0.253207 0.000000 -0.967412
vn -0.684063 0.707107 -0.179045
vn 0.179045 0.707107 -0.684063
vn 0.684064 0.707107 0.179045
vn -0.179044 0.707108 0.684063
vn -0.253207 0.000000 0.967412
vn 0.000000 1.000000 0.000000
vn 0.824632 0.000000 -0.565669
vn -0.824632 0.000000 0.565669
vn -0.565669 0.000000 -0.824632
vn -0.583104 0.707106 0.399989
vn -0.399989 0.707107 -0.583103
vn 0.583103 0.707107 -0.399989
vn 0.399989 0.707106 0.583104
vn 0.565669 0.000000 0.824632
vn -0.000000 1.000000 0.000000
vn -0.678525 0.000000 -0.734578
vn 0.678524 0.000000 0.734578
vn -0.734577 0.000000 0.678525
vn 0.479790 0.707106 0.519425
vn -0.519425 0.707107 0.479790
vn -0.479790 0.707107 -0.519425
vn 0.519424 0.707108 -0.479789
vn 0.734577 0.000000 -0.678525
vn 1.000000 0.000000 0.000000
vn -1.000000 0.000000 0.000000
vn 0.000000 0.000000 -1.000000
vn -0.707106 0.707107 0.000000
vn 0.000000 0.707107 -0.707107
vn 0.707105 0.707108 0.000000
vn 0.000000 0.707107 0.707106
vn 0.000000 0.000000 1.000000
vn 0.894580 0.000000 -0.446907
vn -0.894581 0.000000 0.446907
vn -0.446907 0.000000 -0.894580
vn -0.632564 0.707107 0.316011
vn -0.316011 0.707107 -0.632563
vn 0.632564 0.707106 -0.316011
vn 0.316011 0.707106 0.632565
vn 0.446907 0.000000 0.894581
vn 0.180832 0.000000 0.983514
vn -0.180832 0.000000 -0.983514
vn 0.983514 0.000000 -0.180832
vn -0.127868 0.707106 -0.695450
vn 0.695449 0.707107 -0.127868
vn 0.127868 0.707107 0.695449
vn -0.695449 0.707107 0.127868
vn -0.983514 0.000000 0.180832

# Mesh
g floor lp 3
usemtl Stones
f 4/4/1 1/1/1 2/2/1
f 2/2/1 3/3/1 4/4/1
f 8/8/2 5/5/2 6/6/2
f 6/6/2 7/7/2 8/8/2
f 12/12/3 9/9/3 10/10/3
f 10/10/3 11/11/3 12/12/3
f 16/16/4 13/13/4 14/14/4
f 14/14/4 15/15/4 16/16/4
f 5/20/5 16/17/5 15/18/5
f 15/18/5 6/19/5 5/20/5
f 14/14/6 3/3/6 2/2/6
f 2/2/6 15/15/6 14/14/6
f 15/18/7 2/2/7 1/1/7
f 1/1/7 6/19/7 15/18/7
f 6/6/8 1/1/8 4/4/8
f 4/4/8 7/7/8 6/6/8
f 7/22/9 4/4/9 3/3/9
f 3/3/9 14/21/9 7/22/9
f 13/24/10 8/23/10 7/22/10
f 7/22/10 14/21/10 13/24/10
f 10/10/11 17/25/11 18/26/11
f 18/26/11 11/11/11 10/10/11
f 20/29/12 19/27/12 17/25/12
f 17/25/12 10/28/12 20/29/12
f 22/32/13 21/30/13 19/27/13
f 19/27/13 20/31/13 22/32/13
f 11/34/14 18/26/14 21/30/14
f 21/30/14 22/33/14 11/34/14
f 24/36/15 23/35/15 22/32/15
f 22/32/15 20/31/15 24/36/15
f 23/38/16 12/37/16 11/34/16
f 11/34/16 22/33/16 23/38/16
f 9/40/17 24/39/17 20/29/17
f 20/29/17 10/28/17 9/40/17
f 17/25/18 19/27/18 21/30/18
f 21/30/18 18/26/18 17/25/18
f 28/44/19 25/41/19 26/42/19
f 26/42/19 27/43/19 28/44/19
f 32/48/20 29/45/20 30/46/20
f 30/46/20 31/47/20 32/48/20
f 36/52/21 33/49/21 34/50/21
f 34/50/21 35/51/21 36/52/21
f 29/56/22 36/53/22 35/54/22
f 35/54/22 30/55/22 29/56/22
f 34/50/23 27/43/23 26/42/23
f 26/42/23 35/51/23 34/50/23
f 35/54/24 26/42/24 25/41/24
f 25/41/24 30/55/24 35/54/24
f 30/46/25 25/41/25 28/44/25
f 28/44/25 31/47/25 30/46/25
f 31/58/26 28/44/26 27/43/26
f 27/43/26 34/57/26 31/58/26
f 33/60/27 32/59/27 31/58/27
f 31/58/27 34/57/27 33/60/27
f 40/64/28 37/61/28 38/62/28
f 38/62/28 39/63/28 40/64/28
f 44/68/29 41/65/29 42/66/29
f 42/66/29 43/67/29 44/68/29
f 48/72/30 45/69/30 46/70/30
f 46/70/30 47/71/30 48/72/30
f 41/76/31 48/73/31 47/74/31
f 47/74/31 42/75/31 41/76/31
f 46/70/32 39/63/32 38/62/32
f 38/62/32 47/71/32 46/70/32
f 47/74/33 38/62/33 37/61/33
f 37/61/33 42/75/33 47/74/33
f 42/66/34 37/61/34 40/64/34
f 40/64/34 43/67/34 42/66/34
f 43/78/35 40/64/35 39/63/35
f 39/63/35 46/77/35 43/78/35
f 45/80/36 44/79/36 43/78/36
f 43/78/36 46/77/36 45/80/36
f 52/84/37 49/81/37 50/82/37
f 50/82/37 51/83/37 52/84/37
f 56/88/38 53/85/38 54/86/38
f 54/86/38 55/87/38 56/88/38
f 60/92/39 57/89/39 58/90/39
f 58/90/39 59/91/39 60/92/39
f 53/96/40 60/93/40 59/94/40
f 59/94/40 54/95/40 53/96/40
f 58/90/41 51/83/41 50/82/41
f 50/82/41 59/91/41 58/90/41
f 59/94/42 50/82/42 49/81/42
f 49/81/42 54/95/42 59/94/42
f 54/86/43 49/81/43 52/84/43
f 52/84/43 55/87/43 54/86/43
f 55/98/44 52/84/44 51/83/44
f 51/83/44 58/97/44 55/98/44
f 57/100/45 56/99/45 55/98/45
f 55/98/45 58/97/45 57/100/45
f 64/104/37 61/101/37 62/102/37
f 62/102/37 63/103/37 64/104/37
f 68/108/46 65/105/46 66/106/46
f 66/106/46 67/107/46 68/108/46
f 72/112/47 69/109/47 70/110/47
f 70/110/47 71/111/47 72/112/47
f 65/116/48 72/113/48 71/114/48
f 71/114/48 66/115/48 65/116/48
f 70/110/49 63/103/49 62/102/49
f 62/102/49 71/111/49 70/110/49
f 71/114/50 62/102/50 61/101/50
f 61/101/50 66/115/50 71/114/50
f 66/106/51 61/101/51 64/104/51
f 64/104/51 67/107/51 66/106/51
f 67/118/52 64/104/52 63/103/52
f 63/103/52 70/117/52 67/118/52
f 69/120/53 68/119/53 67/118/53
f 67/118/53 70/117/53 69/120/53
f 76/124/19 73/121/19 74/122/19
f 74/122/19 75/123/19 76/124/19
f 80/128/54 77/125/54 78/126/54
f 78/126/54 79/127/54 80/128/54
f 84/132/55 81/129/55 82/130/55
f 82/130/55 83/131/55 84/132/55
f 77/136/56 84/133/56 83/134/56
f 83/134/56 78/135/56 77/136/56
f 82/130/57 75/123/57 74/122/57
f 74/122/57 83/131/57 82/130/57
f 83/134/58 74/122/58 73/121/58
f 73/121/58 78/135/58 83/134/58
f 78/126/59 73/121/59 76/124/59
f 76/124/59 79/127/59 78/126/59
f 79/138/60 76/124/60 75/123/60
f 75/123/60 82/137/60 79/138/60
f 81/140/61 80/139/61 79/138/61
f 79/138/61 82/137/61 81/140/61
f 88/144/62 85/141/62 86/142/62
f 86/142/62 87/143/62 88/144/62
f 92/148/63 89/145/63 90/146/63
f 90/146/63 91/147/63 92/148/63
f 96/152/64 93/149/64 94/150/64
f 94/150/64 95/151/64 96/152/64
f 89/156/65 96/153/65 95/154/65
f 95/154/65 90/155/65 89/156/65
f 94/150/66 87/143/66 86/142/66
f 86/142/66 95/151/66 94/150/66
f 95/154/67 86/142/67 85/141/67
f 85/141/67 90/155/67 95/154/67
f 90/146/68 85/141/68 88/144/68
f 88/144/68 91/147/68 90/146/68
f 91/158/69 88/144/69 87/143/69
f 87/143/69 94/157/69 91/158/69
f 93/160/70 92/159/70 91/158/70
f 91/158/70 94/157/70 93/160/70
f 100/164/71 97/161/71 98/162/71
f 98/162/71 99/163/71 100/164/71
f 104/168/72 101/165/72 102/166/72
f 102/166/72 103/167/72 104/168/72
f 108/172/73 105/169/73 106/170/73
f 106/170/73 107/171/73 108/172/73
f 101/176/74 108/173/74 107/174/74
f 107/174/74 102/175/74 101/176/74
f 106/170/75 99/163/75 98/162/75
f 98/162/75 107/171/75 106/170/75
f 107/174/76 98/162/76 97/161/76
f 97/161/76 102/175/76 107/174/76
f 102/166/77 97/161/77 100/164/77
f 100/164/77 103/167/77 102/166/77
f 103/178/78 100/164/78 99/163/78
f 99/163/78 106/177/78 103/178/78
f 105/180/79 104/179/79 103/178/79
f 103/178/79 106/177/79 105/180/79
f 112/184/37 109/181/37 110/182/37
f 110/182/37 111/183/37 112/184/37
f 116/188/80 113/185/80 114/186/80
f 114/186/80 115/187/80 116/188/80
f 120/192/81 117/189/81 118/190/81
f 118/190/81 119/191/81 120/192/81
f 113/196/82 120/193/82 119/194/82
f 119/194/82 114/195/82 113/196/82
f 118/190/83 111/183/83 110/182/83
f 110/182/83 119/191/83 118/190/83
f 119/194/84 110/182/84 109/181/84
f 109/181/84 114/195/84 119/194/84
f 114/186/85 109/181/85 112/184/85
f 112/184/85 115/187/85 114/186/85
f 115/198/86 112/184/86 111/183/86
f 111/183/86 118/197/86 115/198/86
f 117/200/87 116/199/87 115/198/87
f 115/198/87 118/197/87 117/200/87
f 124/204/37 121/201/37 122/202/37
f 122/202/37 123/203/37 124/204/37
f 128/208/88 125/205/88 126/206/88
f 126/206/88 127/207/88 128/208/88
f 132/212/89 129/209/89 130/210/89
f 130/210/89 131/211/89 132/212/89
f 125/216/90 132/213/90 131/214/90
f 131/214/90 126/215/90 125/216/90
f 130/210/91 123/203/91 122/202/91
f 122/202/91 131/211/91 130/210/91
f 131/214/92 122/202/92 121/201/92
f 121/201/92 126/215/92 131/214/92
f 126/206/93 121/201/93 124/204/93
f 124/204/93 127/207/93 126/206/93
f 127/218/94 124/204/94 123/203/94
f 123/203/94 130/217/94 127/218/94
f 129/220/95 128/219/95 127/218/95
f 127/218/95 130/217/95 129/220/95
f 136/224/37 133/221/37 134/222/37
f 134/222/37 135/223/37 136/224/37
f 140/228/96 137/225/96 138/226/96
f 138/226/96 139/227/96 140/228/96
f 144/232/97 141/229/97 142/230/97
f 142/230/97 143/231/97 144/232/97
f 137/236/98 144/233/98 143/234/98
f 143/234/98 138/235/98 137/236/98
f 142/230/99 135/223/99 134/222/99
f 134/222/99 143/231/99 142/230/99
f 143/234/100 134/222/100 133/221/100
f 133/221/100 138/235/100 143/234/100
f 138/226/101 133/221/101 136/224/101
f 136/224/101 139/227/101 138/226/101
f 139/238/102 136/224/102 135/223/102
f 135/223/102 142/237/102 139/238/102
f 141/240/103 140/239/103 139/238/103
f 139/238/103 142/237/103 141/240/103
f 148/244/37 145/241/37 146/242/37
f 146/242/37 147/243/37 148/244/37
