# File produced by Open Asset Import Library (http://www.assimp.sf.net)
# (assimp v3.1.161429758)

mtllib jail(Metallic%20Standard).mtl

# vertex positions
v 1.284331 1.415071 10.670437
v 1.284331 2.991262 10.670437
v 1.333669 2.991262 10.670437
v 1.333669 1.342213 10.670437
v 1.284331 4.267013 10.670437
v 1.284331 4.267013 10.967833
v 1.333669 4.342213 10.967833
v 1.333669 4.342213 10.670437
v 0.184442 1.415071 10.670437
v 0.184442 1.415071 10.967833
v 1.284331 1.415071 10.967833
v 0.127815 1.342213 10.670437
v 1.333669 1.342213 10.967833
v 0.127815 1.342213 10.967833
v 0.127815 1.415071 10.670437
v 0.184442 4.342213 10.967833
v 0.184442 4.342213 10.670437
v 0.127815 4.342213 10.670437
v 0.127815 4.342213 10.967833
v 0.184442 4.267013 10.670437
v 0.127815 4.267013 10.670437
v -0.590292 1.415071 10.670437
v -0.666331 1.342213 10.670437
v -0.666331 4.341460 10.670437
v -0.581491 4.268106 10.670437
v 0.127815 3.123974 10.670437
v 0.127815 3.123974 10.967833
v 0.127815 4.267013 10.967833
v 0.184442 3.123974 10.670437
v 0.184442 3.123974 10.967833
v 0.184442 4.267013 10.967833
v 1.284331 3.123974 10.670437
v 1.284331 3.123974 10.967833
v 0.768812 1.414403 10.763783
v 0.768812 4.335249 10.763783
v 0.768812 4.335249 10.826416
v 0.768812 1.414403 10.826416
v 0.389878 1.414403 10.826416
v 0.389878 4.335249 10.826416
v 0.389878 4.335249 10.763783
v 0.389878 1.414403 10.763783
v 0.555314 1.414403 10.826416
v 0.555314 4.335249 10.826416
v 0.555314 4.335249 10.763783
v 0.555314 1.414403 10.763783
v 0.734386 1.414403 10.732467
v 0.734386 4.335249 10.732467
v 0.624164 1.414403 10.826416
v 0.624164 4.335249 10.826416
v 0.589739 4.335249 10.857733
v 0.589739 1.414403 10.857733
v 0.734386 4.335249 10.857733
v 0.734386 1.414403 10.857733
v 0.589739 1.414403 10.732467
v 0.589739 4.335249 10.732467
v 0.624164 4.335249 10.763783
v 0.624164 1.414403 10.763783
v 0.699961 4.335249 10.826416
v 0.699961 1.414403 10.826416
v 0.699961 4.335249 10.763783
v 0.699961 1.414403 10.763783
v 0.458729 1.414403 10.826416
v 0.458729 4.335249 10.826416
v 0.424303 4.335249 10.857733
v 0.424303 1.414403 10.857733
v 0.424303 1.414403 10.732467
v 0.424303 4.335249 10.732467
v 0.458729 4.335249 10.763783
v 0.458729 1.414403 10.763783
v 0.243023 1.414403 10.826416
v 0.243023 4.335249 10.826416
v 0.243023 4.335249 10.763783
v 0.243023 1.414403 10.763783
v 0.311874 1.414403 10.826416
v 0.311874 4.335249 10.826416
v 0.277449 4.335249 10.857733
v 0.277449 1.414403 10.857733
v 0.277449 1.414403 10.732467
v 0.277449 4.335249 10.732467
v 0.311874 4.335249 10.763783
v 0.311874 1.414403 10.763783
v 0.840341 1.414403 10.826416
v 0.840341 4.335249 10.826416
v 0.840341 4.335249 10.763783
v 0.840341 1.414403 10.763783
v 0.909191 1.414403 10.826416
v 0.909191 4.335249 10.826416
v 0.874766 4.335249 10.857733
v 0.874766 1.414403 10.857733
v 0.874766 1.414403 10.732467
v 0.874766 4.335249 10.732467
v 0.909191 4.335249 10.763783
v 0.909191 1.414403 10.763783
v 0.997834 1.414403 10.826416
v 0.997834 4.335249 10.826416
v 0.997834 4.335249 10.763783
v 0.997834 1.414403 10.763783
v 1.066684 1.414403 10.826416
v 1.066684 4.335249 10.826416
v 1.032259 4.335249 10.857733
v 1.032259 1.414403 10.857733
v 1.032259 1.414403 10.732467
v 1.032259 4.335249 10.732467
v 1.066684 4.335249 10.763783
v 1.066684 1.414403 10.763783
v 1.144726 1.414403 10.826416
v 1.144726 4.335249 10.826416
v 1.144726 4.335249 10.763783
v 1.144726 1.414403 10.763783
v 1.213577 1.414403 10.826416
v 1.213577 4.335249 10.826416
v 1.179151 4.335249 10.857733
v 1.179151 1.414403 10.857733
v 1.179151 1.414403 10.732467
v 1.179151 4.335249 10.732467
v 1.213577 4.335249 10.763783
v 1.213577 1.414403 10.763783
v 0.184442 2.991262 10.670437
v 0.127815 2.991262 10.670437
v 0.127815 2.991262 10.967833
v 1.284331 2.991262 10.967833
v 1.333669 2.991262 10.967833
v 1.333669 3.123974 10.670437
v 1.333669 3.123974 10.967833
v 0.127815 1.415071 10.967833
v 0.184442 2.991262 10.967833
v -0.590292 1.415071 10.967833
v -0.666331 1.342213 10.967833
v -0.184593 1.400438 10.785057
v -0.184593 4.321284 10.785057
v -0.184593 4.321284 10.722425
v -0.184593 1.400438 10.722425
v -0.019157 1.400438 10.785057
v -0.019157 4.321284 10.785057
v -0.019157 4.321284 10.722425
v -0.019157 1.400438 10.722425
v 0.049693 1.400438 10.785057
v 0.049693 4.321284 10.785057
v 0.015268 4.321284 10.816374
v 0.015268 1.400438 10.816374
v 0.015268 1.400438 10.691108
v 0.015268 4.321284 10.691108
v 0.049693 4.321284 10.722425
v 0.049693 1.400438 10.722425
v -0.115743 1.400438 10.785057
v -0.115743 4.321284 10.785057
v -0.150168 4.321284 10.816374
v -0.150168 1.400438 10.816374
v -0.150168 1.400438 10.691108
v -0.150168 4.321284 10.691108
v -0.115743 4.321284 10.722425
v -0.115743 1.400438 10.722425
v -0.331448 1.400438 10.785057
v -0.331448 4.321284 10.785057
v -0.331448 4.321284 10.722425
v -0.331448 1.400438 10.722425
v -0.262598 1.400438 10.785057
v -0.262598 4.321284 10.785057
v -0.297023 4.321284 10.816374
v -0.297023 1.400438 10.816374
v -0.297023 1.400438 10.691108
v -0.297023 4.321284 10.691108
v -0.262598 4.321284 10.722425
v -0.262598 1.400438 10.722425
v -0.497218 1.400438 10.785057
v -0.497218 4.321284 10.785057
v -0.497218 4.321284 10.722425
v -0.497218 1.400438 10.722425
v -0.428367 1.400438 10.785057
v -0.428367 4.321284 10.785057
v -0.462793 4.321284 10.816374
v -0.462793 1.400438 10.816374
v -0.462793 1.400438 10.691108
v -0.462793 4.321284 10.691108
v -0.428367 4.321284 10.722425
v -0.428367 1.400438 10.722425
v 0.233732 2.861466 10.758075
v 0.233732 3.087736 10.758075
v 0.233732 3.087736 10.655497
v 0.233732 2.861466 10.655497
v 0.460002 3.087736 10.655497
v 0.460002 2.861466 10.655497
v 0.460002 3.087736 10.758075
v 0.460002 2.861466 10.758075
v -0.666331 4.341460 10.967833
v -0.581491 4.268106 10.967833

# UV coordinates
vt 0.252912 0.449993
vt 0.252912 0.207872
vt 0.266693 0.207872
vt 0.266693 0.461185
vt 0.359461 0.439142
vt 0.405145 0.439142
vt 0.405145 0.457124
vt 0.359461 0.457124
vt 0.149653 0.014131
vt 0.149653 0.321355
vt 0.103969 0.321355
vt 0.103969 0.014131
vt 0.160845 0.000350
vt 0.160845 0.337172
vt 0.206528 0.000350
vt 0.206528 0.337172
vt 0.149653 0.337172
vt 0.000350 0.321355
vt 0.046033 0.321354
vt 0.046033 0.337170
vt 0.000351 0.337173
vt 0.057585 0.321354
vt 0.057584 0.337172
vt 0.581557 0.011542
vt 0.602796 0.000350
vt 0.602796 0.461069
vt 0.579098 0.449801
vt 0.374578 0.262857
vt 0.420262 0.262858
vt 0.420262 0.438441
vt 0.374578 0.438441
vt 0.358761 0.262858
vt 0.358761 0.438441
vt 0.313078 0.262858
vt 0.313078 0.438441
vt 0.252912 0.187486
vt 0.207229 0.187486
vt 0.207229 0.011902
vt 0.252912 0.011902
vt 0.046034 0.000350
vt 0.057585 0.014131
vt 0.000350 0.000350
vt 0.103269 0.321354
vt 0.103269 0.014132
vt 0.782027 0.449026
vt 0.782028 0.000350
vt 0.791649 0.000350
vt 0.791649 0.449026
vt 0.207229 0.483389
vt 0.655903 0.483389
vt 0.655903 0.493011
vt 0.207229 0.493010
vt 0.103969 0.581198
vt 0.552644 0.581198
vt 0.552644 0.590819
vt 0.103969 0.590819
vt 0.771276 0.449026
vt 0.771276 0.000350
vt 0.103969 0.559694
vt 0.552644 0.559694
vt 0.552644 0.570446
vt 0.103969 0.570446
vt 0.729399 0.449026
vt 0.729399 0.000350
vt 0.740150 0.000350
vt 0.740151 0.449026
vt 0.103969 0.601571
vt 0.552644 0.601571
vt 0.552644 0.612323
vt 0.103969 0.612323
vt 0.750902 0.000350
vt 0.750902 0.449026
vt 0.552644 0.621944
vt 0.103969 0.621944
vt 0.760524 0.000350
vt 0.760524 0.449026
vt 0.207229 0.461885
vt 0.655903 0.461885
vt 0.655903 0.472637
vt 0.207229 0.472637
vt 0.207229 0.503762
vt 0.655903 0.503763
vt 0.655903 0.514515
vt 0.207229 0.514514
vt 0.655903 0.524136
vt 0.207229 0.524135
vt 0.103969 0.833001
vt 0.552644 0.833002
vt 0.552644 0.842623
vt 0.103969 0.842623
vt 0.103969 0.811498
vt 0.552644 0.811498
vt 0.552644 0.822250
vt 0.103969 0.822250
vt 0.103969 0.853375
vt 0.552644 0.853375
vt 0.552644 0.864127
vt 0.103969 0.864127
vt 0.552644 0.873748
vt 0.103969 0.873748
vt 0.625001 0.449025
vt 0.625001 0.000350
vt 0.634622 0.000350
vt 0.634622 0.449025
vt 0.603497 0.449025
vt 0.603497 0.000350
vt 0.614249 0.000350
vt 0.614249 0.449025
vt 0.645374 0.449025
vt 0.645374 0.000350
vt 0.656126 0.000350
vt 0.656126 0.449025
vt 0.665747 0.000350
vt 0.665747 0.449025
vt 0.687952 0.449025
vt 0.687952 0.000350
vt 0.697573 0.000350
vt 0.697573 0.449025
vt 0.666448 0.449025
vt 0.666448 0.000350
vt 0.677200 0.000350
vt 0.677200 0.449025
vt 0.708325 0.449025
vt 0.708325 0.000350
vt 0.719077 0.000350
vt 0.719077 0.449025
vt 0.728698 0.000350
vt 0.728698 0.449025
vt 0.552644 0.915195
vt 0.103969 0.915195
vt 0.103969 0.905574
vt 0.552644 0.905574
vt 0.552644 0.936699
vt 0.103969 0.936699
vt 0.103969 0.925947
vt 0.552644 0.925947
vt 0.552644 0.894822
vt 0.103969 0.894822
vt 0.103969 0.884070
vt 0.552644 0.884070
vt 0.103969 0.874449
vt 0.552644 0.874449
vt 0.487032 0.307573
vt 0.466646 0.307573
vt 0.466646 0.000350
vt 0.487032 0.000350
vt 0.358761 0.242471
vt 0.374578 0.242471
vt 0.420262 0.242471
vt 0.313077 0.439142
vt 0.358761 0.439142
vt 0.358761 0.459528
vt 0.313077 0.459528
vt 0.312377 0.207872
vt 0.266693 0.187486
vt 0.312377 0.187486
vt 0.374578 0.000350
vt 0.420262 0.000350
vt 0.358761 0.000350
vt 0.313077 0.000350
vt 0.313078 0.242471
vt 0.312377 0.461185
vt 0.160844 0.558993
vt 0.149653 0.537754
vt 0.207229 0.449993
vt 0.207229 0.207872
vt 0.532715 0.307573
vt 0.532715 0.000350
vt 0.420962 0.307573
vt 0.420962 0.000350
vt 0.103969 0.337172
vt 0.103969 0.537754
vt 0.775167 0.559694
vt 0.775167 0.605377
vt 0.553345 0.605377
vt 0.553345 0.559694
vt 0.552644 0.674143
vt 0.103969 0.674143
vt 0.103969 0.664522
vt 0.552644 0.664522
vt 0.552644 0.800045
vt 0.103969 0.800045
vt 0.103969 0.790424
vt 0.552644 0.790424
vt 0.552644 0.759299
vt 0.103969 0.759299
vt 0.103969 0.748547
vt 0.552644 0.748547
vt 0.552644 0.779672
vt 0.103969 0.779672
vt 0.103969 0.768920
vt 0.552644 0.768920
vt 0.552644 0.810797
vt 0.103969 0.810797
vt 0.552644 0.633397
vt 0.103969 0.633397
vt 0.103969 0.622645
vt 0.552644 0.622645
vt 0.552644 0.653770
vt 0.103969 0.653770
vt 0.103969 0.643018
vt 0.552644 0.643018
vt 0.552644 0.684895
vt 0.103969 0.684895
vt 0.552644 0.737094
vt 0.103969 0.737094
vt 0.103969 0.727473
vt 0.552644 0.727473
vt 0.552644 0.696348
vt 0.103969 0.696348
vt 0.103969 0.685596
vt 0.552644 0.685596
vt 0.552644 0.716721
vt 0.103969 0.716721
vt 0.103969 0.705969
vt 0.552644 0.705969
vt 0.552644 0.747846
vt 0.103969 0.747846
vt 0.552644 0.988898
vt 0.103969 0.988898
vt 0.103969 0.979277
vt 0.552644 0.979277
vt 0.552644 0.948152
vt 0.103969 0.948152
vt 0.103969 0.937399
vt 0.552644 0.937400
vt 0.552644 0.968525
vt 0.103969 0.968525
vt 0.103969 0.957773
vt 0.552644 0.957773
vt 0.552644 0.999650
vt 0.103969 0.999650
vt 0.436719 0.308274
vt 0.471477 0.308274
vt 0.471477 0.324031
vt 0.436719 0.324031
vt 0.471477 0.387233
vt 0.436719 0.387233
vt 0.471477 0.402990
vt 0.436719 0.402990
vt 0.420962 0.387233
vt 0.420962 0.324031
vt 0.487234 0.324031
vt 0.487234 0.387233
vt 0.266693 0.000350
vt 0.312377 0.000350
vt 0.057358 0.535293
vt 0.046082 0.558989
vt 0.792349 0.000350
vt 0.838033 0.000350
vt 0.838033 0.461069
vt 0.792349 0.461069
vt 0.000395 0.558999
vt 0.103267 0.337224
vt 0.103041 0.535346
vt 0.535874 0.011286
vt 0.533416 0.449545

# vertex normals
vn 0.000000 0.000000 -1.000000
vn -0.836111 0.548561 0.000000
vn 0.000000 1.000000 0.000000
vn 0.000000 0.000001 -1.000000
vn 0.000000 -1.000000 0.000000
vn 0.000000 -0.000000 -1.000000
vn -1.000000 0.000000 0.000000
vn 1.000000 0.000000 0.000000
vn -1.000000 -0.000000 -0.000000
vn 0.000000 -0.000000 -1.000000
vn 0.672919 0.000000 -0.739716
vn 0.672919 0.000000 0.739716
vn 0.672919 0.000000 0.739716
vn 0.672919 0.000000 -0.739716
vn -0.672919 0.000000 -0.739716
vn -0.672919 0.000000 0.739716
vn -0.672919 0.000000 0.739716
vn -0.672919 0.000000 -0.739716
vn 0.672920 0.000000 0.739716
vn 0.672920 0.000000 -0.739716
vn -0.672920 0.000000 -0.739716
vn -0.672920 0.000000 0.739716
vn 0.672919 0.000000 0.739716
vn 0.672919 0.000000 -0.739716
vn -0.672920 0.000000 -0.739715
vn -0.672920 0.000000 0.739715
vn 0.000000 -0.000000 -1.000000
vn -1.000000 0.000000 0.000000
vn -1.000000 0.000000 -0.000000
vn 0.000000 -0.000001 -1.000000
vn -1.000000 0.000000 -0.000000
vn 0.000000 0.000000 -1.000000
vn -1.000000 0.000000 -0.000000
vn -0.000000 -1.000000 0.000000
vn 0.672920 0.000000 0.739716
vn 0.672920 0.000000 -0.739716
vn -0.672920 0.000000 -0.739716
vn -0.672920 0.000000 0.739716
vn 0.672919 0.000000 0.739716
vn 0.672919 0.000000 -0.739716
vn -0.672921 0.000000 -0.739715
vn -0.672921 0.000000 0.739715
vn 0.000000 0.000000 -1.000000
vn -0.000947 1.000000 0.000000
vn -0.001542 -0.999999 0.000000
vn 0.999995 -0.003085 0.000000

# Mesh
g Cube.002
usemtl DefaultMaterial
f 4/4/1 1/1/1 2/2/1
f 2/2/1 3/3/1 4/4/1
f 8/8/2 5/5/2 6/6/2
f 6/6/2 7/7/2 8/8/2
f 11/12/3 1/9/3 9/10/3
f 9/10/3 10/11/3 11/12/3
f 9/10/4 1/9/4 4/13/4
f 4/13/4 12/14/4 9/10/4
f 4/13/5 13/15/5 14/16/5
f 14/16/5 12/14/5 4/13/5
f 15/17/1 9/10/4 12/14/4
f 19/21/3 16/18/3 17/19/3
f 17/19/3 18/20/3 19/21/3
f 17/19/1 20/22/1 21/23/1
f 21/23/1 18/20/1 17/19/1
f 25/27/6 22/24/6 23/25/6
f 23/25/6 24/26/6 25/27/6
f 21/31/7 26/28/7 27/29/7
f 27/29/7 28/30/7 21/31/7
f 20/33/1 29/32/1 26/28/1
f 26/28/1 21/31/1 20/33/1
f 31/35/8 30/34/8 29/32/8
f 29/32/8 20/33/8 31/35/8
f 5/39/9 32/36/9 33/37/9
f 33/37/9 6/38/9 5/39/9
f 5/41/10 20/22/1 17/19/10
f 17/19/10 8/40/10 5/41/10
f 8/40/3 17/19/3 16/18/3
f 16/18/3 7/42/3 8/40/3
f 6/44/5 31/43/5 20/22/5
f 20/22/5 5/41/5 6/44/5
f 37/48/8 34/45/8 35/46/8
f 35/46/8 36/47/8 37/48/8
f 41/52/7 38/49/7 39/50/7
f 39/50/7 40/51/7 41/52/7
f 45/56/7 42/53/7 43/54/7
f 43/54/7 44/55/7 45/56/7
f 34/45/11 46/57/11 47/58/11
f 47/58/11 35/46/11 34/45/11
f 51/62/12 48/59/12 49/60/12
f 49/60/12 50/61/12 51/62/12
f 53/66/13 37/63/13 36/64/13
f 36/64/13 52/65/13 53/66/13
f 57/70/14 54/67/14 55/68/14
f 55/68/14 56/69/14 57/70/14
f 54/67/15 45/56/15 44/55/15
f 44/55/15 55/68/15 54/67/15
f 59/72/16 53/66/16 52/65/16
f 52/65/16 58/71/16 59/72/16
f 48/74/8 57/70/8 56/69/8
f 56/69/8 49/73/8 48/74/8
f 61/76/7 59/72/7 58/71/7
f 58/71/7 60/75/7 61/76/7
f 42/53/17 51/62/17 50/61/17
f 50/61/17 43/54/17 42/53/17
f 65/80/12 62/77/12 63/78/12
f 63/78/12 64/79/12 65/80/12
f 46/57/18 61/76/18 60/75/18
f 60/75/18 47/58/18 46/57/18
f 69/84/14 66/81/14 67/82/14
f 67/82/14 68/83/14 69/84/14
f 66/81/18 41/52/18 40/51/18
f 40/51/18 67/82/18 66/81/18
f 62/86/8 69/84/8 68/83/8
f 68/83/8 63/85/8 62/86/8
f 38/49/16 65/80/16 64/79/16
f 64/79/16 39/50/16 38/49/16
f 73/90/7 70/87/7 71/88/7
f 71/88/7 72/89/7 73/90/7
f 77/94/19 74/91/19 75/92/19
f 75/92/19 76/93/19 77/94/19
f 81/98/20 78/95/20 79/96/20
f 79/96/20 80/97/20 81/98/20
f 78/95/21 73/90/21 72/89/21
f 72/89/21 79/96/21 78/95/21
f 74/100/8 81/98/8 80/97/8
f 80/97/8 75/99/8 74/100/8
f 70/87/22 77/94/22 76/93/22
f 76/93/22 71/88/22 70/87/22
f 85/104/7 82/101/7 83/102/7
f 83/102/7 84/103/7 85/104/7
f 89/108/12 86/105/12 87/106/12
f 87/106/12 88/107/12 89/108/12
f 93/112/14 90/109/14 91/110/14
f 91/110/14 92/111/14 93/112/14
f 90/109/15 85/104/15 84/103/15
f 84/103/15 91/110/15 90/109/15
f 86/114/8 93/112/8 92/111/8
f 92/111/8 87/113/8 86/114/8
f 82/101/17 89/108/17 88/107/17
f 88/107/17 83/102/17 82/101/17
f 97/118/7 94/115/7 95/116/7
f 95/116/7 96/117/7 97/118/7
f 101/122/19 98/119/19 99/120/19
f 99/120/19 100/121/19 101/122/19
f 105/126/20 102/123/20 103/124/20
f 103/124/20 104/125/20 105/126/20
f 102/123/21 97/118/21 96/117/21
f 96/117/21 103/124/21 102/123/21
f 98/128/8 105/126/8 104/125/8
f 104/125/8 99/127/8 98/128/8
f 94/115/22 101/122/22 100/121/22
f 100/121/22 95/116/22 94/115/22
f 109/132/7 106/129/7 107/130/7
f 107/130/7 108/131/7 109/132/7
f 113/136/23 110/133/23 111/134/23
f 111/134/23 112/135/23 113/136/23
f 117/140/24 114/137/24 115/138/24
f 115/138/24 116/139/24 117/140/24
f 114/137/25 109/132/25 108/131/25
f 108/131/25 115/138/25 114/137/25
f 110/142/8 117/140/8 116/139/8
f 116/139/8 111/141/8 110/142/8
f 106/129/26 113/136/26 112/135/26
f 112/135/26 107/130/26 106/129/26
f 2/146/27 118/143/27 29/144/27
f 29/144/27 32/145/27 2/146/27
f 29/32/1 118/147/1 119/148/1
f 119/148/1 26/28/1 29/32/1
f 26/28/7 119/148/28 120/149/28
f 120/149/28 27/29/7 26/28/7
f 32/153/29 2/150/29 121/151/29
f 121/151/29 33/152/29 32/153/29
f 124/156/8 122/154/8 3/3/8
f 3/3/8 123/155/8 124/156/8
f 123/155/30 3/3/1 2/2/1
f 2/2/1 32/36/30 123/155/30
f 119/148/28 15/157/31 125/158/31
f 125/158/31 120/149/28 119/148/28
f 118/147/1 9/159/1 15/157/1
f 15/157/1 119/148/1 118/147/1
f 126/161/8 10/160/8 9/159/8
f 9/159/8 118/147/8 126/161/8
f 122/154/8 13/162/8 4/4/8
f 4/4/8 3/3/8 122/154/8
f 22/164/32 15/17/1 12/14/4
f 12/14/4 23/163/32 22/164/32
f 2/2/33 1/1/33 11/165/33
f 11/165/33 121/166/33 2/2/33
f 121/168/34 126/167/34 118/143/34
f 118/143/34 2/146/34 121/168/34
f 32/145/3 29/144/3 30/169/3
f 30/169/3 33/170/3 32/145/3
f 127/172/3 125/171/3 15/17/3
f 15/17/3 22/164/3 127/172/3
f 23/176/5 12/173/5 14/174/5
f 14/174/5 128/175/5 23/176/5
f 132/180/7 129/177/7 130/178/7
f 130/178/7 131/179/7 132/180/7
f 136/184/7 133/181/7 134/182/7
f 134/182/7 135/183/7 136/184/7
f 140/188/35 137/185/35 138/186/35
f 138/186/35 139/187/35 140/188/35
f 144/192/36 141/189/36 142/190/36
f 142/190/36 143/191/36 144/192/36
f 141/189/37 136/184/37 135/183/37
f 135/183/37 142/190/37 141/189/37
f 137/185/8 144/192/8 143/191/8
f 143/191/8 138/186/8 137/185/8
f 133/181/38 140/193/38 139/194/38
f 139/194/38 134/182/38 133/181/38
f 148/198/39 145/195/39 146/196/39
f 146/196/39 147/197/39 148/198/39
f 152/202/40 149/199/40 150/200/40
f 150/200/40 151/201/40 152/202/40
f 149/199/37 132/180/37 131/179/37
f 131/179/37 150/200/37 149/199/37
f 145/195/8 152/202/8 151/201/8
f 151/201/8 146/196/8 145/195/8
f 129/177/38 148/203/38 147/204/38
f 147/204/38 130/178/38 129/177/38
f 156/208/7 153/205/7 154/206/7
f 154/206/7 155/207/7 156/208/7
f 160/212/35 157/209/35 158/210/35
f 158/210/35 159/211/35 160/212/35
f 164/216/36 161/213/36 162/214/36
f 162/214/36 163/215/36 164/216/36
f 161/213/37 156/208/37 155/207/37
f 155/207/37 162/214/37 161/213/37
f 157/209/8 164/216/8 163/215/8
f 163/215/8 158/210/8 157/209/8
f 153/205/38 160/217/38 159/218/38
f 159/218/38 154/206/38 153/205/38
f 168/222/7 165/219/7 166/220/7
f 166/220/7 167/221/7 168/222/7
f 172/226/39 169/223/39 170/224/39
f 170/224/39 171/225/39 172/226/39
f 176/230/40 173/227/40 174/228/40
f 174/228/40 175/229/40 176/230/40
f 173/227/41 168/222/41 167/221/41
f 167/221/41 174/228/41 173/227/41
f 169/223/8 176/230/8 175/229/8
f 175/229/8 170/224/8 169/223/8
f 165/219/42 172/231/42 171/232/42
f 171/232/42 166/220/42 165/219/42
f 180/236/7 177/233/7 178/234/7
f 178/234/7 179/235/7 180/236/7
f 182/238/1 180/236/1 179/235/1
f 179/235/1 181/237/1 182/238/1
f 184/240/8 182/238/8 181/237/8
f 181/237/8 183/239/8 184/240/8
f 177/242/5 180/236/5 182/238/5
f 182/238/5 184/241/5 177/242/5
f 183/244/3 181/237/3 179/235/3
f 179/235/3 178/243/3 183/244/3
f 7/246/8 124/156/8 123/155/8
f 123/155/8 8/245/8 7/246/8
f 8/245/43 123/155/30 32/36/30
f 32/36/30 5/39/43 8/245/43
f 21/23/1 25/247/1 24/248/1
f 24/248/1 18/20/1 21/23/1
f 185/252/8 128/249/8 23/250/8
f 23/250/8 24/251/8 185/252/8
f 185/253/44 19/21/44 18/20/44
f 18/20/44 24/248/44 185/253/44
f 21/23/45 28/254/45 186/255/45
f 186/255/45 25/247/45 21/23/45
f 186/257/46 127/256/46 22/24/46
f 22/24/46 25/27/46 186/257/46
