# File produced by Open Asset Import Library (http://www.assimp.sf.net)
# (assimp v3.1.161429758)

mtllib Pillar(Metallic%20Standard).mtl

# vertex positions
v 0.112452 1.141081 -1.684843
v 0.112452 1.591545 -1.684843
v -0.095608 1.591545 -1.770304
v -0.095608 1.141081 -1.770304
v -0.159163 1.591545 -1.915204
v -0.159163 1.141081 -1.915204
v -0.095608 1.591545 -2.086754
v -0.095608 1.141081 -2.086754
v -0.157308 2.192672 -1.915013
v -0.135559 2.192672 -1.677907
v -0.135559 2.609810 -1.677907
v -0.163148 0.553903 -2.172215
v 0.112452 0.553903 -2.174675
v 0.112452 0.417189 -2.172215
v -0.163148 0.417189 -2.172215
v -0.139889 0.194749 -1.915159
v -0.159163 0.417189 -1.915204
v -0.095608 0.417189 -2.086754
v -0.095608 0.194749 -2.086754
v -0.159163 0.553903 -1.915204
v -0.159163 1.004367 -1.915204
v -0.095608 1.004367 -2.086754
v -0.095608 0.553903 -2.086754
v -0.095608 0.194749 -1.770304
v -0.095608 0.417189 -1.770304
v -0.095608 0.553903 -1.770304
v -0.095608 1.004367 -1.770304
v 0.112452 0.194749 -1.680832
v 0.112452 0.417189 -1.682382
v 0.112452 0.553903 -1.684843
v 0.112452 1.004367 -1.684843
v 0.112452 0.194749 -2.174675
v 0.112452 1.004367 -2.172215
v 0.112452 1.591545 -2.172215
v 0.112452 1.141081 -2.172215
v -0.163148 0.553903 -1.684843
v -0.163148 1.004367 -1.684843
v -0.163148 1.141081 -1.684843
v -0.163148 1.004367 -2.172215
v -0.163148 1.591545 -2.172215
v -0.159163 1.728259 -1.915204
v -0.095608 1.728259 -2.086754
v -0.163148 1.728259 -2.172215
v -0.163148 0.417189 -1.684843
v -0.163148 1.141081 -2.172215
v -0.163148 1.591545 -1.684843
v 0.112452 1.728259 -2.172215
v -0.163148 1.728259 -1.684843
v 0.112452 1.728259 -1.684843
v -0.095608 1.728259 -1.770304
v -0.133490 0.194749 -2.176226
v -0.133490 0.194749 -1.680832
v 0.112452 2.192672 -1.684022
v -0.095608 2.192672 -1.770304
v -0.181169 -0.140805 -1.903038
v -0.181169 0.026972 -1.903038
v -0.170244 0.026972 -2.253529
v -0.170244 -0.140805 -2.253529
v -0.170244 -0.140805 -1.603529
v -0.170244 0.026972 -1.603529
v 0.112452 -0.140805 -1.603529
v 0.112452 0.026972 -1.603529
v 0.112452 0.026972 -2.253529
v 0.112452 -0.140805 -2.253529
v -0.133490 0.026972 -2.176226
v 0.112452 0.026972 -2.176226
v 0.112452 0.026972 -1.680832
v -0.133490 0.026972 -1.680832
v -0.142187 0.026972 -1.910758
v -0.095608 2.192672 -2.086754
v -0.135559 2.192672 -2.179150
v 0.112452 2.192672 -2.173035
v -0.151355 2.609810 -2.224009
v -0.151355 2.859195 -2.224009
v 0.112452 2.859195 -2.224009
v 0.112452 2.609810 -2.224009
v -0.151355 2.609810 -1.633048
v 0.112452 2.609810 -1.677907
v 0.112452 2.609810 -1.633048
v -0.135559 2.609810 -2.179150
v 0.112452 2.859195 -1.633048
v -0.151355 2.859195 -1.633048
v 0.112452 2.192672 -1.677907
v 0.112452 2.609810 -2.179150
v 0.112452 2.192672 -2.179150
v 0.320513 1.141081 -1.770304
v 0.320513 1.591545 -1.770304
v 0.384068 1.141081 -1.915204
v 0.384068 1.591545 -1.915204
v 0.320513 1.141081 -2.086754
v 0.320513 1.591545 -2.086754
v 0.382212 2.192672 -1.915013
v 0.360464 2.609810 -1.677907
v 0.360464 2.192672 -1.677907
v 0.388053 0.553903 -2.172215
v 0.388053 0.417189 -2.172215
v 0.364794 0.194749 -1.915159
v 0.320513 0.194749 -2.086754
v 0.320513 0.417189 -2.086754
v 0.384068 0.417189 -1.915204
v 0.384068 0.553903 -1.915204
v 0.320513 0.553903 -2.086754
v 0.320513 1.004367 -2.086754
v 0.384068 1.004367 -1.915204
v 0.320513 0.194749 -1.770304
v 0.320513 0.417189 -1.770304
v 0.320513 0.553903 -1.770304
v 0.320513 1.004367 -1.770304
v 0.388053 0.553903 -1.684843
v 0.388053 1.004367 -1.684843
v 0.388053 1.141081 -1.684843
v 0.388053 1.004367 -2.172215
v 0.388053 1.591545 -2.172215
v 0.384068 1.728259 -1.915204
v 0.388053 1.728259 -2.172215
v 0.320513 1.728259 -2.086754
v 0.388053 0.417189 -1.684843
v 0.388053 1.141081 -2.172215
v 0.388053 1.591545 -1.684843
v 0.388053 1.728259 -1.684843
v 0.320513 1.728259 -1.770304
v 0.358395 0.194749 -2.176226
v 0.358395 0.194749 -1.680832
v 0.320513 2.192672 -1.770304
v 0.406074 -0.140805 -1.903038
v 0.395148 -0.140805 -2.253529
v 0.395148 0.026972 -2.253529
v 0.406074 0.026972 -1.903038
v 0.395148 -0.140805 -1.603529
v 0.395148 0.026972 -1.603529
v 0.358395 0.026972 -2.176226
v 0.358395 0.026972 -1.680832
v 0.367092 0.026972 -1.910758
v 0.320513 2.192672 -2.086754
v 0.360464 2.192672 -2.179150
v 0.376260 2.609810 -2.224009
v 0.376260 2.859195 -2.224009
v 0.376260 2.609810 -1.633048
v 0.360464 2.609810 -2.179150
v 0.376260 2.859195 -1.633048

# UV coordinates
vt 0.325456 0.900562
vt 0.198156 0.900562
vt 0.198156 0.836998
vt 0.325456 0.836998
vt 0.198156 0.792284
vt 0.325456 0.792284
vt 0.198156 0.740584
vt 0.325456 0.740584
vt 0.149201 0.421914
vt 0.147341 0.492878
vt 0.042238 0.526619
vt 0.873015 0.204718
vt 0.884398 0.271618
vt 0.832067 0.271618
vt 0.850301 0.202991
vt 0.887899 0.880799
vt 0.824817 0.882149
vt 0.825252 0.830451
vt 0.888112 0.830719
vt 0.693573 0.555362
vt 0.820872 0.555629
vt 0.820764 0.607329
vt 0.693464 0.607062
vt 0.890109 0.923548
vt 0.827332 0.926792
vt 0.693666 0.510648
vt 0.820966 0.510916
vt 0.893414 0.987466
vt 0.830626 0.990539
vt 0.693800 0.447084
vt 0.821100 0.447351
vt 0.825522 0.766887
vt 0.888387 0.766887
vt 0.820630 0.670893
vt 0.693328 0.670893
vt 0.198156 0.677020
vt 0.325456 0.677020
vt 0.915046 0.078200
vt 0.899014 0.138350
vt 0.888623 0.070152
vt 0.401530 0.922225
vt 0.393469 0.999685
vt 0.375780 0.927934
vt 0.340235 1.000000
vt 0.327008 0.927394
vt 0.353605 0.932437
vt 0.385888 0.726739
vt 0.398360 0.798036
vt 0.372608 0.792768
vt 0.987949 0.344559
vt 0.982185 0.413098
vt 0.962198 0.339291
vt 0.923258 0.412387
vt 0.915046 0.349518
vt 0.940138 0.343617
vt 0.840066 0.071761
vt 0.853649 0.000458
vt 0.865772 0.068700
vt 0.325456 0.802995
vt 0.333404 0.726739
vt 0.350548 0.797094
vt 0.906675 0.000000
vt 0.392596 0.866576
vt 0.824817 0.194738
vt 0.333669 0.865864
vt 0.991120 0.468748
vt 0.965370 0.474456
vt 0.922994 0.273261
vt 0.975477 0.273261
vt 0.841057 0.127699
vt 0.943195 0.478959
vt 0.929825 0.546523
vt 0.983059 0.546208
vt 0.916598 0.473917
vt 0.898139 0.201493
vt 0.529203 0.592324
vt 0.514547 0.660493
vt 0.505006 0.596280
vt 0.561699 0.543443
vt 0.589932 0.493011
vt 0.591624 0.513309
vt 0.693575 0.000000
vt 0.824817 0.000210
vt 0.824672 0.063862
vt 0.693431 0.063564
vt 0.300265 0.048810
vt 0.335167 0.092372
vt 0.257712 0.154217
vt 0.214451 0.127783
vt 0.379002 0.000000
vt 0.387794 0.040450
vt 0.451466 0.006044
vt 0.447879 0.049051
vt 0.261253 0.226739
vt 0.198156 0.226739
vt 0.461859 0.573837
vt 0.451466 0.660493
vt 0.634258 0.445734
vt 0.641878 0.487783
vt 0.572619 0.456904
vt 0.519676 0.505773
vt 0.278439 0.153730
vt 0.283609 0.226739
vt 0.340895 0.102067
vt 0.444820 0.067643
vt 0.385667 0.057912
vt 0.824571 0.108319
vt 0.693328 0.108278
vt 0.824606 0.159889
vt 0.693364 0.159978
vt 0.127818 0.364311
vt 0.103763 0.358277
vt 0.824649 0.223542
vt 0.693407 0.223542
vt 0.513419 0.274208
vt 0.453573 0.294230
vt 0.451466 0.222866
vt 0.516280 0.222867
vt 0.617506 0.360555
vt 0.612849 0.350105
vt 0.683247 0.329732
vt 0.686931 0.342465
vt 0.521947 0.276200
vt 0.693328 0.445734
vt 0.581027 0.435754
vt 0.002316 0.375603
vt 0.197013 0.534340
vt 0.081757 0.606322
vt 0.000000 0.303161
vt 0.112352 0.303161
vt 0.164299 0.473248
vt 0.113955 0.303161
vt 0.198156 0.532871
vt 0.525801 0.222867
vt 0.325456 0.453477
vt 0.325456 0.517042
vt 0.198156 0.517042
vt 0.198156 0.453477
vt 0.325456 0.561756
vt 0.198156 0.561756
vt 0.325456 0.613455
vt 0.198156 0.613455
vt 0.149201 0.184408
vt 0.042238 0.079703
vt 0.147341 0.113443
vt 0.873014 0.338518
vt 0.850301 0.340245
vt 0.887899 0.652976
vt 0.888112 0.703056
vt 0.825252 0.703324
vt 0.824817 0.651626
vt 0.693573 0.786424
vt 0.693464 0.734725
vt 0.820764 0.734457
vt 0.820872 0.786157
vt 0.890109 0.610227
vt 0.827332 0.606983
vt 0.693667 0.831138
vt 0.820966 0.830871
vt 0.893414 0.546309
vt 0.830626 0.543236
vt 0.693800 0.894702
vt 0.821100 0.894435
vt 0.915046 0.465036
vt 0.888623 0.473084
vt 0.899014 0.404886
vt 0.401530 0.531253
vt 0.375780 0.525544
vt 0.393469 0.453792
vt 0.340234 0.453477
vt 0.353605 0.521041
vt 0.327008 0.526083
vt 0.372608 0.660709
vt 0.398360 0.655442
vt 0.987949 0.201964
vt 0.962198 0.207232
vt 0.982185 0.133425
vt 0.923258 0.134136
vt 0.940138 0.202906
vt 0.915046 0.197005
vt 0.840066 0.471475
vt 0.865772 0.474536
vt 0.853649 0.542778
vt 0.325456 0.650482
vt 0.350548 0.656384
vt 0.906675 0.543236
vt 0.392596 0.586902
vt 0.824817 0.348498
vt 0.333669 0.587614
vt 0.965370 0.072067
vt 0.991120 0.077775
vt 0.841057 0.415537
vt 0.943195 0.067563
vt 0.929824 0.000000
vt 0.983059 0.000314
vt 0.916598 0.072606
vt 0.898139 0.341743
vt 0.529203 0.728662
vt 0.505006 0.724706
vt 0.561699 0.777543
vt 0.591624 0.807677
vt 0.589932 0.827975
vt 0.693575 0.447084
vt 0.693431 0.383520
vt 0.824672 0.383222
vt 0.824817 0.446874
vt 0.300265 0.404668
vt 0.214451 0.325694
vt 0.257712 0.299260
vt 0.335167 0.361105
vt 0.379002 0.453477
vt 0.387794 0.413027
vt 0.451466 0.447433
vt 0.447879 0.404427
vt 0.461859 0.747149
vt 0.634259 0.875252
vt 0.572619 0.864082
vt 0.641878 0.833202
vt 0.519676 0.815213
vt 0.278439 0.299748
vt 0.340895 0.351410
vt 0.385667 0.395565
vt 0.444820 0.385834
vt 0.693328 0.338806
vt 0.824571 0.338765
vt 0.693364 0.287106
vt 0.824606 0.287195
vt 0.127818 0.242011
vt 0.103763 0.248045
vt 0.513419 0.171525
vt 0.453574 0.151503
vt 0.617506 0.085178
vt 0.686931 0.103269
vt 0.683246 0.116002
vt 0.612849 0.095629
vt 0.521947 0.169533
vt 0.581027 0.009979
vt 0.693328 0.000000
vt 0.002316 0.230719
vt 0.197013 0.071981
vt 0.081757 0.000000
vt 0.164299 0.133074
vt 0.198156 0.073451

# vertex normals
vn -0.379948 0.000000 0.925008
vn -0.915784 0.000000 0.401672
vn -0.937718 0.000000 -0.347398
vn -0.995820 0.000000 0.091341
vn -0.004464 -0.008999 -0.999950
vn -0.953187 -0.041325 -0.299545
vn -0.936431 -0.040534 0.348502
vn -0.915784 0.000000 0.401672
vn -0.392154 0.003205 0.919894
vn -0.384609 0.005106 -0.923065
vn -0.384613 0.002521 -0.923075
vn -0.379948 0.000000 -0.925008
vn 0.000002 1.000000 0.000000
vn 0.000000 -1.000000 0.000000
vn 0.000000 1.000000 0.000000
vn -0.000004 -1.000000 0.000000
vn 0.000004 1.000000 0.000000
vn -0.000001 -1.000000 0.000002
vn 0.000000 1.000000 0.000000
vn 0.000000 1.000000 -0.000001
vn -0.000000 -1.000000 -0.000002
vn 0.000002 1.000000 0.000000
vn 0.000000 0.000000 -1.000000
vn -0.999880 0.000000 0.015505
vn -0.999880 0.000000 0.015505
vn -0.999850 0.000000 -0.017298
vn -0.999850 0.000000 -0.017298
vn -0.999850 0.000000 -0.017298
vn -0.004464 0.009000 0.999950
vn 0.000000 0.000000 1.000000
vn -0.000001 -1.000000 0.000000
vn 0.000003 1.000000 -0.000000
vn -0.000002 -1.000000 -0.000000
vn 0.000001 1.000000 0.000001
vn -0.000001 1.000000 -0.000001
vn -0.000001 1.000000 0.000000
vn -0.381507 -0.000816 0.924366
vn -0.999514 0.000000 -0.031158
vn -0.999335 0.000000 0.036455
vn 0.003151 0.004619 -0.999984
vn -0.999445 0.007272 0.032500
vn -0.999568 0.006470 -0.028660
vn -0.000003 1.000000 -0.000000
vn -0.000000 1.000000 0.000001
vn 0.000000 1.000000 0.000000
vn -0.917835 0.001752 0.396957
vn -0.939421 0.001947 -0.342759
vn -0.381507 -0.000816 -0.924366
vn -0.996627 0.000000 -0.082060
vn -0.000003 -1.000000 0.000000
vn -0.998644 0.052067 0.000000
vn 0.000001 -1.000000 0.000000
vn -1.000000 0.000000 0.000000
vn 0.379948 0.000000 0.925008
vn 0.915784 0.000000 0.401672
vn 0.937718 0.000000 -0.347398
vn 0.995820 0.000000 0.091341
vn 0.004464 -0.008999 -0.999950
vn 0.953187 -0.041325 -0.299545
vn 0.936431 -0.040534 0.348502
vn 0.915784 0.000000 0.401672
vn 0.392154 0.003205 0.919894
vn 0.379948 0.000000 0.925008
vn 0.384609 0.005106 -0.923065
vn 0.384613 0.002521 -0.923075
vn 0.379948 0.000000 -0.925008
vn -0.000002 1.000000 0.000000
vn 0.000004 -1.000000 0.000000
vn -0.000004 1.000000 0.000000
vn 0.000001 -1.000000 0.000002
vn 0.000000 -1.000000 -0.000002
vn -0.000002 1.000000 0.000000
vn 0.999880 0.000000 0.015505
vn 0.999880 0.000000 0.015505
vn 0.999850 0.000000 -0.017298
vn 0.999850 0.000000 -0.017298
vn 0.999850 0.000000 -0.017298
vn 0.004464 0.009000 0.999950
vn 0.000001 -1.000000 0.000000
vn -0.000003 1.000000 -0.000000
vn 0.000002 -1.000000 -0.000000
vn -0.000001 1.000000 0.000001
vn 0.000001 1.000000 -0.000001
vn 0.000001 1.000000 0.000000
vn 0.381507 -0.000816 0.924366
vn 0.999514 0.000000 -0.031158
vn 0.999335 0.000000 0.036455
vn -0.003151 0.004619 -0.999984
vn 0.999445 0.007272 0.032500
vn 0.999568 0.006470 -0.028660
vn 0.000003 1.000000 -0.000000
vn 0.000000 1.000000 0.000001
vn -0.000000 1.000000 0.000000
vn -0.000000 1.000000 0.000000
vn 0.917835 0.001752 0.396957
vn 0.939421 0.001947 -0.342759
vn 0.381507 -0.000816 -0.924366
vn 0.000005 -1.000000 0.000000
vn 0.996627 0.000000 -0.082060
vn 0.000003 -1.000000 0.000000
vn 0.998644 0.052067 0.000000
vn -0.000001 -1.000000 0.000000
vn 1.000000 0.000000 0.000000

# Mesh
g Cylinder.006
usemtl DefaultMaterial
f 4/4/1 1/1/1 2/2/1
f 2/2/1 3/3/1 4/4/1
f 6/6/2 4/4/2 3/3/2
f 3/3/2 5/5/2 6/6/2
f 8/8/3 6/6/3 5/5/3
f 5/5/3 7/7/3 8/8/3
f 9/9/4 10/10/4 11/11/4
f 15/15/5 12/12/5 13/13/5
f 13/13/5 14/14/5 15/15/5
f 19/19/6 16/16/6 17/17/6
f 17/17/6 18/18/6 19/19/6
f 23/23/3 20/20/3 21/21/3
f 21/21/3 22/22/3 23/23/3
f 16/16/7 24/24/7 25/25/7
f 25/25/7 17/17/7 16/16/7
f 20/20/8 26/26/8 27/27/8
f 27/27/8 21/21/8 20/20/8
f 24/24/9 28/28/9 29/29/9
f 29/29/9 25/25/9 24/24/9
f 26/26/1 30/30/1 31/31/1
f 31/31/1 27/27/1 26/26/1
f 32/33/10 19/19/10 18/18/10
f 18/18/10 14/32/10 32/33/10
f 13/35/11 23/23/11 22/22/11
f 22/22/11 33/34/11 13/35/11
f 35/37/12 8/8/12 7/7/12
f 7/7/12 34/36/12 35/37/12
f 26/38/13 20/39/13 36/40/13
f 27/41/14 31/42/14 37/43/14
f 1/44/15 4/45/15 38/46/15
f 33/47/14 22/48/14 39/49/14
f 7/50/16 5/51/16 40/52/16
f 41/53/17 42/54/17 43/55/17
f 25/56/18 29/57/18 44/58/18
f 8/59/19 35/60/19 45/61/19
f 30/62/20 26/38/20 36/40/20
f 22/48/14 21/63/14 39/49/14
f 14/14/21 18/64/21 15/15/21
f 6/65/22 8/59/22 45/61/22
f 5/51/14 3/66/14 46/67/14
f 39/49/23 45/61/23 35/60/23
f 35/60/23 33/47/23 39/49/23
f 40/52/23 43/55/23 47/68/23
f 47/68/23 34/69/23 40/52/23
f 17/70/24 20/39/24 12/12/24
f 12/12/24 15/15/24 17/70/24
f 21/63/25 6/65/25 45/61/25
f 45/61/25 39/49/25 21/63/25
f 5/51/25 41/53/25 43/55/25
f 43/55/25 40/52/25 5/51/25
f 44/58/26 36/40/26 20/39/26
f 20/39/26 17/70/26 44/58/26
f 37/43/27 38/46/27 6/65/27
f 6/65/27 21/63/27 37/43/27
f 46/67/28 48/71/28 41/53/28
f 41/53/28 5/51/28 46/67/28
f 29/57/29 30/62/29 36/40/29
f 36/40/29 44/58/29 29/57/29
f 31/42/30 1/44/30 38/46/30
f 38/46/30 37/43/30 31/42/30
f 2/73/30 49/72/30 48/71/30
f 48/71/30 46/67/30 2/73/30
f 42/54/15 47/68/15 43/55/15
f 17/70/31 25/56/31 44/58/31
f 49/72/15 50/74/15 48/71/15
f 34/69/14 7/50/14 40/52/14
f 3/66/14 2/73/14 46/67/14
f 4/45/15 6/65/15 38/46/15
f 21/63/14 27/41/14 37/43/14
f 20/39/32 23/75/32 12/12/32
f 18/64/33 17/70/33 15/15/33
f 23/75/34 13/13/34 12/12/34
f 50/74/15 41/53/15 48/71/15
f 19/76/35 32/77/35 51/78/35
f 16/79/36 52/80/36 24/81/36
f 50/85/37 49/82/37 53/83/37
f 53/83/37 54/84/37 50/85/37
f 58/89/38 55/86/38 56/87/38
f 56/87/38 57/88/38 58/89/38
f 55/86/39 59/90/39 60/91/39
f 60/91/39 56/87/39 55/86/39
f 59/90/30 61/92/30 62/93/30
f 62/93/30 60/91/30 59/90/30
f 64/95/23 58/89/23 57/88/23
f 57/88/23 63/94/23 64/95/23
f 66/97/40 65/96/40 51/78/40
f 51/78/40 32/77/40 66/97/40
f 68/100/30 67/98/30 28/99/30
f 28/99/30 52/80/30 68/100/30
f 69/101/41 68/100/41 52/80/41
f 52/80/41 16/79/41 69/101/41
f 65/96/42 69/101/42 16/79/42
f 16/79/42 51/78/42 65/96/42
f 19/76/43 51/78/43 16/79/43
f 66/103/15 63/94/15 57/88/15
f 57/88/15 65/102/15 66/103/15
f 24/81/44 52/80/44 28/99/44
f 65/102/15 57/88/15 56/87/15
f 56/87/15 69/104/15 65/102/15
f 68/106/15 60/91/15 62/93/15
f 62/93/15 67/105/15 68/106/15
f 69/104/45 56/87/45 60/91/45
f 60/91/45 68/106/45 69/104/45
f 41/108/46 50/85/46 54/84/46
f 54/84/46 9/107/46 41/108/46
f 42/110/47 41/108/47 9/107/47
f 9/107/47 70/109/47 42/110/47
f 70/111/14 9/9/14 71/112/14
f 47/114/48 42/110/48 70/109/48
f 70/109/48 72/113/48 47/114/48
f 76/118/23 73/115/23 74/116/23
f 74/116/23 75/117/23 76/118/23
f 79/122/14 77/119/14 11/120/14
f 11/120/14 78/121/14 79/122/14
f 73/115/14 80/123/14 11/120/14
f 11/120/14 77/119/14 73/115/14
f 77/119/30 79/122/30 81/124/30
f 81/124/30 82/125/30 77/119/30
f 80/126/49 71/112/49 9/9/49
f 10/10/30 83/127/30 78/128/30
f 78/128/30 11/11/30 10/10/30
f 85/130/23 71/112/23 80/126/23
f 80/126/23 84/129/23 85/130/23
f 9/9/50 54/131/50 10/10/50
f 85/130/14 72/132/14 70/111/14
f 70/111/14 71/112/14 85/130/14
f 80/126/51 9/9/51 11/11/51
f 10/10/52 54/131/52 53/133/52
f 53/133/52 83/127/52 10/10/52
f 73/115/53 77/119/53 82/125/53
f 82/125/53 74/116/53 73/115/53
f 73/115/14 76/118/14 84/134/14
f 84/134/14 80/123/14 73/115/14
f 2/138/54 1/135/54 86/136/54
f 86/136/54 87/137/54 2/138/54
f 87/137/55 86/136/55 88/139/55
f 88/139/55 89/140/55 87/137/55
f 89/140/56 88/139/56 90/141/56
f 90/141/56 91/142/56 89/140/56
f 92/143/57 93/144/57 94/145/57
f 13/13/58 95/146/58 96/147/58
f 96/147/58 14/14/58 13/13/58
f 100/151/59 97/148/59 98/149/59
f 98/149/59 99/150/59 100/151/59
f 104/155/56 101/152/56 102/153/56
f 102/153/56 103/154/56 104/155/56
f 106/157/60 105/156/60 97/148/60
f 97/148/60 100/151/60 106/157/60
f 108/159/61 107/158/61 101/152/61
f 101/152/61 104/155/61 108/159/61
f 29/161/62 28/160/62 105/156/62
f 105/156/62 106/157/62 29/161/62
f 31/163/63 30/162/63 107/158/63
f 107/158/63 108/159/63 31/163/63
f 99/150/64 98/149/64 32/33/64
f 32/33/64 14/32/64 99/150/64
f 103/154/65 102/153/65 13/35/65
f 13/35/65 33/34/65 103/154/65
f 91/142/66 90/141/66 35/37/66
f 35/37/66 34/36/66 91/142/66
f 107/164/67 109/165/67 101/166/67
f 108/167/14 110/168/14 31/169/14
f 1/170/15 111/171/15 86/172/15
f 33/47/14 112/173/14 103/174/14
f 91/175/68 113/176/68 89/177/68
f 114/178/69 115/179/69 116/180/69
f 106/181/70 117/182/70 29/183/70
f 90/184/19 118/185/19 35/60/19
f 30/186/20 109/165/20 107/164/20
f 103/174/14 112/173/14 104/187/14
f 14/14/71 96/147/71 99/188/71
f 88/189/72 118/185/72 90/184/72
f 89/177/14 119/190/14 87/191/14
f 35/60/23 118/185/23 112/173/23
f 112/173/23 33/47/23 35/60/23
f 47/68/23 115/179/23 113/176/23
f 113/176/23 34/69/23 47/68/23
f 95/146/73 101/166/73 100/192/73
f 100/192/73 96/147/73 95/146/73
f 118/185/74 88/189/74 104/187/74
f 104/187/74 112/173/74 118/185/74
f 115/179/74 114/178/74 89/177/74
f 89/177/74 113/176/74 115/179/74
f 101/166/75 109/165/75 117/182/75
f 117/182/75 100/192/75 101/166/75
f 88/189/76 111/171/76 110/168/76
f 110/168/76 104/187/76 88/189/76
f 114/178/77 120/193/77 119/190/77
f 119/190/77 89/177/77 114/178/77
f 109/165/78 30/186/78 29/183/78
f 29/183/78 117/182/78 109/165/78
f 111/171/30 1/170/30 31/169/30
f 31/169/30 110/168/30 111/171/30
f 120/193/30 49/194/30 2/195/30
f 2/195/30 119/190/30 120/193/30
f 116/180/15 115/179/15 47/68/15
f 100/192/79 117/182/79 106/181/79
f 49/194/15 120/193/15 121/196/15
f 34/69/14 113/176/14 91/175/14
f 87/191/14 119/190/14 2/195/14
f 86/172/15 111/171/15 88/189/15
f 104/187/14 110/168/14 108/167/14
f 101/166/80 95/146/80 102/197/80
f 99/188/81 96/147/81 100/192/81
f 102/197/82 95/146/82 13/13/82
f 121/196/15 120/193/15 114/178/15
f 98/198/83 122/199/83 32/77/83
f 97/200/84 105/201/84 123/202/84
f 53/206/85 49/203/85 121/204/85
f 121/204/85 124/205/85 53/206/85
f 128/210/86 125/207/86 126/208/86
f 126/208/86 127/209/86 128/210/86
f 130/212/87 129/211/87 125/207/87
f 125/207/87 128/210/87 130/212/87
f 62/214/30 61/213/30 129/211/30
f 129/211/30 130/212/30 62/214/30
f 127/209/23 126/208/23 64/95/23
f 64/95/23 63/94/23 127/209/23
f 122/199/88 131/215/88 66/97/88
f 66/97/88 32/77/88 122/199/88
f 28/218/30 67/216/30 132/217/30
f 132/217/30 123/202/30 28/218/30
f 123/202/89 132/217/89 133/219/89
f 133/219/89 97/200/89 123/202/89
f 97/200/90 133/219/90 131/215/90
f 131/215/90 122/199/90 97/200/90
f 98/198/91 97/200/91 122/199/91
f 127/209/15 63/94/15 66/103/15
f 66/103/15 131/220/15 127/209/15
f 105/201/92 28/218/92 123/202/92
f 128/210/93 127/209/93 131/220/93
f 131/220/93 133/221/93 128/210/93
f 62/214/15 130/212/15 132/222/15
f 132/222/15 67/223/15 62/214/15
f 130/212/94 128/210/94 133/221/94
f 133/221/94 132/222/94 130/212/94
f 124/205/95 121/204/95 114/224/95
f 114/224/95 92/225/95 124/205/95
f 92/225/96 114/224/96 116/226/96
f 116/226/96 134/227/96 92/225/96
f 134/228/14 135/229/14 92/143/14
f 134/227/97 116/226/97 47/114/97
f 47/114/97 72/113/97 134/227/97
f 137/231/23 136/230/23 76/118/23
f 76/118/23 75/117/23 137/231/23
f 93/235/14 138/232/14 79/233/14
f 79/233/14 78/234/14 93/235/14
f 93/235/98 139/236/98 136/230/98
f 136/230/98 138/232/98 93/235/98
f 81/238/30 79/233/30 138/232/30
f 138/232/30 140/237/30 81/238/30
f 139/239/99 92/143/99 135/229/99
f 78/241/30 83/240/30 94/145/30
f 94/145/30 93/144/30 78/241/30
f 139/239/23 135/229/23 85/130/23
f 85/130/23 84/129/23 139/239/23
f 92/143/100 94/145/100 124/242/100
f 134/228/14 72/132/14 85/130/14
f 85/130/14 135/229/14 134/228/14
f 139/239/101 93/144/101 92/143/101
f 53/243/102 124/242/102 94/145/102
f 94/145/102 83/240/102 53/243/102
f 140/237/103 138/232/103 136/230/103
f 136/230/103 137/231/103 140/237/103
f 84/134/14 76/118/14 136/230/14
f 136/230/14 139/236/14 84/134/14
