# File produced by Open Asset Import Library (http://www.assimp.sf.net)
# (assimp v3.1.161429758)

mtllib walls%201.mtl

# vertex positions
v 0.019905 1.345247 -4.932408
v 0.019905 1.545119 -4.932408
v -0.096215 1.528907 -4.932408
v -0.096215 1.345247 -4.932408
v -0.096215 1.345247 -5.197597
v -0.096215 1.528907 -5.197597
v 0.019905 1.545119 -5.197597
v 0.019905 1.345247 -5.197597
v 0.042584 1.929034 -5.497360
v 0.042584 2.155118 -5.456974
v -0.118894 2.136780 -5.460250
v -0.118894 1.929034 -5.497360
v -0.118894 2.049598 -5.797327
v -0.118894 2.257343 -5.760216
v 0.042584 2.275681 -5.756940
v 0.042584 2.049598 -5.797327
v 0.023900 1.080913 -5.238289
v 0.023900 1.314081 -5.251889
v -0.137579 1.295168 -5.250786
v -0.137579 1.080913 -5.238289
v -0.137579 1.040314 -5.547656
v -0.137579 1.254569 -5.560152
v 0.023900 1.273482 -5.561255
v 0.023900 1.040314 -5.547656
v 0.042584 2.291966 -4.416372
v 0.042584 2.193048 -4.557791
v -0.118894 2.201072 -4.546320
v -0.118894 2.291966 -4.416372
v -0.118894 1.869787 -4.285129
v -0.118894 1.778893 -4.415077
v 0.042584 1.770870 -4.426548
v 0.042584 1.869787 -4.285129
v 0.019905 1.887210 -4.932408
v 0.019905 2.087082 -4.932408
v -0.096215 2.070870 -4.932408
v -0.096215 1.887210 -4.932408
v -0.096215 1.887210 -5.197597
v -0.096215 2.070870 -5.197597
v 0.019905 2.087082 -5.197597
v 0.019905 1.887210 -5.197597
v 0.011456 0.693205 -5.194353
v 0.011456 0.861187 -5.266559
v -0.104664 0.847562 -5.260702
v -0.104664 0.693205 -5.194353
v -0.104664 0.477648 -5.417230
v -0.104664 0.632005 -5.483580
v 0.011456 0.645630 -5.489437
v 0.011456 0.477648 -5.417230
v -0.010941 0.596664 -4.285180
v -0.010941 0.764646 -4.357386
v -0.127061 0.751020 -4.351530
v -0.127061 0.596664 -4.285180
v -0.127061 0.381107 -4.508058
v -0.127061 0.535463 -4.574407
v -0.010941 0.549089 -4.580264
v -0.010941 0.381107 -4.508058
v 0.050764 1.265680 -4.391428
v 0.050764 1.509783 -4.413756
v -0.127074 1.489983 -4.411945
v -0.127074 1.265680 -4.391428
v -0.127074 1.199023 -4.715302
v -0.127074 1.423326 -4.735819
v 0.050764 1.443126 -4.737630
v 0.050764 1.199023 -4.715302
v 0.019905 1.641584 -5.893730
v 0.019905 1.441857 -5.898815
v -0.096215 1.458058 -5.898403
v -0.096215 1.641584 -5.893730
v -0.096215 1.626401 -5.628733
v -0.096215 1.442875 -5.633407
v 0.019905 1.426675 -5.633819
v 0.019905 1.626401 -5.628733
v -0.070275 2.542993 -4.100749
v -0.070275 2.542993 -6.100749
v -0.070275 0.325204 -6.100749
v -0.070275 0.325204 -4.100749
v -0.153397 0.325204 -4.100749
v -0.153397 0.325204 -6.100749
v -0.153397 0.016215 -6.100749
v -0.153397 0.016215 -4.100749
v -0.153396 3.016215 -4.100749
v -0.153396 3.016215 -6.100749
v -0.153396 2.542993 -6.100749
v -0.153396 2.542993 -4.100749
v -0.070275 0.016215 -4.100749
v -0.070275 0.016215 -6.100749
v -0.070275 3.016215 -6.100749
v -0.070275 3.016215 -4.100749

# UV coordinates
vt 0.915174 0.356622
vt 0.962327 0.356622
vt 0.958502 0.397713
vt 0.915174 0.397713
vt 0.915174 0.491556
vt 0.958502 0.491556
vt 0.962327 0.532647
vt 0.915174 0.532647
vt 0.874083 0.491556
vt 0.874083 0.397713
vt 0.999771 0.491556
vt 0.999771 0.397713
vt 0.765568 0.180139
vt 0.820786 0.180139
vt 0.816307 0.237281
vt 0.765568 0.237281
vt 0.765568 0.347175
vt 0.816307 0.347175
vt 0.820786 0.404317
vt 0.765568 0.404317
vt 0.708426 0.347175
vt 0.708426 0.237281
vt 0.873624 0.347175
vt 0.873624 0.237281
vt 0.708426 0.737468
vt 0.708426 0.682251
vt 0.765568 0.686730
vt 0.765568 0.737468
vt 0.875462 0.737468
vt 0.875462 0.686730
vt 0.932604 0.682251
vt 0.932604 0.737468
vt 0.875462 0.794611
vt 0.765568 0.794611
vt 0.875462 0.629412
vt 0.765568 0.629412
vt 0.765568 0.404776
vt 0.820786 0.404776
vt 0.816307 0.461918
vt 0.765568 0.461918
vt 0.765568 0.571811
vt 0.816307 0.571811
vt 0.820786 0.628954
vt 0.765568 0.628954
vt 0.708426 0.571811
vt 0.708426 0.461918
vt 0.873624 0.571811
vt 0.873624 0.461918
vt 0.000229 0.910679
vt 0.000229 0.863527
vt 0.041320 0.867351
vt 0.041321 0.910679
vt 0.135163 0.910679
vt 0.135163 0.867351
vt 0.176254 0.863526
vt 0.176254 0.910679
vt 0.135163 0.951770
vt 0.041321 0.951770
vt 0.135163 0.826082
vt 0.041320 0.826082
vt 0.875663 0.795069
vt 0.922816 0.795070
vt 0.918991 0.836161
vt 0.875663 0.836161
vt 0.875663 0.930003
vt 0.918991 0.930003
vt 0.922816 0.971094
vt 0.875663 0.971094
vt 0.834572 0.930003
vt 0.834572 0.836161
vt 0.960260 0.930003
vt 0.960260 0.836161
vt 0.749517 0.795069
vt 0.796669 0.795069
vt 0.792845 0.836161
vt 0.749517 0.836161
vt 0.749517 0.930003
vt 0.792845 0.930003
vt 0.796669 0.971094
vt 0.749517 0.971094
vt 0.708426 0.930003
vt 0.708426 0.836161
vt 0.834114 0.930003
vt 0.834114 0.836161
vt 0.708426 0.116749
vt 0.708426 0.058622
vt 0.771357 0.063337
vt 0.771357 0.116749
vt 0.887040 0.116749
vt 0.887040 0.063337
vt 0.949971 0.058622
vt 0.949971 0.116749
vt 0.887040 0.179680
vt 0.771357 0.179680
vt 0.887040 0.000229
vt 0.771357 0.000229
vt 0.958679 0.356164
vt 0.911527 0.356164
vt 0.915352 0.315072
vt 0.958679 0.315072
vt 0.958679 0.221230
vt 0.915352 0.221230
vt 0.911527 0.180139
vt 0.958679 0.180139
vt 0.999771 0.221230
vt 0.999771 0.315072
vt 0.874083 0.221230
vt 0.874083 0.315072
vt 0.707967 0.655156
vt 0.000229 0.655156
vt 0.000229 0.131952
vt 0.707967 0.131952
vt 0.707967 0.102538
vt 0.000229 0.102538
vt 0.000229 0.029643
vt 0.707967 0.029644
vt 0.707967 0.796210
vt 0.000229 0.796210
vt 0.000229 0.684571
vt 0.707967 0.684571
vt 0.707967 0.000230
vt 0.000229 0.000229
vt 0.000229 0.825624
vt 0.707967 0.825624

# vertex normals
vn 0.000000 -0.707107 0.707107
vn -0.102183 0.731885 0.673723
vn -0.611854 0.532364 0.584998
vn -0.577350 -0.577350 0.577350
vn -0.577350 -0.577350 -0.577350
vn -0.611854 0.532364 -0.584998
vn -0.102183 0.731885 -0.673723
vn 0.000000 -0.707107 -0.707107
vn -0.000000 -0.874723 0.484623
vn -0.075588 0.512835 0.855153
vn -0.614604 0.356277 0.703796
vn -0.567311 -0.720337 0.399089
vn -0.588926 -0.391666 -0.706939
vn -0.599016 0.685102 -0.414507
vn -0.091512 0.886751 -0.453099
vn 0.000000 -0.484624 -0.874723
vn -0.000000 -0.637327 0.770593
vn -0.088295 0.789303 0.607622
vn -0.604014 0.593716 0.531666
vn -0.581244 -0.518612 0.627055
vn -0.573647 -0.631195 -0.522036
vn -0.609451 0.481099 -0.630169
vn -0.082602 0.661800 -0.745116
vn -0.000001 -0.770593 -0.637327
vn 0.000000 0.946200 0.323584
vn -0.052829 0.298954 -0.952804
vn -0.613667 0.275533 -0.739929
vn -0.562820 0.782109 0.267468
vn -0.595361 -0.259987 0.760231
vn -0.587878 -0.772370 -0.240508
vn -0.071070 -0.935484 -0.346148
vn 0.000000 -0.323585 0.946199
vn -0.102181 0.731885 0.673724
vn -0.611854 0.532365 0.584998
vn -0.577350 -0.577350 -0.577350
vn -0.611854 0.532365 -0.584998
vn -0.102181 0.731885 -0.673723
vn 0.000000 -0.707106 -0.707107
vn -0.000001 -0.196772 0.980449
vn -0.106973 0.981057 0.161505
vn -0.597760 0.778878 0.189824
vn -0.598861 -0.157585 0.785195
vn -0.560636 -0.811873 -0.162938
vn -0.624211 0.123565 -0.771422
vn -0.076092 0.231593 -0.969832
vn -0.000000 -0.980450 -0.196770
vn -0.000001 -0.196772 0.980449
vn -0.106972 0.981057 0.161505
vn -0.597759 0.778878 0.189824
vn -0.598861 -0.157585 0.785195
vn -0.560636 -0.811873 -0.162939
vn -0.624210 0.123565 -0.771423
vn -0.076091 0.231594 -0.969832
vn -0.000000 -0.980449 -0.196771
vn -0.000000 -0.595831 0.803110
vn -0.085463 0.819454 0.566737
vn -0.601244 0.623535 0.499710
vn -0.583456 -0.483901 0.652241
vn -0.571700 -0.658921 -0.488858
vn -0.609821 0.448445 -0.653465
vn -0.077045 0.620629 -0.780310
vn 0.000000 -0.803110 -0.595832
vn 0.000000 0.735729 -0.677276
vn -0.100654 -0.703555 -0.703476
vn -0.612959 -0.507268 -0.605773
vn -0.575698 0.601578 -0.553783
vn -0.579039 0.552183 0.599840
vn -0.610752 -0.556655 0.563131
vn -0.103596 -0.758919 0.642891
vn -0.000000 0.677276 0.735729
vn -0.707107 -0.707107 0.000000
vn -0.707107 0.707107 0.000000
vn -0.707107 -0.707107 0.000000
vn -0.707107 0.707107 0.000000
vn -0.707107 -0.707107 0.000000
vn -0.000000 -1.000000 0.000000
vn 0.000000 1.000000 0.000000

# Mesh
g wall lp 0001
usemtl DefaultMaterial
f 4/4/4 1/1/1 2/2/2
f 2/2/2 3/3/3 4/4/4
f 8/8/8 5/5/5 6/6/6
f 6/6/6 7/7/7 8/8/8
f 5/5/5 4/4/4 3/3/3
f 3/3/3 6/6/6 5/5/5
f 4/4/4 5/5/5 8/9/8
f 8/9/8 1/10/1 4/4/4
f 2/12/2 7/11/7 6/6/6
f 6/6/6 3/3/3 2/12/2
f 12/16/12 9/13/9 10/14/10
f 10/14/10 11/15/11 12/16/12
f 16/20/16 13/17/13 14/18/14
f 14/18/14 15/19/15 16/20/16
f 13/17/13 12/16/12 11/15/11
f 11/15/11 14/18/14 13/17/13
f 12/16/12 13/17/13 16/21/16
f 16/21/16 9/22/9 12/16/12
f 10/24/10 15/23/15 14/18/14
f 14/18/14 11/15/11 10/24/10
f 20/28/20 17/25/17 18/26/18
f 18/26/18 19/27/19 20/28/20
f 24/32/24 21/29/21 22/30/22
f 22/30/22 23/31/23 24/32/24
f 21/29/21 20/28/20 19/27/19
f 19/27/19 22/30/22 21/29/21
f 20/28/20 21/29/21 24/33/24
f 24/33/24 17/34/17 20/28/20
f 18/36/18 23/35/23 22/30/22
f 22/30/22 19/27/19 18/36/18
f 28/40/28 25/37/25 26/38/26
f 26/38/26 27/39/27 28/40/28
f 32/44/32 29/41/29 30/42/30
f 30/42/30 31/43/31 32/44/32
f 29/41/29 28/40/28 27/39/27
f 27/39/27 30/42/30 29/41/29
f 28/40/28 29/41/29 32/45/32
f 32/45/32 25/46/25 28/40/28
f 26/48/26 31/47/31 30/42/30
f 30/42/30 27/39/27 26/48/26
f 36/52/4 33/49/1 34/50/33
f 34/50/33 35/51/34 36/52/4
f 40/56/38 37/53/35 38/54/36
f 38/54/36 39/55/37 40/56/38
f 37/53/35 36/52/4 35/51/34
f 35/51/34 38/54/36 37/53/35
f 36/52/4 37/53/35 40/57/38
f 40/57/38 33/58/1 36/52/4
f 34/60/33 39/59/37 38/54/36
f 38/54/36 35/51/34 34/60/33
f 44/64/42 41/61/39 42/62/40
f 42/62/40 43/63/41 44/64/42
f 48/68/46 45/65/43 46/66/44
f 46/66/44 47/67/45 48/68/46
f 45/65/43 44/64/42 43/63/41
f 43/63/41 46/66/44 45/65/43
f 44/64/42 45/65/43 48/69/46
f 48/69/46 41/70/39 44/64/42
f 42/72/40 47/71/45 46/66/44
f 46/66/44 43/63/41 42/72/40
f 52/76/50 49/73/47 50/74/48
f 50/74/48 51/75/49 52/76/50
f 56/80/54 53/77/51 54/78/52
f 54/78/52 55/79/53 56/80/54
f 53/77/51 52/76/50 51/75/49
f 51/75/49 54/78/52 53/77/51
f 52/76/50 53/77/51 56/81/54
f 56/81/54 49/82/47 52/76/50
f 50/84/48 55/83/53 54/78/52
f 54/78/52 51/75/49 50/84/48
f 60/88/58 57/85/55 58/86/56
f 58/86/56 59/87/57 60/88/58
f 64/92/62 61/89/59 62/90/60
f 62/90/60 63/91/61 64/92/62
f 61/89/59 60/88/58 59/87/57
f 59/87/57 62/90/60 61/89/59
f 60/88/58 61/89/59 64/93/62
f 64/93/62 57/94/55 60/88/58
f 58/96/56 63/95/61 62/90/60
f 62/90/60 59/87/57 58/96/56
f 68/100/66 65/97/63 66/98/64
f 66/98/64 67/99/65 68/100/66
f 72/104/70 69/101/67 70/102/68
f 70/102/68 71/103/69 72/104/70
f 69/101/67 68/100/66 67/99/65
f 67/99/65 70/102/68 69/101/67
f 68/100/66 69/101/67 72/105/70
f 72/105/70 65/106/63 68/100/66
f 66/108/64 71/107/69 70/102/68
f 70/102/68 67/99/65 66/108/64
f 76/112/72 73/109/71 74/110/71
f 74/110/71 75/111/72 76/112/72
f 80/116/73 77/113/72 78/114/72
f 78/114/72 79/115/73 80/116/73
f 84/120/75 81/117/74 82/118/74
f 82/118/74 83/119/75 84/120/75
f 76/112/72 75/111/72 78/114/72
f 78/114/72 77/113/72 76/112/72
f 86/122/76 85/121/76 80/116/73
f 80/116/73 79/115/73 86/122/76
f 88/124/77 87/123/77 82/118/74
f 82/118/74 81/117/74 88/124/77
f 74/110/71 73/109/71 84/120/75
f 84/120/75 83/119/75 74/110/71
