# File produced by Open Asset Import Library (http://www.assimp.sf.net)
# (assimp v3.1.161429758)

mtllib walls1Goed.mtl

# vertex positions
v 0.131741 1.329033 0.168341
v 0.131741 1.528905 0.168341
v 0.015621 1.512693 0.168341
v 0.015621 1.329033 0.168341
v 0.015621 1.329033 -0.096848
v 0.015621 1.512693 -0.096848
v 0.131741 1.528905 -0.096848
v 0.131741 1.329033 -0.096848
v 0.154420 1.912820 -0.396611
v 0.154420 2.138903 -0.356225
v -0.007058 2.120565 -0.359501
v -0.007058 1.912820 -0.396611
v -0.007058 2.033383 -0.696578
v -0.007058 2.241128 -0.659467
v 0.154420 2.259467 -0.656191
v 0.154420 2.033383 -0.696578
v 0.135736 1.064698 -0.137540
v 0.135736 1.297866 -0.151140
v -0.025743 1.278953 -0.150037
v -0.025743 1.064698 -0.137540
v -0.025743 1.024099 -0.446907
v -0.025743 1.238354 -0.459403
v 0.135736 1.257267 -0.460506
v 0.135736 1.024099 -0.446907
v 0.154420 2.275751 0.684377
v 0.154420 2.176834 0.542958
v -0.007058 2.184857 0.554429
v -0.007058 2.275751 0.684377
v -0.007058 1.853573 0.815620
v -0.007058 1.762678 0.685672
v 0.154420 1.754655 0.674201
v 0.154420 1.853573 0.815620
v 0.131741 1.870996 0.168341
v 0.131741 2.070868 0.168341
v 0.015621 2.054656 0.168341
v 0.015621 1.870996 0.168341
v 0.015621 1.870996 -0.096848
v 0.015621 2.054656 -0.096848
v 0.131741 2.070868 -0.096848
v 0.131741 1.870996 -0.096848
v 0.123292 0.676990 -0.093604
v 0.123292 0.844972 -0.165810
v 0.007172 0.831347 -0.159953
v 0.007172 0.676990 -0.093604
v 0.007172 0.461434 -0.316481
v 0.007172 0.615790 -0.382831
v 0.123292 0.629416 -0.388688
v 0.123292 0.461434 -0.316481
v 0.100895 0.580449 0.815569
v 0.100895 0.748431 0.743363
v -0.015225 0.734805 0.749219
v -0.015225 0.580449 0.815569
v -0.015225 0.364892 0.592691
v -0.015225 0.519249 0.526342
v 0.100895 0.532874 0.520485
v 0.100895 0.364892 0.592691
v 0.162600 1.249466 0.709321
v 0.162600 1.493568 0.686993
v -0.015238 1.473768 0.688804
v -0.015238 1.249466 0.709321
v -0.015238 1.182809 0.385448
v -0.015238 1.407111 0.364930
v 0.162600 1.426911 0.363119
v 0.162600 1.182809 0.385448
v 0.131741 1.625369 -0.792981
v 0.131741 1.425642 -0.798066
v 0.015621 1.441843 -0.797654
v 0.015621 1.625369 -0.792981
v 0.015621 1.610187 -0.527984
v 0.015621 1.426661 -0.532658
v 0.131741 1.410460 -0.533070
v 0.131741 1.610187 -0.527984
v 0.041561 2.526778 1.000000
v 0.041561 2.526778 -1.000000
v 0.041561 0.308989 -1.000000
v 0.041561 0.308989 1.000000
v -0.041561 0.308989 1.000000
v -0.041561 0.308989 -1.000000
v -0.041561 0.000000 -1.000000
v -0.041561 0.000000 1.000000
v -0.041561 3.000000 1.000000
v -0.041561 3.000000 -1.000000
v -0.041561 2.526778 -1.000000
v -0.041561 2.526778 1.000000
v 0.041561 0.000000 1.000000
v 0.041561 0.000000 -1.000000
v 0.041561 3.000000 -1.000000
v 0.041561 3.000000 1.000000

# UV coordinates
vt 0.915174 0.356622
vt 0.962327 0.356622
vt 0.958502 0.397713
vt 0.915174 0.397713
vt 0.915174 0.491556
vt 0.958502 0.491556
vt 0.962327 0.532647
vt 0.915174 0.532647
vt 0.874083 0.491556
vt 0.874083 0.397713
vt 0.999771 0.491556
vt 0.999771 0.397713
vt 0.765568 0.180139
vt 0.820786 0.180139
vt 0.816307 0.237281
vt 0.765568 0.237281
vt 0.765568 0.347175
vt 0.816307 0.347175
vt 0.820786 0.404317
vt 0.765568 0.404317
vt 0.708426 0.347175
vt 0.708426 0.237281
vt 0.873624 0.347175
vt 0.873624 0.237281
vt 0.708426 0.737468
vt 0.708426 0.682251
vt 0.765568 0.686730
vt 0.765568 0.737468
vt 0.875462 0.737468
vt 0.875462 0.686730
vt 0.932604 0.682251
vt 0.932604 0.737468
vt 0.875462 0.794611
vt 0.765568 0.794611
vt 0.875462 0.629412
vt 0.765568 0.629412
vt 0.765568 0.404776
vt 0.820786 0.404776
vt 0.816307 0.461918
vt 0.765568 0.461918
vt 0.765568 0.571811
vt 0.816307 0.571811
vt 0.820786 0.628954
vt 0.765568 0.628954
vt 0.708426 0.571811
vt 0.708426 0.461918
vt 0.873624 0.571811
vt 0.873624 0.461918
vt 0.000229 0.910679
vt 0.000229 0.863527
vt 0.041320 0.867351
vt 0.041321 0.910679
vt 0.135163 0.910679
vt 0.135163 0.867351
vt 0.176254 0.863526
vt 0.176254 0.910679
vt 0.135163 0.951770
vt 0.041321 0.951770
vt 0.135163 0.826082
vt 0.041320 0.826082
vt 0.875663 0.795069
vt 0.922816 0.795070
vt 0.918991 0.836161
vt 0.875663 0.836161
vt 0.875663 0.930003
vt 0.918991 0.930003
vt 0.922816 0.971094
vt 0.875663 0.971094
vt 0.834572 0.930003
vt 0.834572 0.836161
vt 0.960260 0.930003
vt 0.960260 0.836161
vt 0.749517 0.795069
vt 0.796669 0.795069
vt 0.792845 0.836161
vt 0.749517 0.836161
vt 0.749517 0.930003
vt 0.792845 0.930003
vt 0.796669 0.971094
vt 0.749517 0.971094
vt 0.708426 0.930003
vt 0.708426 0.836161
vt 0.834114 0.930003
vt 0.834114 0.836161
vt 0.708426 0.116749
vt 0.708426 0.058622
vt 0.771357 0.063337
vt 0.771357 0.116749
vt 0.887040 0.116749
vt 0.887040 0.063337
vt 0.949971 0.058622
vt 0.949971 0.116749
vt 0.887040 0.179680
vt 0.771357 0.179680
vt 0.887040 0.000229
vt 0.771357 0.000229
vt 0.958679 0.356164
vt 0.911527 0.356164
vt 0.915352 0.315072
vt 0.958679 0.315072
vt 0.958679 0.221230
vt 0.915352 0.221230
vt 0.911527 0.180139
vt 0.958679 0.180139
vt 0.999771 0.221230
vt 0.999771 0.315072
vt 0.874083 0.221230
vt 0.874083 0.315072
vt 0.707967 0.655156
vt 0.000229 0.655156
vt 0.000229 0.131952
vt 0.707967 0.131952
vt 0.707967 0.102538
vt 0.000229 0.102538
vt 0.000229 0.029643
vt 0.707967 0.029644
vt 0.707967 0.796210
vt 0.000229 0.796210
vt 0.000229 0.684571
vt 0.707967 0.684571
vt 0.707967 0.000230
vt 0.000229 0.000229
vt 0.000229 0.825624
vt 0.707967 0.825624

# vertex normals
vn 0.000000 -0.707107 0.707107
vn -0.102183 0.731885 0.673723
vn -0.611854 0.532364 0.584998
vn -0.577350 -0.577350 0.577350
vn -0.577350 -0.577350 -0.577350
vn -0.611854 0.532364 -0.584998
vn -0.102183 0.731885 -0.673723
vn 0.000000 -0.707107 -0.707107
vn -0.000000 -0.874723 0.484623
vn -0.075588 0.512835 0.855153
vn -0.614604 0.356277 0.703796
vn -0.567312 -0.720337 0.399089
vn -0.588927 -0.391665 -0.706940
vn -0.599015 0.685103 -0.414506
vn -0.091511 0.886752 -0.453097
vn 0.000000 -0.484622 -0.874723
vn -0.000000 -0.637327 0.770594
vn -0.088295 0.789303 0.607621
vn -0.604014 0.593716 0.531666
vn -0.581244 -0.518611 0.627055
vn -0.573647 -0.631195 -0.522036
vn -0.609451 0.481099 -0.630169
vn -0.082603 0.661800 -0.745116
vn -0.000001 -0.770593 -0.637327
vn 0.000001 0.946199 0.323584
vn -0.052828 0.298953 -0.952804
vn -0.613667 0.275533 -0.739929
vn -0.562819 0.782109 0.267468
vn -0.595361 -0.259987 0.760232
vn -0.587878 -0.772370 -0.240507
vn -0.071069 -0.935485 -0.346147
vn 0.000001 -0.323584 0.946199
vn 0.000000 -0.707107 0.707107
vn -0.102181 0.731885 0.673723
vn -0.611854 0.532365 0.584998
vn -0.577350 -0.577350 0.577350
vn -0.611854 0.532365 -0.584998
vn -0.102181 0.731885 -0.673723
vn -0.000001 -0.196771 0.980449
vn -0.106972 0.981057 0.161504
vn -0.597759 0.778878 0.189824
vn -0.598862 -0.157585 0.785196
vn -0.560636 -0.811873 -0.162938
vn -0.624211 0.123565 -0.771423
vn -0.076091 0.231593 -0.969832
vn -0.000000 -0.980450 -0.196770
vn -0.000001 -0.196771 0.980449
vn -0.106972 0.981057 0.161504
vn -0.597759 0.778878 0.189824
vn -0.598861 -0.157585 0.785196
vn -0.560636 -0.811873 -0.162938
vn -0.624211 0.123565 -0.771423
vn -0.076091 0.231593 -0.969832
vn -0.000000 -0.980450 -0.196771
vn -0.000000 -0.595831 0.803110
vn -0.085464 0.819454 0.566737
vn -0.601245 0.623534 0.499710
vn -0.583456 -0.483901 0.652241
vn -0.571700 -0.658921 -0.488858
vn -0.609821 0.448444 -0.653464
vn -0.077045 0.620629 -0.780310
vn 0.000000 -0.803109 -0.595832
vn 0.000000 0.735728 -0.677277
vn -0.100656 -0.703555 -0.703476
vn -0.612959 -0.507268 -0.605772
vn -0.575698 0.601578 -0.553784
vn -0.579039 0.552183 0.599840
vn -0.610753 -0.556655 0.563131
vn -0.103598 -0.758920 0.642891
vn -0.000000 0.677276 0.735729
vn -0.707107 -0.707107 0.000000
vn -0.707107 0.707107 0.000000
vn -0.707107 0.707107 0.000000
vn -0.707107 -0.707107 0.000000
vn -0.000000 -1.000000 0.000000
vn 0.000000 1.000000 0.000000

# Mesh
g wall lp 0001
usemtl DefaultMaterial
f 4/4/4 1/1/1 2/2/2
f 2/2/2 3/3/3 4/4/4
f 8/8/8 5/5/5 6/6/6
f 6/6/6 7/7/7 8/8/8
f 5/5/5 4/4/4 3/3/3
f 3/3/3 6/6/6 5/5/5
f 4/4/4 5/5/5 8/9/8
f 8/9/8 1/10/1 4/4/4
f 2/12/2 7/11/7 6/6/6
f 6/6/6 3/3/3 2/12/2
f 12/16/12 9/13/9 10/14/10
f 10/14/10 11/15/11 12/16/12
f 16/20/16 13/17/13 14/18/14
f 14/18/14 15/19/15 16/20/16
f 13/17/13 12/16/12 11/15/11
f 11/15/11 14/18/14 13/17/13
f 12/16/12 13/17/13 16/21/16
f 16/21/16 9/22/9 12/16/12
f 10/24/10 15/23/15 14/18/14
f 14/18/14 11/15/11 10/24/10
f 20/28/20 17/25/17 18/26/18
f 18/26/18 19/27/19 20/28/20
f 24/32/24 21/29/21 22/30/22
f 22/30/22 23/31/23 24/32/24
f 21/29/21 20/28/20 19/27/19
f 19/27/19 22/30/22 21/29/21
f 20/28/20 21/29/21 24/33/24
f 24/33/24 17/34/17 20/28/20
f 18/36/18 23/35/23 22/30/22
f 22/30/22 19/27/19 18/36/18
f 28/40/28 25/37/25 26/38/26
f 26/38/26 27/39/27 28/40/28
f 32/44/32 29/41/29 30/42/30
f 30/42/30 31/43/31 32/44/32
f 29/41/29 28/40/28 27/39/27
f 27/39/27 30/42/30 29/41/29
f 28/40/28 29/41/29 32/45/32
f 32/45/32 25/46/25 28/40/28
f 26/48/26 31/47/31 30/42/30
f 30/42/30 27/39/27 26/48/26
f 36/52/36 33/49/33 34/50/34
f 34/50/34 35/51/35 36/52/36
f 40/56/8 37/53/5 38/54/37
f 38/54/37 39/55/38 40/56/8
f 37/53/5 36/52/36 35/51/35
f 35/51/35 38/54/37 37/53/5
f 36/52/36 37/53/5 40/57/8
f 40/57/8 33/58/33 36/52/36
f 34/60/34 39/59/38 38/54/37
f 38/54/37 35/51/35 34/60/34
f 44/64/42 41/61/39 42/62/40
f 42/62/40 43/63/41 44/64/42
f 48/68/46 45/65/43 46/66/44
f 46/66/44 47/67/45 48/68/46
f 45/65/43 44/64/42 43/63/41
f 43/63/41 46/66/44 45/65/43
f 44/64/42 45/65/43 48/69/46
f 48/69/46 41/70/39 44/64/42
f 42/72/40 47/71/45 46/66/44
f 46/66/44 43/63/41 42/72/40
f 52/76/50 49/73/47 50/74/48
f 50/74/48 51/75/49 52/76/50
f 56/80/54 53/77/51 54/78/52
f 54/78/52 55/79/53 56/80/54
f 53/77/51 52/76/50 51/75/49
f 51/75/49 54/78/52 53/77/51
f 52/76/50 53/77/51 56/81/54
f 56/81/54 49/82/47 52/76/50
f 50/84/48 55/83/53 54/78/52
f 54/78/52 51/75/49 50/84/48
f 60/88/58 57/85/55 58/86/56
f 58/86/56 59/87/57 60/88/58
f 64/92/62 61/89/59 62/90/60
f 62/90/60 63/91/61 64/92/62
f 61/89/59 60/88/58 59/87/57
f 59/87/57 62/90/60 61/89/59
f 60/88/58 61/89/59 64/93/62
f 64/93/62 57/94/55 60/88/58
f 58/96/56 63/95/61 62/90/60
f 62/90/60 59/87/57 58/96/56
f 68/100/66 65/97/63 66/98/64
f 66/98/64 67/99/65 68/100/66
f 72/104/70 69/101/67 70/102/68
f 70/102/68 71/103/69 72/104/70
f 69/101/67 68/100/66 67/99/65
f 67/99/65 70/102/68 69/101/67
f 68/100/66 69/101/67 72/105/70
f 72/105/70 65/106/63 68/100/66
f 66/108/64 71/107/69 70/102/68
f 70/102/68 67/99/65 66/108/64
f 76/112/72 73/109/71 74/110/71
f 74/110/71 75/111/72 76/112/72
f 80/116/71 77/113/72 78/114/72
f 78/114/72 79/115/71 80/116/71
f 84/120/74 81/117/73 82/118/73
f 82/118/73 83/119/74 84/120/74
f 76/112/72 75/111/72 78/114/72
f 78/114/72 77/113/72 76/112/72
f 86/122/75 85/121/75 80/116/71
f 80/116/71 79/115/71 86/122/75
f 88/124/76 87/123/76 82/118/73
f 82/118/73 81/117/73 88/124/76
f 74/110/71 73/109/71 84/120/74
f 84/120/74 83/119/74 74/110/71
