# File produced by Open Asset Import Library (http://www.assimp.sf.net)
# (assimp v3.1.161429758)

mtllib walls2.mtl

# vertex positions
v 0.126703 1.662062 0.701089
v 0.126703 1.770311 0.701089
v -0.054669 1.770311 0.701089
v -0.054669 1.662062 0.701089
v 0.126703 1.770311 0.485921
v -0.054669 1.770311 0.485921
v -0.061531 1.668924 0.694227
v -0.061531 1.763449 0.694227
v -0.061531 1.763449 0.492783
v -0.061531 1.668924 0.492783
v -0.054669 1.662062 0.485921
v 0.126703 1.662062 0.485921
v 0.126703 1.594241 -0.299953
v 0.126703 1.702491 -0.299953
v -0.054669 1.702491 -0.299953
v -0.054669 1.594241 -0.299953
v 0.126703 1.702491 -0.515121
v -0.054669 1.702491 -0.515121
v -0.061531 1.601104 -0.306815
v -0.061531 1.695628 -0.306815
v -0.061531 1.695628 -0.508259
v -0.061531 1.601104 -0.508259
v -0.054669 1.594241 -0.515121
v 0.126703 1.594241 -0.515121
v 0.126703 0.932778 0.295997
v 0.126703 1.041028 0.295997
v -0.054669 1.041028 0.295997
v -0.054669 0.932778 0.295997
v 0.126703 1.041028 0.080828
v -0.054669 1.041028 0.080828
v -0.061531 0.939641 0.289134
v -0.061531 1.034165 0.289134
v -0.061531 1.034165 0.087691
v -0.061531 0.939641 0.087691
v -0.054669 0.932778 0.080828
v 0.126703 0.932778 0.080828
v 0.126703 1.110107 0.789685
v 0.126703 1.218356 0.789685
v -0.054669 1.218356 0.789685
v -0.054669 1.110107 0.789685
v 0.126703 1.218356 0.574516
v -0.054669 1.218356 0.574516
v -0.061531 1.116969 0.782823
v -0.061531 1.211494 0.782823
v -0.061531 1.211494 0.581379
v -0.061531 1.116969 0.581379
v -0.054669 1.110107 0.574516
v 0.126703 1.110107 0.574516
v 0.126703 0.567434 -0.214226
v 0.126703 0.675684 -0.214226
v -0.054669 0.675684 -0.214226
v -0.054669 0.567434 -0.214226
v 0.126703 0.675684 -0.429394
v -0.054669 0.675684 -0.429394
v -0.061531 0.574297 -0.221088
v -0.061531 0.668821 -0.221088
v -0.061531 0.668821 -0.422532
v -0.061531 0.574297 -0.422532
v -0.054669 0.567434 -0.429394
v 0.126703 0.567434 -0.429394
v 0.159527 0.531161 0.766220
v 0.159527 0.658286 0.766220
v -0.053472 0.658286 0.766220
v -0.053472 0.531161 0.766220
v 0.159527 0.658286 0.513531
v -0.053472 0.658286 0.513531
v -0.061531 0.539220 0.758162
v -0.061531 0.650227 0.758162
v -0.061531 0.650227 0.521590
v -0.061531 0.539220 0.521590
v -0.053472 0.531161 0.513531
v 0.159527 0.531161 0.513531
v 0.126703 2.209888 0.142523
v 0.126703 2.318137 0.142523
v -0.054669 2.318137 0.142523
v -0.054669 2.209888 0.142523
v 0.126703 2.318137 -0.072645
v -0.054669 2.318137 -0.072645
v -0.061531 2.216750 0.135661
v -0.061531 2.311274 0.135661
v -0.061531 2.311274 -0.065783
v -0.061531 2.216750 -0.065783
v -0.054669 2.209888 -0.072645
v 0.126703 2.209888 -0.072645
v 0.041561 2.526778 1.000000
v 0.041561 2.526778 -1.000000
v 0.041561 0.308989 -1.000000
v 0.041561 0.308989 1.000000
v -0.041561 0.308989 1.000000
v -0.041561 0.308989 -1.000000
v -0.041561 0.000000 -1.000000
v -0.041561 0.000000 1.000000
v -0.041561 3.000000 1.000000
v -0.041561 3.000000 -1.000000
v -0.041561 2.526778 -1.000000
v -0.041561 2.526778 1.000000
v 0.041561 0.000000 1.000000
v 0.041561 0.000000 -1.000000
v 0.041561 3.000000 -1.000000
v 0.041561 3.000000 1.000000

# UV coordinates
vt 0.770554 0.466743
vt 0.747594 0.443782
vt 0.786064 0.405312
vt 0.809025 0.428272
vt 0.793233 0.319996
vt 0.831703 0.358467
vt 0.786064 0.404106
vt 0.747594 0.365635
vt 0.809628 0.424758
vt 0.789578 0.404709
vt 0.832306 0.361981
vt 0.852356 0.382030
vt 0.855870 0.381427
vt 0.832909 0.358467
vt 0.871380 0.319996
vt 0.894340 0.342957
vt 0.855870 0.382633
vt 0.810231 0.428272
vt 0.894340 0.421104
vt 0.848701 0.466743
vt 0.724267 0.614220
vt 0.747228 0.637181
vt 0.708758 0.675651
vt 0.685797 0.652691
vt 0.701589 0.760967
vt 0.663118 0.722496
vt 0.708757 0.676857
vt 0.747228 0.715328
vt 0.685194 0.656205
vt 0.705243 0.676254
vt 0.662516 0.718982
vt 0.642466 0.698933
vt 0.638952 0.699536
vt 0.661913 0.722496
vt 0.623442 0.760967
vt 0.600482 0.738006
vt 0.638952 0.698330
vt 0.684591 0.652691
vt 0.600481 0.659859
vt 0.646120 0.614220
vt 0.770554 0.319631
vt 0.747594 0.296670
vt 0.786064 0.258200
vt 0.809025 0.281160
vt 0.793233 0.172884
vt 0.831703 0.211355
vt 0.786064 0.256994
vt 0.747594 0.218523
vt 0.809628 0.277646
vt 0.789578 0.257597
vt 0.832306 0.214869
vt 0.852356 0.234918
vt 0.855870 0.234315
vt 0.832909 0.211355
vt 0.871380 0.172884
vt 0.894340 0.195845
vt 0.855870 0.235521
vt 0.810231 0.281160
vt 0.894340 0.273992
vt 0.848701 0.319631
vt 0.747228 0.590894
vt 0.724268 0.613855
vt 0.685797 0.575384
vt 0.708758 0.552424
vt 0.600481 0.568216
vt 0.638952 0.529745
vt 0.684591 0.575384
vt 0.646120 0.613855
vt 0.705243 0.551821
vt 0.685194 0.571870
vt 0.642466 0.529142
vt 0.662516 0.509093
vt 0.661913 0.505579
vt 0.638952 0.528539
vt 0.600482 0.490069
vt 0.623442 0.467108
vt 0.663118 0.505579
vt 0.708758 0.551218
vt 0.701589 0.467108
vt 0.747228 0.512747
vt 0.623442 0.466743
vt 0.600481 0.443782
vt 0.638952 0.405312
vt 0.661913 0.428272
vt 0.646121 0.319996
vt 0.684591 0.358467
vt 0.638952 0.404106
vt 0.600481 0.365635
vt 0.662516 0.424758
vt 0.642466 0.404709
vt 0.685194 0.361981
vt 0.705243 0.382030
vt 0.708758 0.381427
vt 0.685797 0.358467
vt 0.724268 0.319996
vt 0.747228 0.342957
vt 0.708758 0.382633
vt 0.663118 0.428272
vt 0.747228 0.421104
vt 0.701589 0.466743
vt 0.600481 0.027147
vt 0.627446 0.000183
vt 0.672625 0.045362
vt 0.645660 0.072326
vt 0.772817 0.053780
vt 0.727638 0.098959
vt 0.674041 0.045362
vt 0.719220 0.000183
vt 0.649787 0.073034
vt 0.673333 0.049489
vt 0.723512 0.099667
vt 0.699966 0.123213
vt 0.700674 0.127340
vt 0.727638 0.100375
vt 0.772817 0.145554
vt 0.745853 0.172519
vt 0.699258 0.127340
vt 0.645660 0.073742
vt 0.654079 0.172519
vt 0.600482 0.118921
vt 0.724268 0.172884
vt 0.747228 0.195845
vt 0.708758 0.234315
vt 0.685797 0.211355
vt 0.701589 0.319631
vt 0.663118 0.281160
vt 0.708758 0.235521
vt 0.747228 0.273992
vt 0.685194 0.214869
vt 0.705243 0.234918
vt 0.662516 0.277646
vt 0.642466 0.257597
vt 0.638952 0.258200
vt 0.661913 0.281160
vt 0.623442 0.319631
vt 0.600482 0.296670
vt 0.638952 0.256994
vt 0.684591 0.211355
vt 0.600481 0.218523
vt 0.646120 0.172884
vt 0.600116 0.807999
vt 0.000183 0.807999
vt 0.000183 0.142737
vt 0.600116 0.142737
vt 0.600116 0.117803
vt 0.000183 0.117803
vt 0.000183 0.025116
vt 0.600116 0.025117
vt 0.600116 0.974884
vt 0.000183 0.974884
vt 0.000183 0.832933
vt 0.600116 0.832933
vt 0.600116 0.000183
vt 0.000183 0.000183
vt 0.000183 0.999817
vt 0.600116 0.999817

# vertex normals
vn 0.000000 -0.707107 0.707107
vn 0.000000 0.707107 0.707107
vn -0.391363 0.650705 0.650706
vn -0.391363 -0.650705 0.650706
vn 0.000000 0.707107 -0.707107
vn -0.391363 0.650705 -0.650706
vn -0.905411 -0.300190 0.300194
vn -0.905411 0.300190 0.300194
vn -0.905411 0.300190 -0.300194
vn -0.905411 -0.300190 -0.300194
vn -0.391363 -0.650705 -0.650706
vn 0.000000 -0.707107 -0.707107
vn -0.391361 0.650707 0.650705
vn -0.391361 -0.650707 0.650705
vn -0.391361 0.650707 -0.650705
vn -0.905410 -0.300194 0.300194
vn -0.905410 0.300194 0.300194
vn -0.905410 0.300194 -0.300194
vn -0.905410 -0.300194 -0.300194
vn -0.391361 -0.650707 -0.650705
vn -0.391362 0.650706 0.650705
vn -0.391362 -0.650706 0.650705
vn -0.391362 0.650706 -0.650705
vn -0.905411 -0.300192 0.300194
vn -0.905411 0.300192 0.300194
vn -0.905411 0.300192 -0.300194
vn -0.905411 -0.300192 -0.300194
vn -0.391362 -0.650706 -0.650705
vn -0.391362 0.650706 0.650706
vn -0.391362 -0.650706 0.650706
vn -0.391362 0.650706 -0.650706
vn -0.905411 -0.300192 0.300194
vn -0.905411 0.300192 0.300194
vn -0.905411 0.300192 -0.300194
vn -0.905411 -0.300192 -0.300194
vn -0.391362 -0.650706 -0.650706
vn -0.391363 0.650705 0.650706
vn -0.391362 -0.650706 0.650705
vn -0.391363 0.650705 -0.650706
vn -0.905411 -0.300191 0.300195
vn -0.905411 0.300189 0.300195
vn -0.905411 0.300189 -0.300195
vn -0.905411 -0.300191 -0.300195
vn -0.391362 -0.650706 -0.650705
vn -0.391361 0.650707 0.650706
vn -0.391357 -0.650707 0.650707
vn -0.391361 0.650707 -0.650706
vn -0.905407 -0.300203 0.300194
vn -0.905410 0.300194 0.300195
vn -0.905410 0.300194 -0.300195
vn -0.905407 -0.300203 -0.300194
vn -0.391357 -0.650707 -0.650707
vn -0.707107 -0.707107 -0.000000
vn -0.707107 -0.707107 -0.000000
vn -0.707107 0.707107 -0.000000
vn -0.707107 0.707107 0.000000
vn -0.707107 -0.707107 0.000000
vn -0.707107 0.707107 0.000000
vn -0.707107 -0.707107 -0.000000
vn -0.707107 -0.707107 -0.000000
vn -0.000000 -1.000000 0.000000
vn 0.000000 1.000000 0.000000

# Mesh
g wall lp 1
usemtl DefaultMaterial
f 4/4/4 1/1/1 2/2/2
f 2/2/2 3/3/3 4/4/4
f 2/8/2 5/5/5 6/6/6
f 6/6/6 3/7/3 2/8/2
f 10/12/10 7/9/7 8/10/8
f 8/10/8 9/11/9 10/12/10
f 12/16/12 11/13/11 6/14/6
f 6/14/6 5/15/5 12/16/12
f 10/12/10 11/17/11 4/18/4
f 4/18/4 7/9/7 10/12/10
f 7/9/7 4/4/4 3/3/3
f 3/3/3 8/10/8 7/9/7
f 8/10/8 3/7/3 6/6/6
f 6/6/6 9/11/9 8/10/8
f 9/11/9 6/14/6 11/13/11
f 11/13/11 10/12/10 9/11/9
f 4/18/4 11/17/11 12/19/12
f 12/19/12 1/20/1 4/18/4
f 16/24/14 13/21/1 14/22/2
f 14/22/2 15/23/13 16/24/14
f 14/28/2 17/25/5 18/26/15
f 18/26/15 15/27/13 14/28/2
f 22/32/19 19/29/16 20/30/17
f 20/30/17 21/31/18 22/32/19
f 24/36/12 23/33/20 18/34/15
f 18/34/15 17/35/5 24/36/12
f 22/32/19 23/37/20 16/38/14
f 16/38/14 19/29/16 22/32/19
f 19/29/16 16/24/14 15/23/13
f 15/23/13 20/30/17 19/29/16
f 20/30/17 15/27/13 18/26/15
f 18/26/15 21/31/18 20/30/17
f 21/31/18 18/34/15 23/33/20
f 23/33/20 22/32/19 21/31/18
f 16/38/14 23/37/20 24/39/12
f 24/39/12 13/40/1 16/38/14
f 28/44/22 25/41/1 26/42/2
f 26/42/2 27/43/21 28/44/22
f 26/48/2 29/45/5 30/46/23
f 30/46/23 27/47/21 26/48/2
f 34/52/27 31/49/24 32/50/25
f 32/50/25 33/51/26 34/52/27
f 36/56/12 35/53/28 30/54/23
f 30/54/23 29/55/5 36/56/12
f 34/52/27 35/57/28 28/58/22
f 28/58/22 31/49/24 34/52/27
f 31/49/24 28/44/22 27/43/21
f 27/43/21 32/50/25 31/49/24
f 32/50/25 27/47/21 30/46/23
f 30/46/23 33/51/26 32/50/25
f 33/51/26 30/54/23 35/53/28
f 35/53/28 34/52/27 33/51/26
f 28/58/22 35/57/28 36/59/12
f 36/59/12 25/60/1 28/58/22
f 40/64/30 37/61/1 38/62/2
f 38/62/2 39/63/29 40/64/30
f 38/68/2 41/65/5 42/66/31
f 42/66/31 39/67/29 38/68/2
f 46/72/35 43/69/32 44/70/33
f 44/70/33 45/71/34 46/72/35
f 48/76/12 47/73/36 42/74/31
f 42/74/31 41/75/5 48/76/12
f 46/72/35 47/77/36 40/78/30
f 40/78/30 43/69/32 46/72/35
f 43/69/32 40/64/30 39/63/29
f 39/63/29 44/70/33 43/69/32
f 44/70/33 39/67/29 42/66/31
f 42/66/31 45/71/34 44/70/33
f 45/71/34 42/74/31 47/73/36
f 47/73/36 46/72/35 45/71/34
f 40/78/30 47/77/36 48/79/12
f 48/79/12 37/80/1 40/78/30
f 52/84/22 49/81/1 50/82/2
f 50/82/2 51/83/21 52/84/22
f 50/88/2 53/85/5 54/86/23
f 54/86/23 51/87/21 50/88/2
f 58/92/27 55/89/24 56/90/25
f 56/90/25 57/91/26 58/92/27
f 60/96/12 59/93/28 54/94/23
f 54/94/23 53/95/5 60/96/12
f 58/92/27 59/97/28 52/98/22
f 52/98/22 55/89/24 58/92/27
f 55/89/24 52/84/22 51/83/21
f 51/83/21 56/90/25 55/89/24
f 56/90/25 51/87/21 54/86/23
f 54/86/23 57/91/26 56/90/25
f 57/91/26 54/94/23 59/93/28
f 59/93/28 58/92/27 57/91/26
f 52/98/22 59/97/28 60/99/12
f 60/99/12 49/100/1 52/98/22
f 64/104/38 61/101/1 62/102/2
f 62/102/2 63/103/37 64/104/38
f 62/108/2 65/105/5 66/106/39
f 66/106/39 63/107/37 62/108/2
f 70/112/43 67/109/40 68/110/41
f 68/110/41 69/111/42 70/112/43
f 72/116/12 71/113/44 66/114/39
f 66/114/39 65/115/5 72/116/12
f 70/112/43 71/117/44 64/118/38
f 64/118/38 67/109/40 70/112/43
f 67/109/40 64/104/38 63/103/37
f 63/103/37 68/110/41 67/109/40
f 68/110/41 63/107/37 66/106/39
f 66/106/39 69/111/42 68/110/41
f 69/111/42 66/114/39 71/113/44
f 71/113/44 70/112/43 69/111/42
f 64/118/38 71/117/44 72/119/12
f 72/119/12 61/120/1 64/118/38
f 76/124/46 73/121/1 74/122/2
f 74/122/2 75/123/45 76/124/46
f 74/128/2 77/125/5 78/126/47
f 78/126/47 75/127/45 74/128/2
f 82/132/51 79/129/48 80/130/49
f 80/130/49 81/131/50 82/132/51
f 84/136/12 83/133/52 78/134/47
f 78/134/47 77/135/5 84/136/12
f 82/132/51 83/137/52 76/138/46
f 76/138/46 79/129/48 82/132/51
f 79/129/48 76/124/46 75/123/45
f 75/123/45 80/130/49 79/129/48
f 80/130/49 75/127/45 78/126/47
f 78/126/47 81/131/50 80/130/49
f 81/131/50 78/134/47 83/133/52
f 83/133/52 82/132/51 81/131/50
f 76/138/46 83/137/52 84/139/12
f 84/139/12 73/140/1 76/138/46
f 88/144/55 85/141/53 86/142/54
f 86/142/54 87/143/55 88/144/55
f 92/148/57 89/145/56 90/146/56
f 90/146/56 91/147/57 92/148/57
f 96/152/60 93/149/58 94/150/58
f 94/150/58 95/151/59 96/152/60
f 88/144/55 87/143/55 90/146/56
f 90/146/56 89/145/56 88/144/55
f 98/154/61 97/153/61 92/148/57
f 92/148/57 91/147/57 98/154/61
f 100/156/62 99/155/62 94/150/58
f 94/150/58 93/149/58 100/156/62
f 86/142/54 85/141/53 96/152/60
f 96/152/60 95/151/59 86/142/54
