# File produced by Open Asset Import Library (http://www.assimp.sf.net)
# (assimp v3.1.113183908)

mtllib boeken.mtl

# vertex positions
v -0.159838 -0.152531 -0.156865
v -0.159838 -0.152531 0.007196
v -0.159838 0.088560 0.007196
v -0.159838 0.088560 -0.156865
v -0.125656 -0.152531 0.007196
v -0.125656 -0.152531 -0.156865
v -0.125656 0.088560 -0.156865
v -0.125656 0.088560 0.007196
v -0.137050 -0.152531 -0.161191
v -0.137050 0.088560 -0.161191
v -0.148444 -0.152531 -0.161191
v -0.148444 0.088560 -0.161191
v -0.123192 -0.152531 -0.145008
v -0.123192 -0.152531 0.019053
v -0.123192 0.088560 0.019053
v -0.123192 0.088560 -0.145008
v -0.089009 -0.152531 0.019053
v -0.089009 -0.152531 -0.145008
v -0.089009 0.088560 -0.145008
v -0.089009 0.088560 0.019053
v -0.100404 -0.152531 -0.149334
v -0.100404 0.088560 -0.149334
v -0.111798 -0.152531 -0.149334
v -0.111798 0.088560 -0.149334
v -0.085138 -0.154368 -0.134917
v -0.085138 -0.154368 -0.001948
v -0.085138 0.041034 -0.001948
v -0.085138 0.041034 -0.134917
v -0.057434 -0.154368 -0.001948
v -0.057434 -0.154368 -0.134917
v -0.057434 0.041034 -0.134917
v -0.057434 0.041034 -0.001948
v -0.066669 -0.154368 -0.145065
v -0.066669 0.041034 -0.145065
v -0.075903 -0.154368 -0.145065
v -0.075903 0.041034 -0.145065
v -0.049493 -0.154368 -0.148409
v -0.049493 -0.154368 -0.015440
v -0.049493 0.041034 -0.015440
v -0.049493 0.041034 -0.148409
v -0.021789 -0.154368 -0.015440
v -0.021789 -0.154368 -0.148409
v -0.021789 0.041034 -0.148409
v -0.021789 0.041034 -0.015440
v -0.031023 -0.154368 -0.151915
v -0.031023 0.041034 -0.151915
v -0.040258 -0.154368 -0.151915
v -0.040258 0.041034 -0.151915
v -0.015424 -0.152531 -0.156865
v -0.015424 -0.152531 0.007196
v -0.015424 0.088560 0.007196
v -0.015424 0.088560 -0.156865
v 0.018759 -0.152531 0.007196
v 0.018759 -0.152531 -0.156865
v 0.018759 0.088560 -0.156865
v 0.018759 0.088560 0.007196
v 0.007365 -0.152531 -0.161191
v 0.007365 0.088560 -0.161191
v -0.004029 -0.152531 -0.161191
v -0.004029 0.088560 -0.161191
v 0.053152 -0.154014 -0.156865
v 0.053152 -0.154014 0.007196
v 0.012127 0.136762 0.007196
v 0.012127 0.136762 -0.156865
v 0.086810 -0.146514 0.007196
v 0.086810 -0.146514 -0.156865
v 0.045785 0.144262 -0.156865
v 0.045785 0.144262 0.007196
v 0.075591 -0.149014 -0.170575
v 0.034566 0.141762 -0.170575
v 0.064372 -0.151514 -0.170575
v 0.023346 0.139262 -0.170575
v -0.202716 -0.152531 -0.134636
v -0.202716 -0.152531 0.029425
v -0.202716 0.088560 0.029425
v -0.202716 0.088560 -0.134636
v -0.168533 -0.152531 0.029425
v -0.168533 -0.152531 -0.134636
v -0.168533 0.088560 -0.134636
v -0.168533 0.088560 0.029425
v -0.179927 -0.152531 -0.138962
v -0.179927 0.088560 -0.138962
v -0.191322 -0.152531 -0.138962
v -0.191322 0.088560 -0.138962
v 0.129065 -0.152531 -0.145008
v 0.129065 -0.152531 0.019053
v 0.129065 0.088560 0.019053
v 0.129065 0.088560 -0.145008
v 0.163247 -0.152531 0.019053
v 0.163247 -0.152531 -0.145008
v 0.163247 0.088560 -0.145008
v 0.163247 0.088560 0.019053
v 0.151853 -0.152531 -0.149334
v 0.151853 0.088560 -0.149334
v 0.140459 -0.152531 -0.149334
v 0.140459 0.088560 -0.149334
v 0.167119 -0.154368 -0.134917
v 0.167119 -0.154368 -0.001948
v 0.167119 0.041034 -0.001948
v 0.167119 0.041034 -0.134917
v 0.194823 -0.154368 -0.001948
v 0.194823 -0.154368 -0.134917
v 0.194823 0.041034 -0.134917
v 0.194823 0.041034 -0.001948
v 0.185588 -0.154368 -0.145065
v 0.185588 0.041034 -0.145065
v 0.176353 -0.154368 -0.145065
v 0.176353 0.041034 -0.145065
v 0.241801 -0.120920 -0.148409
v 0.241801 -0.120920 -0.015440
v 0.397284 -0.120920 -0.015440
v 0.397284 -0.120920 -0.148409
v 0.241801 -0.155738 -0.015440
v 0.241801 -0.155738 -0.148409
v 0.397284 -0.155738 -0.148409
v 0.397284 -0.155738 -0.015440
v 0.241801 -0.144132 -0.151915
v 0.397284 -0.144132 -0.151915
v 0.241801 -0.132526 -0.151915
v 0.397284 -0.132526 -0.151915
v 0.198586 -0.152531 -0.156865
v 0.198586 -0.152531 0.007196
v 0.198586 0.088560 0.007196
v 0.198586 0.088560 -0.156865
v 0.232768 -0.152531 0.007196
v 0.232768 -0.152531 -0.156865
v 0.232768 0.088560 -0.156865
v 0.232768 0.088560 0.007196
v 0.221374 -0.152531 -0.161191
v 0.221374 0.088560 -0.161191
v 0.209980 -0.152531 -0.161191
v 0.209980 0.088560 -0.161191
v 0.092680 -0.154014 -0.156865
v 0.092680 -0.154014 0.007196
v 0.051655 0.136762 0.007196
v 0.051655 0.136762 -0.156865
v 0.126338 -0.146514 0.007196
v 0.126338 -0.146514 -0.156865
v 0.085313 0.144262 -0.156865
v 0.085313 0.144262 0.007196
v 0.115119 -0.149014 -0.163207
v 0.074093 0.141762 -0.163207
v 0.103900 -0.151514 -0.163207
v 0.062874 0.139262 -0.163207

# UV coordinates
vt 0.685621 0.037979
vt 0.685621 0.154826
vt 0.509031 0.154826
vt 0.509031 0.037979
vt 0.685621 0.186292
vt 0.685621 0.303140
vt 0.509031 0.303140
vt 0.509031 0.186292
vt 0.685621 0.005626
vt 0.685621 0.016558
vt 0.509031 0.016559
vt 0.509031 0.005627
vt 0.685621 0.027047
vt 0.509031 0.027047
vt 0.233183 0.637928
vt 0.243672 0.634847
vt 0.254160 0.634847
vt 0.264648 0.637928
vt 0.264648 0.754776
vt 0.233183 0.754776
vt 0.324270 0.851719
vt 0.321189 0.841230
vt 0.321189 0.830742
vt 0.324270 0.820253
vt 0.441118 0.820253
vt 0.441118 0.851719
vt 0.497778 0.346745
vt 0.497778 0.463593
vt 0.321189 0.463593
vt 0.321189 0.346745
vt 0.497778 0.495058
vt 0.497778 0.611906
vt 0.321189 0.611906
vt 0.321189 0.495058
vt 0.497778 0.314393
vt 0.497778 0.325324
vt 0.321189 0.325325
vt 0.321189 0.314393
vt 0.497778 0.335813
vt 0.321189 0.335813
vt 0.307366 0.750260
vt 0.296878 0.753341
vt 0.286390 0.753341
vt 0.275901 0.750260
vt 0.275901 0.633412
vt 0.307366 0.633412
vt 0.307366 0.619078
vt 0.296878 0.622159
vt 0.286390 0.622159
vt 0.275901 0.619078
vt 0.275901 0.502230
vt 0.307366 0.502230
vt 0.696873 0.529302
vt 0.696873 0.434598
vt 0.839997 0.434598
vt 0.839997 0.529302
vt 0.696873 0.409096
vt 0.696874 0.314392
vt 0.839997 0.314393
vt 0.839997 0.409096
vt 0.696873 0.560119
vt 0.696873 0.548961
vt 0.839997 0.548961
vt 0.839997 0.560119
vt 0.696873 0.540460
vt 0.839997 0.540460
vt 0.659008 0.630386
vt 0.667509 0.623159
vt 0.676010 0.623159
vt 0.684510 0.630386
vt 0.684510 0.725090
vt 0.659008 0.725090
vt 0.215232 0.839792
vt 0.208005 0.831292
vt 0.208005 0.822791
vt 0.215232 0.814290
vt 0.309936 0.814290
vt 0.309936 0.839792
vt 0.994374 0.340613
vt 0.994374 0.435317
vt 0.851250 0.435317
vt 0.851250 0.340613
vt 0.994374 0.460819
vt 0.994374 0.555523
vt 0.851250 0.555523
vt 0.851250 0.460819
vt 0.994374 0.314393
vt 0.994374 0.323252
vt 0.851250 0.323252
vt 0.851250 0.314392
vt 0.994374 0.331753
vt 0.851250 0.331753
vt 0.193469 0.658606
vt 0.201970 0.656108
vt 0.210470 0.656108
vt 0.218971 0.658606
vt 0.218971 0.753309
vt 0.193469 0.753309
vt 0.684510 0.831046
vt 0.676010 0.833544
vt 0.667509 0.833544
vt 0.659008 0.831046
vt 0.659008 0.736343
vt 0.684510 0.736343
vt 0.182216 0.575277
vt 0.182216 0.692124
vt 0.005627 0.692124
vt 0.005626 0.575277
vt 0.182216 0.723590
vt 0.182216 0.840438
vt 0.005626 0.840437
vt 0.005626 0.723590
vt 0.182216 0.542924
vt 0.182216 0.553856
vt 0.005626 0.553857
vt 0.005626 0.542925
vt 0.182216 0.564345
vt 0.005626 0.564345
vt 0.605037 0.740006
vt 0.594549 0.743088
vt 0.584060 0.743088
vt 0.573572 0.740006
vt 0.573572 0.623159
vt 0.605037 0.623159
vt 0.264648 0.620513
vt 0.254160 0.623594
vt 0.243672 0.623594
vt 0.233183 0.620513
vt 0.233183 0.503665
vt 0.264648 0.503665
vt 0.044775 0.005626
vt 0.161623 0.005626
vt 0.161623 0.221930
vt 0.044775 0.221930
vt 0.193088 0.005626
vt 0.309936 0.005626
vt 0.309936 0.221930
vt 0.193088 0.221930
vt 0.005626 0.005626
vt 0.019956 0.005626
vt 0.019956 0.221930
vt 0.005627 0.221930
vt 0.030445 0.005626
vt 0.030445 0.221930
vt 0.264648 0.350031
vt 0.254160 0.359795
vt 0.243672 0.359795
vt 0.233183 0.350031
vt 0.233183 0.233183
vt 0.264648 0.233183
vt 0.307366 0.350031
vt 0.296878 0.359795
vt 0.286390 0.359795
vt 0.275901 0.350031
vt 0.275901 0.233183
vt 0.307366 0.233183
vt 0.873463 0.037979
vt 0.873463 0.154827
vt 0.696873 0.154826
vt 0.696873 0.037979
vt 0.873463 0.186292
vt 0.873463 0.303140
vt 0.696873 0.303140
vt 0.696873 0.186292
vt 0.873463 0.005626
vt 0.873463 0.016558
vt 0.696873 0.016559
vt 0.696873 0.005627
vt 0.873463 0.027047
vt 0.696873 0.027047
vt 0.882715 0.683623
vt 0.872227 0.686705
vt 0.861738 0.686705
vt 0.851250 0.683623
vt 0.851250 0.566776
vt 0.882715 0.566776
vt 0.647755 0.740006
vt 0.637267 0.743088
vt 0.626778 0.743088
vt 0.616290 0.740006
vt 0.616290 0.623159
vt 0.647755 0.623159
vt 0.497778 0.037979
vt 0.497778 0.154826
vt 0.321189 0.154827
vt 0.321189 0.037979
vt 0.497778 0.186292
vt 0.497778 0.303140
vt 0.321189 0.303140
vt 0.321189 0.186292
vt 0.497778 0.005626
vt 0.497778 0.016558
vt 0.321189 0.016559
vt 0.321189 0.005627
vt 0.497778 0.027047
vt 0.321189 0.027047
vt 0.456887 0.851719
vt 0.453806 0.841230
vt 0.453806 0.830742
vt 0.456887 0.820253
vt 0.573735 0.820253
vt 0.573735 0.851719
vt 0.647755 0.871188
vt 0.637267 0.874270
vt 0.626778 0.874270
vt 0.616290 0.871188
vt 0.616290 0.754341
vt 0.647755 0.754341
vt 0.696873 0.786281
vt 0.696873 0.691578
vt 0.839997 0.691578
vt 0.839997 0.786281
vt 0.696873 0.666075
vt 0.696874 0.571372
vt 0.839997 0.571372
vt 0.839997 0.666076
vt 0.696873 0.817098
vt 0.696873 0.805940
vt 0.839997 0.805940
vt 0.839997 0.817098
vt 0.696873 0.797439
vt 0.839997 0.797439
vt 0.302708 0.777535
vt 0.309936 0.786036
vt 0.309936 0.794537
vt 0.302708 0.803037
vt 0.208005 0.803037
vt 0.208005 0.777535
vt 0.193469 0.550152
vt 0.201970 0.542924
vt 0.210470 0.542924
vt 0.218971 0.550152
vt 0.218971 0.644855
vt 0.193469 0.644856
vt 0.347410 0.623159
vt 0.442113 0.623159
vt 0.442113 0.766282
vt 0.347409 0.766282
vt 0.467615 0.623159
vt 0.562319 0.623159
vt 0.562319 0.766282
vt 0.467615 0.766282
vt 0.321189 0.623159
vt 0.330049 0.623159
vt 0.330049 0.766282
vt 0.321189 0.766282
vt 0.338549 0.623159
vt 0.338550 0.766282
vt 0.699371 0.853853
vt 0.696873 0.845352
vt 0.696873 0.836852
vt 0.699371 0.828351
vt 0.794074 0.828351
vt 0.794074 0.853853
vt 0.876752 0.792661
vt 0.868252 0.795158
vt 0.859751 0.795158
vt 0.851250 0.792661
vt 0.851250 0.697958
vt 0.876752 0.697958
vt 0.509031 0.579553
vt 0.509031 0.462706
vt 0.685620 0.462706
vt 0.685621 0.579553
vt 0.509031 0.431240
vt 0.509031 0.314393
vt 0.685621 0.314393
vt 0.685621 0.431240
vt 0.509031 0.611906
vt 0.509031 0.600974
vt 0.685621 0.600973
vt 0.685621 0.611905
vt 0.509031 0.590485
vt 0.685621 0.590485
vt 0.275901 0.374129
vt 0.286390 0.371048
vt 0.296878 0.371048
vt 0.307367 0.374129
vt 0.307367 0.490977
vt 0.275901 0.490977
vt 0.456887 0.809000
vt 0.453806 0.798512
vt 0.453806 0.788024
vt 0.456887 0.777535
vt 0.573735 0.777535
vt 0.573735 0.809000
vt 0.221930 0.266511
vt 0.221930 0.383358
vt 0.005626 0.383358
vt 0.005626 0.266511
vt 0.221930 0.414824
vt 0.221930 0.531671
vt 0.005627 0.531672
vt 0.005626 0.414824
vt 0.221930 0.233183
vt 0.221930 0.244603
vt 0.005626 0.244603
vt 0.005626 0.233183
vt 0.221930 0.255091
vt 0.005626 0.255091
vt 0.264648 0.487896
vt 0.254160 0.492412
vt 0.243672 0.492412
vt 0.233183 0.487896
vt 0.233183 0.371048
vt 0.264648 0.371048
vt 0.325705 0.809000
vt 0.321189 0.798512
vt 0.321189 0.788024
vt 0.325705 0.777535
vt 0.442553 0.777535
vt 0.442553 0.809000

# vertex normals
vn -1.000000 0.000000 0.000000
vn 1.000000 0.000000 0.000000
vn 0.354956 0.000000 -0.934883
vn -0.354956 0.000000 -0.934883
vn 0.000000 0.000000 -1.000000
vn 0.000000 -1.000000 0.000000
vn 0.000000 0.000000 1.000000
vn 0.000000 1.000000 0.000000
vn 0.354956 0.000000 -0.934883
vn 0.739591 0.000000 -0.673057
vn -0.739591 0.000000 -0.673057
vn 0.354955 0.000000 -0.934883
vn -0.354955 0.000000 -0.934883
vn 0.354956 0.000000 -0.934883
vn -0.354956 0.000000 -0.934883
vn -0.990193 -0.139705 0.000000
vn 0.990193 0.139705 0.000000
vn 0.759761 0.107194 -0.641305
vn -0.759761 -0.107194 -0.641305
vn 0.217498 -0.976061 0.000000
vn -0.217498 0.976061 0.000000
vn -0.354955 0.000000 -0.934883
vn 0.739591 0.000000 -0.673057
vn 0.000000 1.000000 0.000000
vn -0.000000 -1.000000 0.000000
vn -0.000000 -0.289204 -0.957267
vn 0.000000 0.289204 -0.957267
vn 1.000000 0.000000 -0.000000
vn 0.354956 0.000000 -0.934883
vn -0.990193 -0.139705 0.000000
vn 0.990193 0.139705 0.000000
vn 0.479476 0.067649 -0.874944
vn -0.479477 -0.067649 -0.874943
vn 0.000000 -0.000000 -1.000000
vn 0.217498 -0.976061 0.000000
vn -0.217498 0.976061 0.000000

# Mesh
g Cube
usemtl Material
f 1/1/1 2/2/1 3/3/1
f 3/3/1 4/4/1 1/1/1
f 5/5/2 6/6/2 7/7/2
f 7/7/2 8/8/2 5/5/2
f 6/9/3 9/10/3 10/11/3
f 10/11/3 7/12/3 6/9/3
f 11/13/4 1/1/4 4/4/4
f 4/4/4 12/14/4 11/13/4
f 9/10/5 11/13/5 12/14/5
f 12/14/5 10/11/5 9/10/5
f 1/15/6 11/16/6 9/17/6
f 1/15/6 9/17/6 6/18/6
f 1/15/6 6/18/6 5/19/6
f 5/19/6 2/20/6 1/15/6
f 5/5/7 8/8/7 3/3/7
f 3/3/7 2/2/7 5/5/7
f 7/21/8 10/22/8 12/23/8
f 7/21/8 12/23/8 4/24/8
f 7/21/8 4/24/8 3/25/8
f 3/25/8 8/26/8 7/21/8
f 13/27/1 14/28/1 15/29/1
f 15/29/1 16/30/1 13/27/1
f 17/31/2 18/32/2 19/33/2
f 19/33/2 20/34/2 17/31/2
f 18/35/9 21/36/9 22/37/9
f 22/37/9 19/38/9 18/35/9
f 23/39/4 13/27/4 16/30/4
f 16/30/4 24/40/4 23/39/4
f 21/36/5 23/39/5 24/40/5
f 24/40/5 22/37/5 21/36/5
f 13/41/6 23/42/6 21/43/6
f 13/41/6 21/43/6 18/44/6
f 13/41/6 18/44/6 17/45/6
f 17/45/6 14/46/6 13/41/6
f 17/31/7 20/34/7 15/29/7
f 15/29/7 14/28/7 17/31/7
f 19/47/8 22/48/8 24/49/8
f 19/47/8 24/49/8 16/50/8
f 19/47/8 16/50/8 15/51/8
f 15/51/8 20/52/8 19/47/8
f 25/53/1 26/54/1 27/55/1
f 27/55/1 28/56/1 25/53/1
f 29/57/2 30/58/2 31/59/2
f 31/59/2 32/60/2 29/57/2
f 30/61/10 33/62/10 34/63/10
f 34/63/10 31/64/10 30/61/10
f 35/65/11 25/53/11 28/56/11
f 28/56/11 36/66/11 35/65/11
f 33/62/5 35/65/5 36/66/5
f 36/66/5 34/63/5 33/62/5
f 25/67/6 35/68/6 33/69/6
f 25/67/6 33/69/6 30/70/6
f 25/67/6 30/70/6 29/71/6
f 29/71/6 26/72/6 25/67/6
f 29/57/7 32/60/7 27/55/7
f 27/55/7 26/54/7 29/57/7
f 31/73/8 34/74/8 36/75/8
f 31/73/8 36/75/8 28/76/8
f 31/73/8 28/76/8 27/77/8
f 27/77/8 32/78/8 31/73/8
f 37/79/1 38/80/1 39/81/1
f 39/81/1 40/82/1 37/79/1
f 41/83/2 42/84/2 43/85/2
f 43/85/2 44/86/2 41/83/2
f 42/87/12 45/88/12 46/89/12
f 46/89/12 43/90/12 42/87/12
f 47/91/13 37/79/13 40/82/13
f 40/82/13 48/92/13 47/91/13
f 45/88/5 47/91/5 48/92/5
f 48/92/5 46/89/5 45/88/5
f 37/93/6 47/94/6 45/95/6
f 37/93/6 45/95/6 42/96/6
f 37/93/6 42/96/6 41/97/6
f 41/97/6 38/98/6 37/93/6
f 41/83/7 44/86/7 39/81/7
f 39/81/7 38/80/7 41/83/7
f 43/99/8 46/100/8 48/101/8
f 43/99/8 48/101/8 40/102/8
f 43/99/8 40/102/8 39/103/8
f 39/103/8 44/104/8 43/99/8
f 49/105/1 50/106/1 51/107/1
f 51/107/1 52/108/1 49/105/1
f 53/109/2 54/110/2 55/111/2
f 55/111/2 56/112/2 53/109/2
f 54/113/14 57/114/14 58/115/14
f 58/115/14 55/116/14 54/113/14
f 59/117/15 49/105/15 52/108/15
f 52/108/15 60/118/15 59/117/15
f 57/114/5 59/117/5 60/118/5
f 60/118/5 58/115/5 57/114/5
f 49/119/6 59/120/6 57/121/6
f 49/119/6 57/121/6 54/122/6
f 49/119/6 54/122/6 53/123/6
f 53/123/6 50/124/6 49/119/6
f 53/109/7 56/112/7 51/107/7
f 51/107/7 50/106/7 53/109/7
f 55/125/8 58/126/8 60/127/8
f 55/125/8 60/127/8 52/128/8
f 55/125/8 52/128/8 51/129/8
f 51/129/8 56/130/8 55/125/8
f 61/131/16 62/132/16 63/133/16
f 63/133/16 64/134/16 61/131/16
f 65/135/17 66/136/17 67/137/17
f 67/137/17 68/138/17 65/135/17
f 66/139/18 69/140/18 70/141/18
f 70/141/18 67/142/18 66/139/18
f 71/143/19 61/131/19 64/134/19
f 64/134/19 72/144/19 71/143/19
f 69/140/5 71/143/5 72/144/5
f 72/144/5 70/141/5 69/140/5
f 61/145/20 71/146/20 69/147/20
f 61/145/20 69/147/20 66/148/20
f 61/145/20 66/148/20 65/149/20
f 65/149/20 62/150/20 61/145/20
f 65/135/7 68/138/7 63/133/7
f 63/133/7 62/132/7 65/135/7
f 67/151/21 70/152/21 72/153/21
f 67/151/21 72/153/21 64/154/21
f 67/151/21 64/154/21 63/155/21
f 63/155/21 68/156/21 67/151/21
f 73/157/1 74/158/1 75/159/1
f 75/159/1 76/160/1 73/157/1
f 77/161/2 78/162/2 79/163/2
f 79/163/2 80/164/2 77/161/2
f 78/165/3 81/166/3 82/167/3
f 82/167/3 79/168/3 78/165/3
f 83/169/22 73/157/22 76/160/22
f 76/160/22 84/170/22 83/169/22
f 81/166/5 83/169/5 84/170/5
f 84/170/5 82/167/5 81/166/5
f 73/171/6 83/172/6 81/173/6
f 73/171/6 81/173/6 78/174/6
f 73/171/6 78/174/6 77/175/6
f 77/175/6 74/176/6 73/171/6
f 77/161/7 80/164/7 75/159/7
f 75/159/7 74/158/7 77/161/7
f 79/177/8 82/178/8 84/179/8
f 79/177/8 84/179/8 76/180/8
f 79/177/8 76/180/8 75/181/8
f 75/181/8 80/182/8 79/177/8
f 85/183/1 86/184/1 87/185/1
f 87/185/1 88/186/1 85/183/1
f 89/187/2 90/188/2 91/189/2
f 91/189/2 92/190/2 89/187/2
f 90/191/9 93/192/9 94/193/9
f 94/193/9 91/194/9 90/191/9
f 95/195/4 85/183/4 88/186/4
f 88/186/4 96/196/4 95/195/4
f 93/192/5 95/195/5 96/196/5
f 96/196/5 94/193/5 93/192/5
f 85/197/6 95/198/6 93/199/6
f 85/197/6 93/199/6 90/200/6
f 85/197/6 90/200/6 89/201/6
f 89/201/6 86/202/6 85/197/6
f 89/187/7 92/190/7 87/185/7
f 87/185/7 86/184/7 89/187/7
f 91/203/8 94/204/8 96/205/8
f 91/203/8 96/205/8 88/206/8
f 91/203/8 88/206/8 87/207/8
f 87/207/8 92/208/8 91/203/8
f 97/209/1 98/210/1 99/211/1
f 99/211/1 100/212/1 97/209/1
f 101/213/2 102/214/2 103/215/2
f 103/215/2 104/216/2 101/213/2
f 102/217/23 105/218/23 106/219/23
f 106/219/23 103/220/23 102/217/23
f 107/221/11 97/209/11 100/212/11
f 100/212/11 108/222/11 107/221/11
f 105/218/5 107/221/5 108/222/5
f 108/222/5 106/219/5 105/218/5
f 97/223/6 107/224/6 105/225/6
f 97/223/6 105/225/6 102/226/6
f 97/223/6 102/226/6 101/227/6
f 101/227/6 98/228/6 97/223/6
f 101/213/7 104/216/7 99/211/7
f 99/211/7 98/210/7 101/213/7
f 103/229/8 106/230/8 108/231/8
f 103/229/8 108/231/8 100/232/8
f 103/229/8 100/232/8 99/233/8
f 99/233/8 104/234/8 103/229/8
f 109/235/24 110/236/24 111/237/24
f 111/237/24 112/238/24 109/235/24
f 113/239/25 114/240/25 115/241/25
f 115/241/25 116/242/25 113/239/25
f 114/243/26 117/244/26 118/245/26
f 118/245/26 115/246/26 114/243/26
f 119/247/27 109/235/27 112/238/27
f 112/238/27 120/248/27 119/247/27
f 117/244/5 119/247/5 120/248/5
f 120/248/5 118/245/5 117/244/5
f 109/249/1 119/250/1 117/251/1
f 109/249/1 117/251/1 114/252/1
f 109/249/1 114/252/1 113/253/1
f 113/253/1 110/254/1 109/249/1
f 113/239/7 116/242/7 111/237/7
f 111/237/7 110/236/7 113/239/7
f 115/255/28 118/256/28 120/257/28
f 115/255/28 120/257/28 112/258/28
f 115/255/28 112/258/28 111/259/28
f 111/259/28 116/260/28 115/255/28
f 121/261/1 122/262/1 123/263/1
f 123/263/1 124/264/1 121/261/1
f 125/265/2 126/266/2 127/267/2
f 127/267/2 128/268/2 125/265/2
f 126/269/29 129/270/29 130/271/29
f 130/271/29 127/272/29 126/269/29
f 131/273/4 121/261/4 124/264/4
f 124/264/4 132/274/4 131/273/4
f 129/270/5 131/273/5 132/274/5
f 132/274/5 130/271/5 129/270/5
f 121/275/6 131/276/6 129/277/6
f 121/275/6 129/277/6 126/278/6
f 121/275/6 126/278/6 125/279/6
f 125/279/6 122/280/6 121/275/6
f 125/265/7 128/268/7 123/263/7
f 123/263/7 122/262/7 125/265/7
f 127/281/8 130/282/8 132/283/8
f 127/281/8 132/283/8 124/284/8
f 127/281/8 124/284/8 123/285/8
f 123/285/8 128/286/8 127/281/8
f 133/287/30 134/288/30 135/289/30
f 135/289/30 136/290/30 133/287/30
f 137/291/31 138/292/31 139/293/31
f 139/293/31 140/294/31 137/291/31
f 138/295/32 141/296/32 142/297/32
f 142/297/32 139/298/32 138/295/32
f 143/299/33 133/287/33 136/290/33
f 136/290/33 144/300/33 143/299/33
f 141/296/34 143/299/34 144/300/34
f 144/300/34 142/297/34 141/296/34
f 133/301/35 143/302/35 141/303/35
f 133/301/35 141/303/35 138/304/35
f 133/301/35 138/304/35 137/305/35
f 137/305/35 134/306/35 133/301/35
f 137/291/7 140/294/7 135/289/7
f 135/289/7 134/288/7 137/291/7
f 139/307/36 142/308/36 144/309/36
f 139/307/36 144/309/36 136/310/36
f 139/307/36 136/310/36 135/311/36
f 135/311/36 140/312/36 139/307/36
