# File produced by Open Asset Import Library (http://www.assimp.sf.net)
# (assimp v3.1.113183908)

mtllib fakkel.mtl

# vertex positions
v 0.081778 -0.251058 -0.016170
v 0.049806 -0.254426 -0.032341
v -0.037461 0.134808 -0.071021
v 0.032751 0.142205 -0.035511
v 0.081778 -0.251058 0.016170
v 0.032751 0.142205 0.035511
v 0.049806 -0.254426 0.032341
v -0.037461 0.134808 0.071021
v 0.017834 -0.257795 0.016170
v -0.107673 0.127411 0.035511
v 0.019409 0.140800 -0.028763
v -0.037461 0.134808 -0.057525
v 0.017834 -0.257795 -0.016170
v -0.107673 0.127411 -0.035511
v 0.049806 -0.254426 0.000000
v -0.000127 -0.031709 -0.043517
v -0.094331 0.128817 -0.028763
v -0.043149 -0.036241 -0.021758
v -0.037461 0.134808 0.057525
v 0.019409 0.140800 0.028763
v -0.094331 0.128817 0.028763
v -0.043149 -0.036241 0.021758
v -0.000127 -0.031709 0.000000
v -0.000127 -0.031709 0.043517
v 0.042894 -0.027176 0.021758
v 0.042894 -0.027176 -0.021758
v 0.071369 -0.053549 0.032906
v 0.071369 -0.053549 -0.032906
v 0.058367 0.004443 -0.032906
v 0.058367 0.004443 0.032906
v 0.040010 -0.210733 -0.044932
v -0.004410 -0.215413 -0.022466
v 0.040010 -0.210733 0.000000
v 0.051815 0.097921 -0.040024
v -0.027322 0.089584 -0.080049
v -0.032502 0.112689 -0.080049
v 0.046635 0.121027 -0.040024
v 0.006306 -0.060404 0.065813
v -0.006696 -0.002411 0.065813
v -0.001502 -0.228382 0.022466
v 0.042918 -0.223702 0.044932
v 0.040010 -0.210733 0.044932
v -0.004410 -0.215413 0.022466
v 0.051815 0.097921 0.040024
v 0.046635 0.121027 0.040024
v -0.001502 -0.228382 -0.022466
v 0.042918 -0.223702 0.000000
v 0.087338 -0.219022 0.022466
v 0.084431 -0.206053 0.022466
v -0.027322 0.089584 0.080049
v -0.032502 0.112689 0.080049
v 0.042918 -0.223702 -0.044932
v 0.087338 -0.219022 -0.022466
v 0.084431 -0.206053 -0.022466
v -0.106459 0.081246 0.040024
v -0.111639 0.104352 0.040024
v -0.032502 0.112689 0.000000
v -0.106459 0.081246 -0.040024
v -0.111639 0.104352 -0.040024
v 0.006306 -0.060404 -0.065813
v -0.006696 -0.002411 -0.065813
v -0.027322 0.089584 0.000000
v -0.058757 -0.067259 0.032906
v -0.071759 -0.009266 0.032906
v -0.006696 -0.002411 0.000000
v -0.058757 -0.067259 -0.032906
v -0.071759 -0.009266 -0.032906
v 0.006306 -0.060404 0.000000
v 0.164256 -0.106330 -0.100000
v 0.164256 -0.106330 0.100000
v 0.164256 0.052014 0.100000
v 0.164256 0.052014 -0.100000
v 0.188361 -0.106330 -0.100000
v 0.188361 0.052014 -0.100000
v 0.188361 -0.106330 0.100000
v 0.188361 0.052014 0.100000
v 0.163376 -0.052322 -0.029498
v 0.163376 -0.005614 -0.029498
v 0.163376 -0.052322 0.029498
v 0.163376 -0.005614 0.029498

# UV coordinates
vt 0.049985 0.161881
vt 0.051820 0.130431
vt 0.441161 0.136848
vt 0.439265 0.186857
vt 0.046603 0.193312
vt 0.438616 0.239075
vt 0.041578 0.224829
vt 0.441802 0.295922
vt 0.034686 0.256688
vt 0.464232 0.363735
vt 0.449785 0.187501
vt 0.451159 0.137945
vt 0.052156 0.098764
vt 0.050812 0.071633
vt 0.468238 0.034686
vt 0.446659 0.088498
vt 0.180394 0.957644
vt 0.157605 0.944487
vt 0.180394 0.931330
vt 0.189352 0.569020
vt 0.036891 0.543005
vt 0.049992 0.487164
vt 0.206134 0.546407
vt 0.454026 0.293850
vt 0.449761 0.239194
vt 0.455739 0.091071
vt 0.475451 0.351282
vt 0.475451 0.044190
vt 0.246610 0.526786
vt 0.233634 0.592979
vt 0.246610 0.661243
vt 0.082922 0.749291
vt 0.060634 0.704380
vt 0.203754 0.638765
vt 0.188047 0.614906
vt 0.043019 0.653004
vt 0.034686 0.598875
vt 0.184140 0.591794
vt 0.073170 0.433107
vt 0.034686 0.905016
vt 0.088234 0.905016
vt 0.088234 0.965314
vt 0.034686 0.965314
vt 0.889124 0.801879
vt 0.889124 0.765320
vt 0.920785 0.783599
vt 0.800946 0.164948
vt 0.800946 0.230079
vt 0.776922 0.230079
vt 0.776922 0.164948
vt 0.544823 0.517025
vt 0.544823 0.463477
vt 0.605121 0.463477
vt 0.605121 0.517025
vt 0.883803 0.034686
vt 0.883803 0.071245
vt 0.870318 0.071245
vt 0.870318 0.034686
vt 0.800946 0.099817
vt 0.776922 0.099817
vt 0.868272 0.570573
vt 0.899933 0.588852
vt 0.868272 0.607132
vt 0.883803 0.107803
vt 0.870318 0.107803
vt 0.800946 0.034686
vt 0.776922 0.034686
vt 0.883803 0.180921
vt 0.883803 0.217480
vt 0.870318 0.217480
vt 0.870318 0.180921
vt 0.883803 0.144362
vt 0.870318 0.144362
vt 0.800946 0.360341
vt 0.800946 0.425472
vt 0.776922 0.425472
vt 0.776922 0.360341
vt 0.372387 0.690006
vt 0.428792 0.722571
vt 0.372387 0.755137
vt 0.800946 0.295210
vt 0.776922 0.295210
vt 0.315982 0.889639
vt 0.369530 0.889639
vt 0.369530 0.949937
vt 0.315982 0.949937
vt 0.883803 0.254039
vt 0.870318 0.254039
vt 0.601228 0.747040
vt 0.657633 0.779606
vt 0.601228 0.812171
vt 0.544823 0.570573
vt 0.605121 0.570573
vt 0.773378 0.747040
vt 0.819752 0.773814
vt 0.773378 0.800588
vt 0.544823 0.624121
vt 0.605121 0.624121
vt 0.544823 0.677669
vt 0.605121 0.677669
vt 0.767240 0.650895
vt 0.720866 0.677669
vt 0.720866 0.624121
vt 0.836611 0.625411
vt 0.836611 0.588852
vt 0.899933 0.625411
vt 0.868272 0.643691
vt 0.952445 0.765320
vt 0.952445 0.801879
vt 0.920785 0.747040
vt 0.920785 0.820158
vt 0.674492 0.650895
vt 0.773378 0.854136
vt 0.727005 0.827362
vt 0.727005 0.773814
vt 0.819752 0.827362
vt 0.767240 0.597347
vt 0.674492 0.597347
vt 0.720866 0.570573
vt 0.315982 0.722571
vt 0.428792 0.787702
vt 0.372387 0.820268
vt 0.601228 0.877302
vt 0.544823 0.844737
vt 0.315982 0.787702
vt 0.657633 0.844737
vt 0.544823 0.779606
vt 0.203182 0.944487
vt 0.157605 0.918173
vt 0.180394 0.905016
vt 0.203182 0.918173
vt 0.707551 0.051668
vt 0.707551 0.214396
vt 0.544823 0.214396
vt 0.544823 0.051668
vt 0.707551 0.034686
vt 0.544823 0.034686
vt 0.707551 0.231378
vt 0.707551 0.394106
vt 0.544823 0.394106
vt 0.544823 0.231378
vt 0.197414 0.835645
vt 0.034686 0.835645
vt 0.034686 0.818663
vt 0.197414 0.818663
vt 0.887300 0.323410
vt 0.887300 0.486138
vt 0.870318 0.486138
vt 0.870318 0.323410
vt 0.390011 0.555804
vt 0.325134 0.557065
vt 0.315982 0.497466
vt 0.390011 0.507803
vt 0.438012 0.555804
vt 0.438012 0.507803
vt 0.948890 0.897522
vt 0.948890 0.962411
vt 0.900898 0.963344
vt 0.889124 0.889529
vt 0.440786 0.620634
vt 0.387238 0.620634
vt 0.387238 0.433107
vt 0.440786 0.433107

# vertex normals
vn 0.450263 0.012226 -0.892812
vn 0.992318 0.123711 0.000000
vn 0.450263 0.012226 0.892812
vn -0.428126 -0.183916 0.884807
vn -0.104777 0.994496 -0.000000
vn -0.950805 -0.309790 0.000000
vn -0.428126 -0.183916 -0.884807
vn 0.104776 -0.994496 0.000000
vn 0.430265 0.171031 0.886352
vn -0.104778 0.994496 0.000000
vn -0.104775 0.994496 -0.000000
vn -0.104775 0.994496 0.000000
vn -0.104776 0.994496 0.000000
vn -0.104777 0.994496 0.000000
vn -0.104776 0.994496 0.000000
vn 0.430265 0.171031 -0.886352
vn -0.990367 -0.138465 0.000000
vn 0.955134 0.296174 0.000000
vn -0.449032 -0.025538 -0.893151
vn -0.449032 -0.025538 0.893151
vn 0.975776 0.218772 0.000000
vn -0.104776 0.994496 -0.000001
vn 0.440803 0.098829 -0.892147
vn 0.440802 0.098829 0.892147
vn -0.440803 -0.098829 0.892147
vn 0.975776 0.218772 0.000000
vn 0.104776 -0.994496 0.000000
vn 0.440802 0.098829 0.892147
vn 0.440803 0.098829 0.892147
vn -0.440802 -0.098829 -0.892147
vn 0.975776 0.218772 0.000000
vn -0.440802 -0.098829 0.892147
vn -0.104776 0.994496 -0.000000
vn 0.440802 0.098829 -0.892147
vn -0.975776 -0.218772 0.000000
vn 0.440802 0.098829 -0.892147
vn -0.975776 -0.218772 0.000000
vn -0.440802 -0.098829 -0.892147
vn 0.104776 -0.994496 0.000000
vn -0.440803 -0.098829 0.892147
vn -0.104776 0.994496 -0.000000
vn -0.975776 -0.218772 0.000000
vn -0.440803 -0.098829 -0.892147
vn 0.104776 -0.994496 0.000000
vn 0.104776 -0.994496 0.000000
vn 0.104776 -0.994496 -0.000000
vn -0.104776 0.994496 0.000001
vn -0.104776 0.994496 0.000001
vn -0.104776 0.994496 -0.000001
vn 0.104776 -0.994496 -0.000000
vn -0.104776 0.994496 0.000000
vn -0.104776 0.994496 0.000000
vn -0.104776 0.994496 0.000000
vn 0.104776 -0.994496 0.000000
vn 0.104776 -0.994496 0.000000
vn -0.104776 0.994496 0.000000
vn -0.104777 0.994496 -0.000000
vn -0.104776 0.994496 -0.000000
vn 0.104776 -0.994496 0.000000
vn -0.104776 0.994496 0.000000
vn 0.104776 -0.994496 0.000000
vn 0.104776 -0.994496 0.000000
vn 0.104777 -0.994496 0.000000
vn -0.104776 0.994496 0.000000
vn -0.104776 0.994496 0.000000
vn -0.104776 0.994496 0.000000
vn -0.104776 0.994496 -0.000000
vn -0.104776 0.994496 0.000000
vn 0.104776 -0.994496 0.000000
vn 0.104775 -0.994496 0.000000
vn -1.000000 0.000000 0.000000
vn 0.000000 0.000000 -1.000000
vn 1.000000 0.000000 0.000000
vn 0.000000 0.000000 1.000000
vn 0.000000 -1.000000 0.000000
vn 0.000000 1.000000 0.000000
vn 0.034775 0.004319 -0.999386
vn 0.034775 0.004319 0.999386
vn 0.013336 -0.999911 0.000000
vn 0.095342 0.995445 0.000000

# Mesh
g Cylinder
usemtl DefaultMaterial
f 1/1/1 2/2/1 3/3/1
f 3/3/1 4/4/1 1/1/1
f 5/5/2 1/1/2 4/4/2
f 4/4/2 6/6/2 5/5/2
f 7/7/3 5/5/3 6/6/3
f 6/6/3 8/8/3 7/7/3
f 9/9/4 7/7/4 8/8/4
f 8/8/4 10/10/4 9/9/4
f 11/11/5 4/4/5 3/3/5
f 3/3/5 12/12/5 11/11/5
f 13/13/6 9/14/6 10/15/6
f 10/15/6 14/16/6 13/13/6
f 2/2/7 13/13/7 14/16/7
f 14/16/7 3/3/7 2/2/7
f 5/17/8 7/18/8 15/19/8
f 16/20/9 12/21/9 17/22/9
f 17/22/9 18/23/9 16/20/9
f 19/24/10 8/8/10 6/6/10
f 6/6/10 20/25/10 19/24/10
f 12/12/11 3/3/11 14/16/11
f 14/16/11 17/26/11 12/12/11
f 21/27/12 10/10/12 8/8/12
f 8/8/12 19/24/12 21/27/12
f 20/25/13 6/6/13 4/4/13
f 4/4/13 11/11/13 20/25/13
f 17/26/14 14/16/14 10/15/14
f 10/15/14 21/28/14 17/26/14
f 18/23/15 22/29/15 23/30/15
f 22/31/16 21/32/16 19/33/16
f 19/33/16 24/34/16 22/31/16
f 25/35/17 20/36/17 11/37/17
f 11/37/17 26/38/17 25/35/17
f 18/23/18 17/22/18 21/39/18
f 21/39/18 22/29/18 18/23/18
f 24/34/19 19/33/19 20/36/19
f 20/36/19 25/35/19 24/34/19
f 26/38/20 11/37/20 12/21/20
f 12/21/20 16/20/20 26/38/20
f 27/40/21 28/41/21 29/42/21
f 29/42/21 30/43/21 27/40/21
f 31/44/22 32/45/22 33/46/22
f 34/47/23 35/48/23 36/49/23
f 36/49/23 37/50/23 34/47/23
f 38/51/24 27/52/24 30/53/24
f 30/53/24 39/54/24 38/51/24
f 40/55/25 41/56/25 42/57/25
f 42/57/25 43/58/25 40/55/25
f 44/59/26 34/47/26 37/50/26
f 37/50/26 45/60/26 44/59/26
f 40/61/27 46/62/27 47/63/27
f 41/56/28 48/64/28 49/65/28
f 49/65/28 42/57/28 41/56/28
f 50/66/29 44/59/29 45/60/29
f 45/60/29 51/67/29 50/66/29
f 52/68/30 46/69/30 32/70/30
f 32/70/30 31/71/30 52/68/30
f 48/64/31 53/72/31 54/73/31
f 54/73/31 49/65/31 48/64/31
f 55/74/32 50/75/32 51/76/32
f 51/76/32 56/77/32 55/74/32
f 45/78/33 37/79/33 57/80/33
f 53/72/34 52/68/34 31/71/34
f 31/71/34 54/73/34 53/72/34
f 58/81/35 55/74/35 56/77/35
f 56/77/35 59/82/35 58/81/35
f 28/83/36 60/84/36 61/85/36
f 61/85/36 29/86/36 28/83/36
f 46/69/37 40/87/37 43/88/37
f 43/88/37 32/70/37 46/69/37
f 35/48/38 58/81/38 59/82/38
f 59/82/38 36/49/38 35/48/38
f 50/89/39 55/90/39 62/91/39
f 63/92/40 38/51/40 39/54/40
f 39/54/40 64/93/40 63/92/40
f 39/94/41 30/95/41 65/96/41
f 66/97/42 63/92/42 64/93/42
f 64/93/42 67/98/42 66/97/42
f 60/99/43 66/97/43 67/98/43
f 67/98/43 61/100/43 60/99/43
f 28/101/44 27/102/44 68/103/44
f 48/104/45 41/105/45 47/63/27
f 52/106/46 53/107/46 47/63/27
f 46/62/27 52/106/46 47/63/27
f 41/105/45 40/61/27 47/63/27
f 53/107/46 48/104/45 47/63/27
f 42/108/47 49/109/47 33/46/22
f 43/110/48 42/108/47 33/46/22
f 54/111/49 31/44/22 33/46/22
f 49/109/47 54/111/49 33/46/22
f 32/45/22 43/110/48 33/46/22
f 27/102/44 38/112/50 68/103/44
f 61/113/51 67/114/51 65/96/41
f 64/115/52 39/94/41 65/96/41
f 30/95/41 29/116/53 65/96/41
f 67/114/51 64/115/52 65/96/41
f 29/116/53 61/113/51 65/96/41
f 60/117/54 28/101/44 68/103/44
f 63/118/55 66/119/55 68/103/44
f 51/120/56 45/78/33 57/80/33
f 66/119/55 60/117/54 68/103/44
f 38/112/50 63/118/55 68/103/44
f 37/79/33 36/121/57 57/80/33
f 36/121/57 59/122/58 57/80/33
f 35/123/59 34/124/59 62/91/39
f 56/125/60 51/120/56 57/80/33
f 59/122/58 56/125/60 57/80/33
f 55/90/39 58/126/61 62/91/39
f 58/126/61 35/123/59 62/91/39
f 34/124/59 44/127/62 62/91/39
f 44/127/62 50/89/39 62/91/39
f 1/128/63 5/17/8 15/19/8
f 24/34/64 25/35/64 23/30/64
f 26/38/65 16/20/65 23/30/65
f 16/20/66 18/23/66 23/30/66
f 22/31/67 24/34/67 23/30/67
f 25/35/68 26/38/68 23/30/68
f 7/18/8 9/129/69 15/19/8
f 13/130/70 2/131/70 15/19/8
f 9/129/69 13/130/70 15/19/8
f 2/131/70 1/128/63 15/19/8
f 69/132/71 70/133/71 71/134/71
f 71/134/71 72/135/71 69/132/71
f 73/136/72 69/132/72 72/135/72
f 72/135/72 74/137/72 73/136/72
f 75/138/73 73/139/73 74/140/73
f 74/140/73 76/141/73 75/138/73
f 70/133/74 75/138/74 76/141/74
f 76/141/74 71/134/74 70/133/74
f 70/142/75 69/143/75 73/144/75
f 73/144/75 75/145/75 70/142/75
f 76/146/76 74/147/76 72/148/76
f 72/148/76 71/149/76 76/146/76
f 77/150/77 28/151/77 29/152/77
f 29/152/77 78/153/77 77/150/77
f 79/154/73 77/150/73 78/153/73
f 78/153/73 80/155/73 79/154/73
f 27/156/78 79/157/78 80/158/78
f 80/158/78 30/159/78 27/156/78
f 27/160/79 28/161/79 77/150/79
f 77/150/79 79/154/79 27/160/79
f 80/155/80 78/153/80 29/162/80
f 29/162/80 30/163/80 80/155/80
