# File produced by Open Asset Import Library (http://www.assimp.sf.net)
# (assimp v3.1.113183908)

mtllib tafel.mtl

# vertex positions
v 0.369797 0.295767 0.029486
v 0.369797 0.295767 -0.022978
v 0.369797 0.349017 -0.022978
v 0.369797 0.349017 0.029486
v 0.356652 0.085345 -0.070589
v -0.356652 0.085345 -0.070589
v -0.356652 0.085345 -0.103061
v 0.356652 0.085345 -0.103061
v -0.500000 0.500000 0.206684
v -0.500000 0.477655 0.206684
v 0.500000 0.477655 0.206684
v 0.500000 0.500000 0.206684
v 0.500000 0.477655 -0.193316
v 0.500000 0.500000 -0.193316
v -0.500000 0.477655 -0.193316
v -0.369797 0.349017 0.029486
v -0.369797 0.295767 0.029486
v -0.500000 0.500000 -0.193316
v -0.369797 0.349017 -0.022978
v -0.369797 0.295767 -0.022978
v 0.356652 0.135204 -0.103061
v 0.356652 0.135204 -0.070589
v 0.356652 0.085345 0.102414
v -0.356652 0.085345 0.102414
v -0.356652 0.085345 0.069942
v 0.356652 0.085345 0.069942
v -0.356652 0.135204 -0.103061
v -0.356652 0.135204 -0.070589
v 0.356652 0.135204 0.069942
v 0.356652 0.135204 0.102414
v -0.356652 0.135204 0.069942
v -0.356652 0.135204 0.102414
v 0.354410 0.085205 -0.079514
v 0.342908 0.085205 -0.072398
v 0.342908 0.000000 -0.072398
v 0.354410 0.000000 -0.079514
v 0.354410 0.085205 -0.093745
v 0.354410 0.000000 -0.093745
v 0.342908 0.085205 -0.100861
v 0.342908 0.000000 -0.100861
v 0.331406 0.085205 -0.093745
v 0.331406 0.000000 -0.093745
v 0.342908 0.000000 -0.086629
v 0.331406 0.085205 -0.079514
v 0.331406 0.000000 -0.079514
v 0.342908 0.085205 -0.086629
v 0.354410 0.084877 0.093745
v 0.342908 0.084877 0.100861
v 0.342908 0.000000 0.100861
v 0.354410 0.000000 0.093745
v 0.354410 0.084877 0.079514
v 0.354410 0.000000 0.079514
v 0.342908 0.084877 0.072398
v 0.342908 0.000000 0.072398
v 0.331406 0.084877 0.079514
v 0.331406 0.000000 0.079514
v 0.342908 0.000000 0.086629
v 0.331406 0.084877 0.093745
v 0.331406 0.000000 0.093745
v 0.342908 0.084877 0.086629
v 0.328979 0.292469 0.010551
v 0.328979 0.292469 -0.004043
v 0.315359 0.292469 -0.004043
v 0.315359 0.292469 0.010551
v 0.315359 0.139041 0.010551
v 0.328979 0.139041 0.010551
v 0.328979 0.139041 -0.004043
v 0.315359 0.139041 -0.004043
v 0.328979 0.469569 0.010551
v 0.328979 0.469569 -0.004043
v 0.315359 0.469569 -0.004043
v 0.315359 0.469569 0.010551
v 0.315359 0.352672 0.010551
v 0.328979 0.352672 0.010551
v 0.328979 0.352672 -0.004043
v 0.315359 0.352672 -0.004043
v 0.328979 0.089616 0.069830
v 0.328979 0.135683 0.069830
v 0.315359 0.135683 0.069830
v 0.315359 0.089616 0.069830
v 0.315359 0.089616 -0.070465
v 0.328979 0.089616 -0.070465
v 0.328979 0.135683 -0.070465
v 0.315359 0.135683 -0.070465
v -0.342908 0.000000 -0.072398
v -0.342908 0.085205 -0.072398
v -0.354410 0.085205 -0.079514
v -0.354410 0.000000 -0.079514
v -0.354410 0.085205 -0.093745
v -0.354410 0.000000 -0.093745
v -0.342908 0.085205 -0.100861
v -0.342908 0.000000 -0.100861
v -0.331406 0.085205 -0.093745
v -0.331406 0.000000 -0.093745
v -0.342908 0.000000 -0.086629
v -0.331406 0.085205 -0.079514
v -0.331406 0.000000 -0.079514
v -0.342908 0.085205 -0.086629
v -0.342908 0.000000 0.100861
v -0.342908 0.084877 0.100861
v -0.354410 0.084877 0.093745
v -0.354410 0.000000 0.093745
v -0.354410 0.084877 0.079514
v -0.354410 0.000000 0.079514
v -0.342908 0.084877 0.072398
v -0.342908 0.000000 0.072398
v -0.331406 0.084877 0.079514
v -0.331406 0.000000 0.079514
v -0.342908 0.000000 0.086629
v -0.331406 0.084877 0.093745
v -0.331406 0.000000 0.093745
v -0.342908 0.084877 0.086629
v -0.315359 0.292469 -0.004043
v -0.328979 0.292469 -0.004043
v -0.328979 0.292469 0.010551
v -0.315359 0.292469 0.010551
v -0.328979 0.139041 0.010551
v -0.315359 0.139041 0.010551
v -0.328979 0.139041 -0.004043
v -0.315359 0.139041 -0.004043
v -0.315359 0.469569 -0.004043
v -0.328979 0.469569 -0.004043
v -0.328979 0.469569 0.010551
v -0.315359 0.469569 0.010551
v -0.328979 0.352672 0.010551
v -0.315359 0.352672 0.010551
v -0.328979 0.352672 -0.004043
v -0.315359 0.352672 -0.004043
v -0.315359 0.135683 0.069830
v -0.328979 0.135683 0.069830
v -0.328979 0.089616 0.069830
v -0.315359 0.089616 0.069830
v -0.328979 0.089616 -0.070465
v -0.315359 0.089616 -0.070465
v -0.328979 0.135683 -0.070465
v -0.315359 0.135683 -0.070465

# UV coordinates
vt 0.419800 0.303233
vt 0.419800 0.284649
vt 0.438663 0.284649
vt 0.438663 0.303233
vt 0.004074 0.392269
vt 0.256753 0.392269
vt 0.256753 0.403772
vt 0.004074 0.403771
vt 0.303760 0.145772
vt 0.311675 0.145772
vt 0.311675 0.500004
vt 0.303760 0.500004
vt 0.311675 0.641699
vt 0.303760 0.641699
vt 0.295611 0.358309
vt 0.153917 0.358309
vt 0.153917 0.004074
vt 0.295611 0.004074
vt 0.491486 0.266064
vt 0.472623 0.266064
vt 0.472623 0.004074
vt 0.491486 0.004074
vt 0.004074 0.358309
vt 0.004075 0.004074
vt 0.145768 0.004074
vt 0.145768 0.358309
vt 0.393066 0.500448
vt 0.393067 0.238459
vt 0.411651 0.238459
vt 0.411651 0.500448
vt 0.364220 0.500448
vt 0.345635 0.500448
vt 0.345635 0.238459
vt 0.364220 0.238459
vt 0.419800 0.022659
vt 0.438663 0.022659
vt 0.446812 0.015577
vt 0.446812 0.004074
vt 0.464474 0.004074
vt 0.464474 0.015577
vt 0.499635 0.517580
vt 0.499634 0.264902
vt 0.511137 0.264902
vt 0.511137 0.517580
vt 0.464474 0.268255
vt 0.446812 0.268255
vt 0.384918 0.491137
vt 0.373415 0.491137
vt 0.373414 0.238459
vt 0.384917 0.238459
vt 0.256752 0.366458
vt 0.256752 0.384120
vt 0.004074 0.384120
vt 0.004074 0.366458
vt 0.319824 0.268256
vt 0.319824 0.256754
vt 0.337486 0.256754
vt 0.337486 0.268256
vt 0.337486 0.520932
vt 0.319825 0.520932
vt 0.511137 0.256753
vt 0.499635 0.256753
vt 0.499634 0.004074
vt 0.511137 0.004074
vt 0.319824 0.004074
vt 0.337486 0.004074
vt 0.289884 0.403853
vt 0.294675 0.403853
vt 0.294675 0.434036
vt 0.289884 0.434036
vt 0.284843 0.403853
vt 0.284843 0.434036
vt 0.280052 0.403853
vt 0.280052 0.434036
vt 0.275261 0.403853
vt 0.275261 0.434036
vt 0.058531 0.449640
vt 0.054244 0.446988
vt 0.058531 0.444849
vt 0.270220 0.403853
vt 0.270220 0.434036
vt 0.265429 0.403853
vt 0.265429 0.434036
vt 0.427949 0.426348
vt 0.423874 0.428869
vt 0.423874 0.423827
vt 0.129071 0.416712
vt 0.129071 0.411921
vt 0.159138 0.411921
vt 0.159138 0.416712
vt 0.129071 0.421753
vt 0.159138 0.421753
vt 0.129071 0.426544
vt 0.159138 0.426544
vt 0.129071 0.431335
vt 0.159138 0.431335
vt 0.444246 0.426348
vt 0.440172 0.428869
vt 0.440172 0.423827
vt 0.129071 0.436376
vt 0.159138 0.436376
vt 0.129071 0.441167
vt 0.159138 0.441167
vt 0.419800 0.444579
vt 0.419800 0.439538
vt 0.423874 0.442059
vt 0.249937 0.444883
vt 0.244767 0.444883
vt 0.244767 0.440058
vt 0.249937 0.440058
vt 0.058424 0.427085
vt 0.058424 0.431909
vt 0.004074 0.431909
vt 0.004074 0.427084
vt 0.058424 0.411921
vt 0.058424 0.417090
vt 0.004074 0.417090
vt 0.004074 0.411921
vt 0.058424 0.421915
vt 0.004074 0.421915
vt 0.236619 0.444883
vt 0.231449 0.444883
vt 0.231449 0.440058
vt 0.236619 0.440058
vt 0.089455 0.444883
vt 0.084286 0.444883
vt 0.084286 0.440058
vt 0.089455 0.440058
vt 0.434964 0.311382
vt 0.439789 0.311382
vt 0.439789 0.352791
vt 0.434964 0.352791
vt 0.419800 0.311382
vt 0.424970 0.311382
vt 0.424970 0.352791
vt 0.419800 0.352791
vt 0.429794 0.311382
vt 0.429794 0.352791
vt 0.076137 0.444883
vt 0.070967 0.444883
vt 0.070967 0.440058
vt 0.076137 0.440058
vt 0.411651 0.175788
vt 0.395332 0.175788
vt 0.395332 0.170964
vt 0.411651 0.170964
vt 0.424625 0.410637
vt 0.419800 0.410637
vt 0.419800 0.360940
vt 0.424625 0.360940
vt 0.411651 0.225485
vt 0.395332 0.225485
vt 0.345635 0.175788
vt 0.345635 0.170964
vt 0.411651 0.230310
vt 0.395332 0.230310
vt 0.395332 0.121267
vt 0.411651 0.121267
vt 0.436098 0.421307
vt 0.440172 0.418786
vt 0.423874 0.437018
vt 0.427949 0.439538
vt 0.427949 0.444579
vt 0.423874 0.447100
vt 0.444246 0.421307
vt 0.436098 0.426348
vt 0.062818 0.447501
vt 0.054244 0.442197
vt 0.058531 0.440058
vt 0.062818 0.442710
vt 0.427949 0.421307
vt 0.419800 0.426348
vt 0.419800 0.421307
vt 0.423874 0.418786
vt 0.419800 0.004074
vt 0.438663 0.004074
vt 0.303760 0.004074
vt 0.311675 0.004074
vt 0.464474 0.279758
vt 0.446812 0.279758
vt 0.337486 0.532435
vt 0.319825 0.532435
vt 0.295611 0.395704
vt 0.265429 0.395704
vt 0.265429 0.390913
vt 0.295611 0.390913
vt 0.265429 0.385872
vt 0.295611 0.385872
vt 0.265429 0.381081
vt 0.295611 0.381081
vt 0.265429 0.376290
vt 0.295611 0.376290
vt 0.037521 0.446988
vt 0.041808 0.444849
vt 0.041808 0.449640
vt 0.265429 0.371249
vt 0.295611 0.371249
vt 0.265429 0.366458
vt 0.295611 0.366458
vt 0.025085 0.449640
vt 0.025085 0.444849
vt 0.029372 0.447501
vt 0.197353 0.441167
vt 0.167287 0.441167
vt 0.167287 0.436376
vt 0.197353 0.436376
vt 0.167287 0.431335
vt 0.197353 0.431335
vt 0.167287 0.426544
vt 0.197353 0.426544
vt 0.167287 0.421753
vt 0.197353 0.421753
vt 0.012649 0.446988
vt 0.008362 0.444849
vt 0.012649 0.442197
vt 0.167287 0.416712
vt 0.197353 0.416712
vt 0.167287 0.411921
vt 0.197353 0.411921
vt 0.444246 0.444579
vt 0.440172 0.442059
vt 0.444246 0.439538
vt 0.210326 0.445228
vt 0.205502 0.445228
vt 0.205502 0.440058
vt 0.210326 0.440058
vt 0.066573 0.411921
vt 0.120923 0.411921
vt 0.120923 0.416745
vt 0.066573 0.416745
vt 0.066573 0.426739
vt 0.120923 0.426739
vt 0.120923 0.431909
vt 0.066573 0.431909
vt 0.066573 0.421915
vt 0.120923 0.421915
vt 0.102429 0.445228
vt 0.097604 0.445228
vt 0.097604 0.440058
vt 0.102429 0.440058
vt 0.223300 0.445228
vt 0.218475 0.445228
vt 0.218475 0.440058
vt 0.223300 0.440058
vt 0.205502 0.411921
vt 0.246911 0.411921
vt 0.246911 0.416745
vt 0.205502 0.416745
vt 0.205502 0.426739
vt 0.246911 0.426739
vt 0.246911 0.431909
vt 0.205502 0.431909
vt 0.205502 0.421915
vt 0.246911 0.421915
vt 0.115402 0.445228
vt 0.110578 0.445228
vt 0.110578 0.440058
vt 0.115402 0.440058
vt 0.395332 0.063421
vt 0.395332 0.058596
vt 0.411651 0.058596
vt 0.411651 0.063421
vt 0.437598 0.360940
vt 0.437598 0.410637
vt 0.432774 0.410637
vt 0.432774 0.360940
vt 0.395332 0.008899
vt 0.411651 0.008899
vt 0.345635 0.063421
vt 0.345635 0.058596
vt 0.395332 0.004074
vt 0.411651 0.004074
vt 0.411651 0.113118
vt 0.395332 0.113118
vt 0.004074 0.442710
vt 0.004074 0.447501
vt 0.440172 0.437018
vt 0.436098 0.439538
vt 0.436098 0.444579
vt 0.440172 0.447100
vt 0.008362 0.449640
vt 0.008362 0.440058
vt 0.037521 0.442197
vt 0.046095 0.447501
vt 0.046095 0.442710
vt 0.041808 0.440058
vt 0.020798 0.446988
vt 0.029372 0.442710
vt 0.025085 0.440058
vt 0.020798 0.442197
vt 0.311675 0.995926
vt 0.303760 0.995926

# vertex normals
vn 1.000000 0.000000 0.000000
vn 0.000000 -1.000000 -0.000001
vn 0.000000 0.000000 1.000000
vn 0.000000 -1.000000 0.000000
vn 0.000000 1.000000 0.000000
vn 0.000000 0.000000 -1.000000
vn 0.000000 1.000000 0.000001
vn 0.526110 -0.000000 0.850417
vn 0.526110 0.000000 -0.850417
vn -0.526110 0.000000 -0.850416
vn 0.000002 -1.000000 0.000000
vn -1.000000 0.000000 0.000000
vn -0.526111 -0.000000 0.850416
vn -0.000001 1.000000 0.000002
vn 0.526110 0.000000 0.850417
vn 0.526110 0.000000 -0.850417
vn -0.526110 0.000000 -0.850417
vn 0.000002 -1.000000 0.000002
vn -0.526110 0.000000 0.850417
vn -0.000006 1.000000 0.000000
vn -0.000002 -1.000000 -0.000002
vn 0.000003 1.000000 0.000005
vn 0.000003 1.000000 -0.000005
vn -0.000002 1.000000 -0.000005
vn 0.000003 -1.000000 0.000000
vn -0.000003 -1.000000 0.000000
vn 0.000001 -1.000000 -0.000001
vn 0.000001 -1.000000 0.000001
vn -0.000002 -1.000000 0.000000
vn -0.000003 1.000000 0.000000
vn 0.000001 1.000000 0.000002
vn 0.000004 1.000000 0.000000
vn -1.000000 0.000000 0.000000
vn -0.526110 -0.000000 0.850417
vn -0.526110 0.000000 -0.850417
vn 0.526110 0.000000 -0.850416
vn -0.000002 -1.000000 0.000000
vn 0.526111 -0.000000 0.850416
vn 0.000001 1.000000 0.000002
vn -0.000002 -1.000000 0.000002
vn 0.000006 1.000000 0.000000
vn 0.000002 -1.000000 -0.000002
vn -0.000003 1.000000 0.000005
vn -0.000003 1.000000 -0.000005
vn 0.000002 1.000000 -0.000005
vn -0.000003 -1.000000 0.000000
vn 0.000003 -1.000000 0.000000
vn -0.000001 -1.000000 -0.000001
vn 0.000002 -1.000000 0.000002
vn -0.000001 -1.000000 0.000001
vn 0.000002 -1.000000 0.000000
vn 0.000003 1.000000 0.000000
vn -0.000001 1.000000 0.000002
vn -0.000004 1.000000 0.000000
vn -0.000003 1.000000 0.000000

# Mesh
g Cube
usemtl Material
f 1/1/1 2/2/1 3/3/1
f 3/3/1 4/4/1 1/1/1
f 5/5/2 6/6/2 7/7/2
f 7/7/2 8/8/2 5/5/2
f 9/9/3 10/10/3 11/11/3
f 11/11/3 12/12/3 9/9/3
f 11/11/1 13/13/1 14/14/1
f 14/14/1 12/12/1 11/11/1
f 13/15/4 11/16/4 10/17/4
f 10/17/4 15/18/4 13/15/4
f 16/19/3 17/20/3 1/21/3
f 1/21/3 4/22/3 16/19/3
f 14/23/5 18/24/5 9/25/5
f 9/25/5 12/26/5 14/23/5
f 3/27/5 19/28/5 16/29/5
f 16/29/5 4/30/5 3/27/5
f 2/31/4 1/32/4 17/33/4
f 17/33/4 20/34/4 2/31/4
f 3/3/6 2/2/6 20/35/6
f 20/35/6 19/36/6 3/3/6
f 21/37/1 22/38/1 5/39/1
f 5/39/1 8/40/1 21/37/1
f 23/41/4 24/42/4 25/43/4
f 25/43/4 26/44/4 23/41/4
f 7/45/6 27/46/6 21/37/6
f 21/37/6 8/40/6 7/45/6
f 22/47/5 21/48/5 27/49/5
f 27/49/5 28/50/5 22/47/5
f 5/51/3 22/52/3 28/53/3
f 28/53/3 6/54/3 5/51/3
f 29/55/1 30/56/1 23/57/1
f 23/57/1 26/58/1 29/55/1
f 25/59/6 31/60/6 29/55/6
f 29/55/6 26/58/6 25/59/6
f 30/61/7 29/62/7 31/63/7
f 31/63/7 32/64/7 30/61/7
f 23/57/3 30/56/3 32/65/3
f 32/65/3 24/66/3 23/57/3
f 33/67/8 34/68/8 35/69/8
f 35/69/8 36/70/8 33/67/8
f 37/71/1 33/67/1 36/70/1
f 36/70/1 38/72/1 37/71/1
f 39/73/9 37/71/9 38/72/9
f 38/72/9 40/74/9 39/73/9
f 41/75/10 39/73/10 40/74/10
f 40/74/10 42/76/10 41/75/10
f 38/77/11 36/78/11 43/79/11
f 44/80/12 41/75/12 42/76/12
f 42/76/12 45/81/12 44/80/12
f 34/82/13 44/80/13 45/81/13
f 45/81/13 35/83/13 34/82/13
f 37/84/14 39/85/14 46/86/14
f 47/87/15 48/88/15 49/89/15
f 49/89/15 50/90/15 47/87/15
f 51/91/1 47/87/1 50/90/1
f 50/90/1 52/92/1 51/91/1
f 53/93/16 51/91/16 52/92/16
f 52/92/16 54/94/16 53/93/16
f 55/95/17 53/93/17 54/94/17
f 54/94/17 56/96/17 55/95/17
f 56/97/18 54/98/18 57/99/18
f 58/100/12 55/95/12 56/96/12
f 56/96/12 59/101/12 58/100/12
f 48/102/19 58/100/19 59/101/19
f 59/101/19 49/103/19 48/102/19
f 55/104/20 58/105/20 60/106/20
f 61/107/5 62/108/5 63/109/5
f 63/109/5 64/110/5 61/107/5
f 65/111/3 66/112/3 61/113/3
f 61/113/3 64/114/3 65/111/3
f 66/115/1 67/116/1 62/117/1
f 62/117/1 61/118/1 66/115/1
f 67/116/6 68/119/6 63/120/6
f 63/120/6 62/117/6 67/116/6
f 65/121/4 68/122/4 67/123/4
f 67/123/4 66/124/4 65/121/4
f 68/119/12 65/111/12 64/114/12
f 64/114/12 63/120/12 68/119/12
f 69/125/5 70/126/5 71/127/5
f 71/127/5 72/128/5 69/125/5
f 73/129/3 74/130/3 69/131/3
f 69/131/3 72/132/3 73/129/3
f 74/133/1 75/134/1 70/135/1
f 70/135/1 69/136/1 74/133/1
f 75/134/6 76/137/6 71/138/6
f 71/138/6 70/135/6 75/134/6
f 73/139/4 76/140/4 75/141/4
f 75/141/4 74/142/4 73/139/4
f 76/137/12 73/129/12 72/132/12
f 72/132/12 71/138/12 76/137/12
f 77/143/3 78/144/3 79/145/3
f 79/145/3 80/146/3 77/143/3
f 81/147/4 82/148/4 77/149/4
f 77/149/4 80/150/4 81/147/4
f 82/151/1 83/152/1 78/144/1
f 78/144/1 77/143/1 82/151/1
f 83/153/5 84/154/5 79/145/5
f 79/145/5 78/144/5 83/153/5
f 81/155/6 84/156/6 83/152/6
f 83/152/6 82/151/6 81/155/6
f 84/157/12 81/158/12 80/146/12
f 80/146/12 79/145/12 84/157/12
f 50/159/21 49/160/21 57/99/18
f 48/161/22 47/162/22 60/106/22
f 51/163/23 53/164/23 60/106/23
f 58/105/20 48/161/22 60/106/20
f 53/164/24 55/104/20 60/106/20
f 47/162/22 51/163/23 60/106/23
f 59/165/25 56/97/18 57/99/18
f 52/166/26 50/159/21 57/99/18
f 40/167/27 38/77/11 43/79/11
f 54/98/18 52/166/26 57/99/18
f 49/160/21 59/165/25 57/99/18
f 36/78/11 35/168/28 43/79/11
f 45/169/29 42/170/29 43/79/11
f 33/171/30 37/84/14 46/86/14
f 35/168/28 45/169/29 43/79/11
f 42/170/29 40/167/27 43/79/11
f 39/85/14 41/172/31 46/86/14
f 44/173/32 34/174/32 46/86/14
f 41/172/31 44/173/32 46/86/14
f 34/174/32 33/171/30 46/86/14
f 19/36/12 20/35/12 17/175/12
f 17/175/12 16/176/12 19/36/12
f 18/177/12 15/178/12 10/10/12
f 10/10/12 9/9/12 18/177/12
f 6/179/33 28/180/33 27/46/33
f 27/46/33 7/45/33 6/179/33
f 24/181/12 32/182/12 31/60/12
f 31/60/12 25/59/12 24/181/12
f 85/183/34 86/184/34 87/185/34
f 87/185/34 88/186/34 85/183/34
f 88/186/12 87/185/12 89/187/12
f 89/187/12 90/188/12 88/186/12
f 90/188/35 89/187/35 91/189/35
f 91/189/35 92/190/35 90/188/35
f 92/190/36 91/189/36 93/191/36
f 93/191/36 94/192/36 92/190/36
f 90/193/37 95/194/37 88/195/37
f 94/192/1 93/191/1 96/196/1
f 96/196/1 97/197/1 94/192/1
f 97/197/38 96/196/38 86/198/38
f 86/198/38 85/199/38 97/197/38
f 89/200/39 98/201/39 91/202/39
f 99/203/19 100/204/19 101/205/19
f 101/205/19 102/206/19 99/203/19
f 102/206/12 101/205/12 103/207/12
f 103/207/12 104/208/12 102/206/12
f 104/208/17 103/207/17 105/209/17
f 105/209/17 106/210/17 104/208/17
f 106/210/16 105/209/16 107/211/16
f 107/211/16 108/212/16 106/210/16
f 108/213/40 109/214/40 106/215/40
f 108/212/1 107/211/1 110/216/1
f 110/216/1 111/217/1 108/212/1
f 111/217/15 110/216/15 100/218/15
f 100/218/15 99/219/15 111/217/15
f 107/220/41 112/221/41 110/222/41
f 113/223/5 114/224/5 115/225/5
f 115/225/5 116/226/5 113/223/5
f 115/227/3 117/228/3 118/229/3
f 118/229/3 116/230/3 115/227/3
f 114/231/12 119/232/12 117/233/12
f 117/233/12 115/234/12 114/231/12
f 113/235/6 120/236/6 119/232/6
f 119/232/6 114/231/6 113/235/6
f 119/237/4 120/238/4 118/239/4
f 118/239/4 117/240/4 119/237/4
f 116/230/1 118/229/1 120/236/1
f 120/236/1 113/235/1 116/230/1
f 121/241/5 122/242/5 123/243/5
f 123/243/5 124/244/5 121/241/5
f 123/245/3 125/246/3 126/247/3
f 126/247/3 124/248/3 123/245/3
f 122/249/12 127/250/12 125/251/12
f 125/251/12 123/252/12 122/249/12
f 121/253/6 128/254/6 127/250/6
f 127/250/6 122/249/6 121/253/6
f 127/255/4 128/256/4 126/257/4
f 126/257/4 125/258/4 127/255/4
f 124/248/1 126/247/1 128/254/1
f 128/254/1 121/253/1 124/248/1
f 129/259/3 130/260/3 131/261/3
f 131/261/3 132/262/3 129/259/3
f 131/263/4 133/264/4 134/265/4
f 134/265/4 132/266/4 131/263/4
f 130/260/12 135/267/12 133/268/12
f 133/268/12 131/261/12 130/260/12
f 129/259/5 136/269/5 135/270/5
f 135/270/5 130/260/5 129/259/5
f 135/267/6 136/271/6 134/272/6
f 134/272/6 133/268/6 135/267/6
f 132/262/1 134/273/1 136/274/1
f 136/274/1 129/259/1 132/262/1
f 102/275/42 109/214/42 99/276/42
f 100/277/43 112/221/43 101/278/43
f 103/279/44 112/221/44 105/280/44
f 110/222/41 112/221/41 100/277/43
f 105/280/45 112/221/41 107/220/41
f 101/278/43 112/221/44 103/279/44
f 111/281/46 109/214/42 108/213/40
f 104/282/47 109/214/42 102/275/42
f 92/283/48 95/194/37 90/193/37
f 106/215/40 109/214/40 104/282/49
f 99/276/42 109/214/42 111/281/46
f 88/195/50 95/194/50 85/284/50
f 97/285/51 95/194/37 94/286/51
f 87/287/52 98/201/39 89/200/39
f 85/284/50 95/194/50 97/285/51
f 94/286/51 95/194/50 92/283/48
f 91/202/39 98/201/39 93/288/53
f 96/289/54 98/201/39 86/290/54
f 93/288/53 98/201/55 96/289/54
f 86/290/54 98/201/55 87/287/52
f 14/14/6 13/13/6 15/291/6
f 15/291/6 18/292/6 14/14/6
