# File produced by Open Asset Import Library (http://www.assimp.sf.net)
# (assimp v3.1.161429758)

mtllib backdoor(Metallic%20Standard).mtl

# vertex positions
v 0.825578 0.000000 3.834219
v 0.391016 2.568541 3.834219
v 0.825577 2.077378 3.834219
v -0.825577 0.000000 3.834219
v -0.825577 2.077378 3.834219
v -0.391016 2.568541 3.834219
v 0.000000 2.792619 3.834219

# UV coordinates
vt 0.999923 0.000077
vt 0.080304 0.155664
vt 0.256156 0.000077
vt 0.999923 0.591243
vt 0.256156 0.591243
vt 0.080304 0.435656
vt 0.000077 0.295660

# vertex normals
vn 0.000000 0.000000 -1.000000

# Mesh
g Cube.008
usemtl DefaultMaterial
f 1/1/1 2/2/1 3/3/1
f 4/4/1 5/5/1 6/6/1
f 2/2/1 6/6/1 7/7/1
f 2/2/1 1/1/1 4/4/1
f 4/4/1 6/6/1 2/2/1
